G04 EAGLE Gerber RS-274X export*
G75*
%MOMM*%
%FSLAX34Y34*%
%LPD*%
%INTop Copper*%
%IPPOS*%
%AMOC8*
5,1,8,0,0,1.08239X$1,22.5*%
G01*
%ADD10C,1.000000*%
%ADD11R,0.850000X0.950000*%
%ADD12R,0.850000X1.150000*%
%ADD13R,0.970000X1.150000*%
%ADD14R,0.970000X0.950000*%
%ADD15R,1.300000X1.500000*%
%ADD16R,1.600000X1.800000*%
%ADD17R,1.200000X1.200000*%
%ADD18R,1.600000X1.500000*%
%ADD19R,1.400000X1.000000*%
%ADD20R,1.500000X1.300000*%
%ADD21R,1.346200X0.381000*%
%ADD22R,1.900000X1.900000*%
%ADD23R,1.600000X1.803000*%
%ADD24R,1.803000X1.600000*%
%ADD25C,0.254000*%

G36*
X355718Y151146D02*
X355718Y151146D01*
X355837Y151153D01*
X355875Y151166D01*
X355916Y151171D01*
X356026Y151214D01*
X356139Y151251D01*
X356174Y151273D01*
X356211Y151288D01*
X356307Y151358D01*
X356408Y151421D01*
X356436Y151451D01*
X356469Y151474D01*
X356545Y151566D01*
X356626Y151653D01*
X356646Y151688D01*
X356671Y151719D01*
X356722Y151827D01*
X356780Y151931D01*
X356790Y151971D01*
X356807Y152007D01*
X356829Y152124D01*
X356859Y152239D01*
X356863Y152300D01*
X356867Y152320D01*
X356865Y152340D01*
X356869Y152400D01*
X356869Y508000D01*
X356854Y508118D01*
X356847Y508237D01*
X356834Y508275D01*
X356829Y508316D01*
X356786Y508426D01*
X356749Y508539D01*
X356727Y508574D01*
X356712Y508611D01*
X356643Y508707D01*
X356579Y508808D01*
X356549Y508836D01*
X356526Y508869D01*
X356434Y508945D01*
X356347Y509026D01*
X356312Y509046D01*
X356281Y509071D01*
X356173Y509122D01*
X356069Y509180D01*
X356029Y509190D01*
X355993Y509207D01*
X355876Y509229D01*
X355761Y509259D01*
X355701Y509263D01*
X355681Y509267D01*
X355660Y509265D01*
X355600Y509269D01*
X6350Y509269D01*
X6232Y509254D01*
X6113Y509247D01*
X6075Y509234D01*
X6034Y509229D01*
X5924Y509186D01*
X5811Y509149D01*
X5776Y509127D01*
X5739Y509112D01*
X5643Y509043D01*
X5542Y508979D01*
X5514Y508949D01*
X5481Y508926D01*
X5406Y508834D01*
X5324Y508747D01*
X5304Y508712D01*
X5279Y508681D01*
X5228Y508573D01*
X5170Y508469D01*
X5160Y508429D01*
X5143Y508393D01*
X5121Y508276D01*
X5091Y508161D01*
X5087Y508101D01*
X5083Y508081D01*
X5085Y508060D01*
X5081Y508000D01*
X5081Y305188D01*
X5098Y305050D01*
X5111Y304912D01*
X5118Y304893D01*
X5121Y304873D01*
X5172Y304743D01*
X5219Y304613D01*
X5230Y304596D01*
X5238Y304577D01*
X5319Y304464D01*
X5397Y304349D01*
X5413Y304336D01*
X5424Y304320D01*
X5532Y304231D01*
X5636Y304139D01*
X5654Y304130D01*
X5669Y304117D01*
X5795Y304058D01*
X5919Y303994D01*
X5939Y303990D01*
X5957Y303981D01*
X6094Y303955D01*
X6229Y303925D01*
X6250Y303925D01*
X6270Y303921D01*
X6408Y303930D01*
X6547Y303934D01*
X6567Y303940D01*
X6587Y303941D01*
X6719Y303984D01*
X6853Y304023D01*
X6870Y304033D01*
X6889Y304039D01*
X7007Y304114D01*
X7127Y304184D01*
X7148Y304203D01*
X7158Y304209D01*
X7172Y304224D01*
X7248Y304291D01*
X8498Y305541D01*
X29602Y305541D01*
X31091Y304052D01*
X31091Y282948D01*
X29602Y281459D01*
X24130Y281459D01*
X24012Y281444D01*
X23893Y281437D01*
X23855Y281424D01*
X23814Y281419D01*
X23704Y281376D01*
X23591Y281339D01*
X23556Y281317D01*
X23519Y281302D01*
X23423Y281233D01*
X23322Y281169D01*
X23294Y281139D01*
X23261Y281116D01*
X23185Y281024D01*
X23104Y280937D01*
X23084Y280902D01*
X23059Y280871D01*
X23008Y280763D01*
X22950Y280659D01*
X22940Y280619D01*
X22923Y280583D01*
X22901Y280466D01*
X22871Y280351D01*
X22867Y280291D01*
X22863Y280271D01*
X22865Y280250D01*
X22861Y280190D01*
X22861Y279310D01*
X22876Y279192D01*
X22883Y279073D01*
X22896Y279035D01*
X22901Y278994D01*
X22944Y278884D01*
X22981Y278771D01*
X23003Y278736D01*
X23018Y278699D01*
X23087Y278603D01*
X23151Y278502D01*
X23181Y278474D01*
X23204Y278441D01*
X23296Y278365D01*
X23383Y278284D01*
X23418Y278264D01*
X23449Y278239D01*
X23557Y278188D01*
X23661Y278130D01*
X23701Y278120D01*
X23737Y278103D01*
X23854Y278081D01*
X23969Y278051D01*
X24029Y278047D01*
X24049Y278043D01*
X24070Y278045D01*
X24130Y278041D01*
X29602Y278041D01*
X31091Y276552D01*
X31091Y255448D01*
X30541Y254898D01*
X30468Y254804D01*
X30389Y254714D01*
X30371Y254678D01*
X30346Y254646D01*
X30298Y254537D01*
X30244Y254431D01*
X30235Y254392D01*
X30219Y254354D01*
X30201Y254237D01*
X30175Y254121D01*
X30176Y254080D01*
X30170Y254040D01*
X30181Y253922D01*
X30184Y253803D01*
X30196Y253764D01*
X30199Y253724D01*
X30240Y253611D01*
X30273Y253497D01*
X30293Y253463D01*
X30307Y253424D01*
X30374Y253326D01*
X30434Y253223D01*
X30474Y253178D01*
X30486Y253161D01*
X30501Y253148D01*
X30541Y253103D01*
X31091Y252552D01*
X31091Y246080D01*
X31106Y245962D01*
X31113Y245843D01*
X31126Y245805D01*
X31131Y245764D01*
X31174Y245654D01*
X31211Y245541D01*
X31233Y245506D01*
X31248Y245469D01*
X31317Y245373D01*
X31381Y245272D01*
X31411Y245244D01*
X31434Y245211D01*
X31526Y245135D01*
X31613Y245054D01*
X31648Y245034D01*
X31679Y245009D01*
X31787Y244958D01*
X31891Y244900D01*
X31931Y244890D01*
X31967Y244873D01*
X32084Y244851D01*
X32199Y244821D01*
X32259Y244817D01*
X32279Y244813D01*
X32300Y244815D01*
X32360Y244811D01*
X35259Y244811D01*
X35377Y244826D01*
X35496Y244833D01*
X35534Y244846D01*
X35575Y244851D01*
X35685Y244894D01*
X35798Y244931D01*
X35833Y244953D01*
X35870Y244968D01*
X35966Y245037D01*
X36067Y245101D01*
X36095Y245131D01*
X36128Y245154D01*
X36204Y245246D01*
X36285Y245333D01*
X36305Y245368D01*
X36330Y245399D01*
X36381Y245507D01*
X36439Y245611D01*
X36449Y245651D01*
X36466Y245687D01*
X36488Y245804D01*
X36518Y245919D01*
X36522Y245979D01*
X36526Y245999D01*
X36524Y246020D01*
X36528Y246080D01*
X36528Y269957D01*
X37716Y271145D01*
X37789Y271239D01*
X37867Y271328D01*
X37886Y271364D01*
X37911Y271396D01*
X37958Y271505D01*
X38012Y271611D01*
X38021Y271651D01*
X38037Y271688D01*
X38056Y271806D01*
X38082Y271922D01*
X38080Y271962D01*
X38087Y272002D01*
X38076Y272121D01*
X38072Y272240D01*
X38061Y272278D01*
X38057Y272319D01*
X38017Y272431D01*
X37984Y272545D01*
X37963Y272580D01*
X37949Y272618D01*
X37883Y272716D01*
X37822Y272819D01*
X37796Y272848D01*
X37796Y275141D01*
X39409Y276754D01*
X41691Y276754D01*
X43304Y275141D01*
X43304Y272715D01*
X43319Y272597D01*
X43326Y272478D01*
X43339Y272440D01*
X43344Y272399D01*
X43387Y272289D01*
X43424Y272176D01*
X43446Y272141D01*
X43461Y272104D01*
X43531Y272008D01*
X43594Y271907D01*
X43624Y271879D01*
X43648Y271846D01*
X43739Y271770D01*
X43826Y271689D01*
X43861Y271669D01*
X43892Y271644D01*
X44000Y271593D01*
X44104Y271535D01*
X44144Y271525D01*
X44180Y271508D01*
X44297Y271486D01*
X44412Y271456D01*
X44473Y271452D01*
X44493Y271448D01*
X44513Y271450D01*
X44573Y271446D01*
X53583Y271446D01*
X53847Y271182D01*
X53925Y271122D01*
X53997Y271054D01*
X54050Y271025D01*
X54098Y270988D01*
X54189Y270948D01*
X54276Y270900D01*
X54334Y270885D01*
X54390Y270861D01*
X54488Y270846D01*
X54583Y270821D01*
X54684Y270815D01*
X54704Y270811D01*
X54716Y270813D01*
X54744Y270811D01*
X68046Y270811D01*
X68144Y270823D01*
X68243Y270826D01*
X68301Y270843D01*
X68361Y270851D01*
X68453Y270887D01*
X68549Y270915D01*
X68601Y270945D01*
X68657Y270968D01*
X68737Y271026D01*
X68822Y271076D01*
X68898Y271142D01*
X68914Y271154D01*
X68922Y271164D01*
X68943Y271182D01*
X78368Y280607D01*
X78428Y280685D01*
X78496Y280757D01*
X78525Y280810D01*
X78562Y280858D01*
X78602Y280949D01*
X78650Y281036D01*
X78665Y281094D01*
X78689Y281150D01*
X78704Y281248D01*
X78729Y281344D01*
X78735Y281444D01*
X78739Y281464D01*
X78737Y281476D01*
X78739Y281504D01*
X78739Y353496D01*
X78727Y353594D01*
X78724Y353693D01*
X78707Y353751D01*
X78699Y353811D01*
X78663Y353903D01*
X78635Y353999D01*
X78605Y354051D01*
X78582Y354107D01*
X78524Y354187D01*
X78474Y354272D01*
X78408Y354348D01*
X78396Y354364D01*
X78386Y354372D01*
X78368Y354393D01*
X66039Y366722D01*
X66039Y374020D01*
X66024Y374138D01*
X66017Y374257D01*
X66004Y374295D01*
X65999Y374336D01*
X65956Y374446D01*
X65919Y374559D01*
X65897Y374594D01*
X65882Y374631D01*
X65813Y374727D01*
X65749Y374828D01*
X65719Y374856D01*
X65696Y374889D01*
X65604Y374965D01*
X65517Y375046D01*
X65482Y375066D01*
X65451Y375091D01*
X65343Y375142D01*
X65239Y375200D01*
X65199Y375210D01*
X65163Y375227D01*
X65046Y375249D01*
X64931Y375279D01*
X64871Y375283D01*
X64851Y375287D01*
X64830Y375285D01*
X64770Y375289D01*
X59783Y375289D01*
X58294Y376778D01*
X58294Y394882D01*
X59783Y396371D01*
X64770Y396371D01*
X64888Y396386D01*
X65007Y396393D01*
X65045Y396406D01*
X65086Y396411D01*
X65196Y396454D01*
X65309Y396491D01*
X65344Y396513D01*
X65381Y396528D01*
X65477Y396597D01*
X65578Y396661D01*
X65606Y396691D01*
X65639Y396714D01*
X65715Y396806D01*
X65796Y396893D01*
X65816Y396928D01*
X65841Y396959D01*
X65892Y397067D01*
X65950Y397171D01*
X65960Y397211D01*
X65977Y397247D01*
X65999Y397364D01*
X66029Y397479D01*
X66033Y397539D01*
X66037Y397559D01*
X66035Y397580D01*
X66039Y397640D01*
X66039Y402460D01*
X66024Y402578D01*
X66017Y402697D01*
X66005Y402735D01*
X65999Y402776D01*
X65956Y402886D01*
X65919Y402999D01*
X65897Y403034D01*
X65882Y403071D01*
X65813Y403167D01*
X65749Y403268D01*
X65719Y403296D01*
X65696Y403329D01*
X65604Y403405D01*
X65517Y403486D01*
X65482Y403506D01*
X65451Y403531D01*
X65343Y403582D01*
X65239Y403640D01*
X65199Y403650D01*
X65163Y403667D01*
X65046Y403689D01*
X64931Y403719D01*
X64871Y403723D01*
X64851Y403727D01*
X64830Y403725D01*
X64770Y403729D01*
X59783Y403729D01*
X58294Y405218D01*
X58294Y423322D01*
X59783Y424811D01*
X79917Y424811D01*
X81406Y423322D01*
X81406Y405218D01*
X79917Y403729D01*
X74930Y403729D01*
X74812Y403714D01*
X74693Y403707D01*
X74655Y403694D01*
X74614Y403689D01*
X74504Y403646D01*
X74391Y403609D01*
X74356Y403587D01*
X74319Y403572D01*
X74223Y403503D01*
X74122Y403439D01*
X74094Y403409D01*
X74061Y403386D01*
X73985Y403294D01*
X73904Y403207D01*
X73884Y403172D01*
X73859Y403141D01*
X73808Y403033D01*
X73750Y402929D01*
X73740Y402889D01*
X73723Y402853D01*
X73701Y402736D01*
X73671Y402621D01*
X73667Y402561D01*
X73663Y402541D01*
X73664Y402527D01*
X73663Y402523D01*
X73664Y402511D01*
X73661Y402460D01*
X73661Y397640D01*
X73676Y397522D01*
X73683Y397403D01*
X73696Y397365D01*
X73701Y397324D01*
X73744Y397214D01*
X73781Y397101D01*
X73803Y397066D01*
X73818Y397029D01*
X73887Y396933D01*
X73951Y396832D01*
X73981Y396804D01*
X74004Y396771D01*
X74096Y396695D01*
X74183Y396614D01*
X74218Y396594D01*
X74249Y396569D01*
X74357Y396518D01*
X74461Y396460D01*
X74501Y396450D01*
X74537Y396433D01*
X74654Y396411D01*
X74769Y396381D01*
X74829Y396377D01*
X74849Y396373D01*
X74870Y396375D01*
X74930Y396371D01*
X79917Y396371D01*
X81406Y394882D01*
X81406Y392430D01*
X81421Y392312D01*
X81428Y392193D01*
X81441Y392155D01*
X81446Y392114D01*
X81489Y392004D01*
X81526Y391891D01*
X81548Y391856D01*
X81563Y391819D01*
X81632Y391723D01*
X81696Y391622D01*
X81726Y391594D01*
X81749Y391561D01*
X81841Y391485D01*
X81928Y391404D01*
X81963Y391384D01*
X81994Y391359D01*
X82102Y391308D01*
X82206Y391250D01*
X82246Y391240D01*
X82282Y391223D01*
X82399Y391201D01*
X82514Y391171D01*
X82574Y391167D01*
X82594Y391163D01*
X82615Y391165D01*
X82675Y391161D01*
X83940Y391161D01*
X84058Y391176D01*
X84177Y391183D01*
X84215Y391196D01*
X84256Y391201D01*
X84366Y391244D01*
X84479Y391281D01*
X84514Y391303D01*
X84551Y391318D01*
X84647Y391387D01*
X84748Y391451D01*
X84776Y391481D01*
X84809Y391504D01*
X84885Y391596D01*
X84966Y391683D01*
X84986Y391718D01*
X85011Y391749D01*
X85062Y391857D01*
X85120Y391961D01*
X85130Y392001D01*
X85147Y392037D01*
X85169Y392154D01*
X85199Y392269D01*
X85203Y392329D01*
X85207Y392349D01*
X85205Y392370D01*
X85209Y392430D01*
X85209Y398102D01*
X86259Y399153D01*
X86332Y399247D01*
X86411Y399336D01*
X86429Y399372D01*
X86454Y399404D01*
X86502Y399513D01*
X86556Y399619D01*
X86565Y399658D01*
X86581Y399696D01*
X86599Y399813D01*
X86625Y399929D01*
X86624Y399970D01*
X86630Y400010D01*
X86619Y400128D01*
X86616Y400247D01*
X86604Y400286D01*
X86601Y400326D01*
X86560Y400438D01*
X86527Y400553D01*
X86507Y400588D01*
X86493Y400626D01*
X86426Y400724D01*
X86366Y400827D01*
X86326Y400872D01*
X86314Y400889D01*
X86299Y400902D01*
X86259Y400948D01*
X85209Y401998D01*
X85209Y417102D01*
X86698Y418591D01*
X98376Y418591D01*
X98474Y418603D01*
X98573Y418606D01*
X98631Y418623D01*
X98691Y418631D01*
X98783Y418667D01*
X98879Y418695D01*
X98931Y418725D01*
X98987Y418748D01*
X99067Y418806D01*
X99152Y418856D01*
X99228Y418922D01*
X99244Y418934D01*
X99252Y418944D01*
X99273Y418962D01*
X113318Y433007D01*
X115922Y435611D01*
X278778Y435611D01*
X288577Y425812D01*
X288655Y425752D01*
X288727Y425684D01*
X288780Y425655D01*
X288828Y425618D01*
X288919Y425578D01*
X289006Y425530D01*
X289064Y425515D01*
X289120Y425491D01*
X289218Y425476D01*
X289314Y425451D01*
X289414Y425445D01*
X289434Y425441D01*
X289446Y425443D01*
X289474Y425441D01*
X299152Y425441D01*
X300641Y423952D01*
X300641Y409848D01*
X299152Y408359D01*
X285048Y408359D01*
X283559Y409848D01*
X283559Y419526D01*
X283547Y419624D01*
X283544Y419723D01*
X283527Y419781D01*
X283519Y419841D01*
X283483Y419933D01*
X283455Y420029D01*
X283425Y420081D01*
X283402Y420137D01*
X283344Y420217D01*
X283294Y420302D01*
X283228Y420378D01*
X283216Y420394D01*
X283206Y420402D01*
X283188Y420423D01*
X275993Y427618D01*
X275915Y427678D01*
X275843Y427746D01*
X275790Y427775D01*
X275742Y427812D01*
X275651Y427852D01*
X275564Y427900D01*
X275506Y427915D01*
X275450Y427939D01*
X275352Y427954D01*
X275256Y427979D01*
X275156Y427985D01*
X275136Y427989D01*
X275124Y427987D01*
X275096Y427989D01*
X266264Y427989D01*
X266127Y427972D01*
X265988Y427959D01*
X265969Y427952D01*
X265949Y427949D01*
X265820Y427898D01*
X265689Y427851D01*
X265672Y427840D01*
X265653Y427832D01*
X265541Y427751D01*
X265425Y427673D01*
X265412Y427657D01*
X265396Y427646D01*
X265307Y427538D01*
X265215Y427434D01*
X265206Y427416D01*
X265193Y427401D01*
X265134Y427275D01*
X265070Y427151D01*
X265066Y427131D01*
X265057Y427113D01*
X265031Y426977D01*
X265001Y426841D01*
X265001Y426820D01*
X264997Y426801D01*
X265006Y426662D01*
X265010Y426523D01*
X265016Y426503D01*
X265017Y426483D01*
X265060Y426351D01*
X265099Y426217D01*
X265109Y426200D01*
X265115Y426181D01*
X265190Y426063D01*
X265260Y425943D01*
X265279Y425922D01*
X265285Y425912D01*
X265300Y425898D01*
X265367Y425823D01*
X274257Y416932D01*
X276861Y414328D01*
X276861Y389454D01*
X276873Y389356D01*
X276876Y389257D01*
X276893Y389199D01*
X276901Y389139D01*
X276937Y389047D01*
X276965Y388951D01*
X276995Y388899D01*
X277018Y388843D01*
X277076Y388763D01*
X277126Y388678D01*
X277192Y388602D01*
X277204Y388586D01*
X277214Y388578D01*
X277232Y388557D01*
X282201Y383589D01*
X282295Y383516D01*
X282384Y383437D01*
X282420Y383419D01*
X282452Y383394D01*
X282561Y383346D01*
X282667Y383292D01*
X282706Y383283D01*
X282744Y383267D01*
X282861Y383249D01*
X282977Y383223D01*
X283018Y383224D01*
X283058Y383218D01*
X283176Y383229D01*
X283295Y383232D01*
X283334Y383244D01*
X283374Y383247D01*
X283487Y383288D01*
X283601Y383321D01*
X283636Y383341D01*
X283674Y383355D01*
X283772Y383422D01*
X283875Y383482D01*
X283920Y383522D01*
X283937Y383534D01*
X283950Y383549D01*
X283996Y383589D01*
X285599Y385193D01*
X285685Y385302D01*
X285773Y385409D01*
X285782Y385428D01*
X285794Y385444D01*
X285850Y385572D01*
X285909Y385697D01*
X285913Y385717D01*
X285921Y385736D01*
X285943Y385874D01*
X285969Y386010D01*
X285967Y386030D01*
X285971Y386050D01*
X285957Y386189D01*
X285949Y386327D01*
X285943Y386346D01*
X285941Y386366D01*
X285894Y386498D01*
X285851Y386629D01*
X285840Y386647D01*
X285833Y386666D01*
X285755Y386781D01*
X285681Y386898D01*
X285666Y386912D01*
X285655Y386929D01*
X285550Y387021D01*
X285449Y387116D01*
X285431Y387126D01*
X285416Y387139D01*
X285292Y387202D01*
X285171Y387270D01*
X285151Y387275D01*
X285133Y387284D01*
X285120Y387287D01*
X283559Y388848D01*
X283559Y402952D01*
X285048Y404441D01*
X299152Y404441D01*
X300641Y402952D01*
X300641Y400980D01*
X300656Y400862D01*
X300663Y400743D01*
X300676Y400705D01*
X300681Y400664D01*
X300724Y400554D01*
X300761Y400441D01*
X300783Y400406D01*
X300798Y400369D01*
X300867Y400273D01*
X300931Y400172D01*
X300961Y400144D01*
X300984Y400111D01*
X301076Y400035D01*
X301163Y399954D01*
X301198Y399934D01*
X301229Y399909D01*
X301337Y399858D01*
X301441Y399800D01*
X301481Y399790D01*
X301517Y399773D01*
X301634Y399751D01*
X301749Y399721D01*
X301809Y399717D01*
X301829Y399713D01*
X301850Y399715D01*
X301910Y399711D01*
X310528Y399711D01*
X321311Y388928D01*
X321311Y377110D01*
X321326Y376992D01*
X321333Y376873D01*
X321346Y376835D01*
X321351Y376794D01*
X321394Y376684D01*
X321431Y376571D01*
X321453Y376536D01*
X321468Y376499D01*
X321537Y376403D01*
X321601Y376302D01*
X321631Y376274D01*
X321654Y376241D01*
X321746Y376165D01*
X321833Y376084D01*
X321868Y376064D01*
X321899Y376039D01*
X322007Y375988D01*
X322111Y375930D01*
X322151Y375920D01*
X322187Y375903D01*
X322304Y375881D01*
X322419Y375851D01*
X322479Y375847D01*
X322499Y375843D01*
X322520Y375845D01*
X322580Y375841D01*
X323852Y375841D01*
X325341Y374352D01*
X325341Y362248D01*
X323852Y360759D01*
X307748Y360759D01*
X306259Y362248D01*
X306259Y374352D01*
X307748Y375841D01*
X312420Y375841D01*
X312538Y375856D01*
X312657Y375863D01*
X312695Y375876D01*
X312736Y375881D01*
X312846Y375924D01*
X312959Y375961D01*
X312994Y375983D01*
X313031Y375998D01*
X313127Y376067D01*
X313228Y376131D01*
X313256Y376161D01*
X313289Y376184D01*
X313365Y376276D01*
X313446Y376363D01*
X313466Y376398D01*
X313491Y376429D01*
X313542Y376537D01*
X313600Y376641D01*
X313610Y376681D01*
X313627Y376717D01*
X313649Y376834D01*
X313679Y376949D01*
X313683Y377009D01*
X313687Y377029D01*
X313685Y377050D01*
X313689Y377110D01*
X313689Y385246D01*
X313677Y385344D01*
X313674Y385443D01*
X313657Y385501D01*
X313649Y385561D01*
X313613Y385653D01*
X313585Y385749D01*
X313555Y385801D01*
X313532Y385857D01*
X313474Y385937D01*
X313424Y386022D01*
X313358Y386098D01*
X313346Y386114D01*
X313336Y386122D01*
X313318Y386143D01*
X307743Y391718D01*
X307665Y391778D01*
X307593Y391846D01*
X307540Y391875D01*
X307492Y391912D01*
X307401Y391952D01*
X307314Y392000D01*
X307256Y392015D01*
X307200Y392039D01*
X307102Y392054D01*
X307006Y392079D01*
X306906Y392085D01*
X306886Y392089D01*
X306874Y392087D01*
X306846Y392089D01*
X301910Y392089D01*
X301792Y392074D01*
X301673Y392067D01*
X301635Y392054D01*
X301594Y392049D01*
X301484Y392006D01*
X301371Y391969D01*
X301336Y391947D01*
X301299Y391932D01*
X301203Y391863D01*
X301102Y391799D01*
X301074Y391769D01*
X301041Y391746D01*
X300965Y391654D01*
X300884Y391567D01*
X300864Y391532D01*
X300839Y391501D01*
X300788Y391393D01*
X300730Y391289D01*
X300720Y391249D01*
X300703Y391213D01*
X300681Y391096D01*
X300651Y390981D01*
X300647Y390921D01*
X300643Y390901D01*
X300645Y390880D01*
X300641Y390820D01*
X300641Y388848D01*
X299301Y387507D01*
X299215Y387398D01*
X299127Y387291D01*
X299118Y387272D01*
X299106Y387256D01*
X299050Y387128D01*
X298991Y387003D01*
X298987Y386983D01*
X298979Y386964D01*
X298957Y386826D01*
X298931Y386690D01*
X298933Y386670D01*
X298929Y386650D01*
X298943Y386511D01*
X298951Y386373D01*
X298957Y386354D01*
X298959Y386334D01*
X299006Y386202D01*
X299049Y386071D01*
X299060Y386053D01*
X299067Y386034D01*
X299145Y385919D01*
X299219Y385802D01*
X299234Y385788D01*
X299245Y385771D01*
X299350Y385679D01*
X299451Y385584D01*
X299469Y385574D01*
X299484Y385561D01*
X299608Y385497D01*
X299729Y385430D01*
X299749Y385425D01*
X299767Y385416D01*
X299903Y385386D01*
X300037Y385351D01*
X300065Y385349D01*
X300077Y385346D01*
X300098Y385347D01*
X300198Y385341D01*
X301852Y385341D01*
X303341Y383852D01*
X303341Y371748D01*
X301852Y370259D01*
X285748Y370259D01*
X284259Y371748D01*
X284259Y372720D01*
X284244Y372838D01*
X284237Y372957D01*
X284224Y372995D01*
X284219Y373036D01*
X284176Y373146D01*
X284139Y373259D01*
X284117Y373294D01*
X284102Y373331D01*
X284033Y373427D01*
X283969Y373528D01*
X283939Y373556D01*
X283916Y373589D01*
X283824Y373665D01*
X283737Y373746D01*
X283702Y373766D01*
X283671Y373791D01*
X283563Y373842D01*
X283459Y373900D01*
X283419Y373910D01*
X283383Y373927D01*
X283266Y373949D01*
X283151Y373979D01*
X283091Y373983D01*
X283071Y373987D01*
X283050Y373985D01*
X282990Y373989D01*
X281022Y373989D01*
X269239Y385772D01*
X269239Y410646D01*
X269227Y410744D01*
X269224Y410843D01*
X269207Y410901D01*
X269199Y410961D01*
X269163Y411053D01*
X269135Y411149D01*
X269105Y411201D01*
X269082Y411257D01*
X269024Y411337D01*
X268974Y411422D01*
X268908Y411498D01*
X268896Y411514D01*
X268886Y411522D01*
X268868Y411543D01*
X259143Y421268D01*
X259065Y421328D01*
X258993Y421396D01*
X258940Y421425D01*
X258892Y421462D01*
X258801Y421502D01*
X258714Y421550D01*
X258656Y421565D01*
X258600Y421589D01*
X258502Y421604D01*
X258407Y421629D01*
X258306Y421635D01*
X258286Y421639D01*
X258274Y421637D01*
X258246Y421639D01*
X249754Y421639D01*
X249656Y421627D01*
X249557Y421624D01*
X249499Y421607D01*
X249439Y421599D01*
X249347Y421563D01*
X249251Y421535D01*
X249199Y421505D01*
X249143Y421482D01*
X249063Y421424D01*
X248978Y421374D01*
X248902Y421308D01*
X248886Y421296D01*
X248878Y421286D01*
X248857Y421268D01*
X247997Y420407D01*
X247911Y420298D01*
X247823Y420191D01*
X247814Y420172D01*
X247802Y420156D01*
X247746Y420028D01*
X247687Y419903D01*
X247683Y419883D01*
X247675Y419864D01*
X247653Y419726D01*
X247627Y419590D01*
X247629Y419570D01*
X247626Y419550D01*
X247639Y419411D01*
X247647Y419273D01*
X247653Y419254D01*
X247655Y419234D01*
X247703Y419102D01*
X247745Y418971D01*
X247756Y418953D01*
X247763Y418934D01*
X247841Y418819D01*
X247915Y418702D01*
X247930Y418688D01*
X247942Y418671D01*
X248046Y418579D01*
X248147Y418484D01*
X248165Y418474D01*
X248180Y418461D01*
X248304Y418397D01*
X248426Y418330D01*
X248445Y418325D01*
X248463Y418316D01*
X248599Y418286D01*
X248733Y418251D01*
X248762Y418249D01*
X248773Y418246D01*
X248794Y418247D01*
X248894Y418241D01*
X250352Y418241D01*
X251841Y416752D01*
X251841Y399648D01*
X250352Y398159D01*
X232248Y398159D01*
X230759Y399648D01*
X230759Y416752D01*
X232248Y418241D01*
X236220Y418241D01*
X236338Y418256D01*
X236457Y418263D01*
X236495Y418276D01*
X236536Y418281D01*
X236646Y418324D01*
X236759Y418361D01*
X236794Y418383D01*
X236831Y418398D01*
X236927Y418467D01*
X237028Y418531D01*
X237056Y418561D01*
X237089Y418584D01*
X237165Y418676D01*
X237246Y418763D01*
X237266Y418798D01*
X237291Y418829D01*
X237342Y418937D01*
X237400Y419041D01*
X237410Y419081D01*
X237427Y419117D01*
X237449Y419234D01*
X237479Y419349D01*
X237483Y419409D01*
X237487Y419429D01*
X237485Y419450D01*
X237489Y419510D01*
X237489Y420370D01*
X237474Y420488D01*
X237467Y420607D01*
X237454Y420645D01*
X237449Y420686D01*
X237406Y420796D01*
X237369Y420909D01*
X237347Y420944D01*
X237332Y420981D01*
X237263Y421077D01*
X237199Y421178D01*
X237169Y421206D01*
X237146Y421239D01*
X237054Y421315D01*
X236967Y421396D01*
X236932Y421416D01*
X236901Y421441D01*
X236793Y421492D01*
X236689Y421550D01*
X236649Y421560D01*
X236613Y421577D01*
X236496Y421599D01*
X236381Y421629D01*
X236321Y421633D01*
X236301Y421637D01*
X236280Y421635D01*
X236220Y421639D01*
X218004Y421639D01*
X217906Y421627D01*
X217807Y421624D01*
X217749Y421607D01*
X217689Y421599D01*
X217597Y421563D01*
X217501Y421535D01*
X217449Y421505D01*
X217393Y421482D01*
X217313Y421424D01*
X217228Y421374D01*
X217152Y421308D01*
X217136Y421296D01*
X217128Y421286D01*
X217107Y421268D01*
X198428Y402589D01*
X178430Y402589D01*
X178312Y402574D01*
X178193Y402567D01*
X178155Y402554D01*
X178114Y402549D01*
X178004Y402506D01*
X177891Y402469D01*
X177856Y402447D01*
X177819Y402432D01*
X177723Y402363D01*
X177622Y402299D01*
X177594Y402269D01*
X177561Y402246D01*
X177485Y402154D01*
X177404Y402067D01*
X177384Y402032D01*
X177359Y402001D01*
X177308Y401893D01*
X177250Y401789D01*
X177240Y401749D01*
X177223Y401713D01*
X177201Y401596D01*
X177171Y401481D01*
X177167Y401421D01*
X177163Y401401D01*
X177165Y401380D01*
X177161Y401320D01*
X177161Y396333D01*
X175672Y394844D01*
X157568Y394844D01*
X156079Y396333D01*
X156079Y401320D01*
X156064Y401438D01*
X156057Y401557D01*
X156044Y401595D01*
X156039Y401636D01*
X155996Y401746D01*
X155959Y401859D01*
X155937Y401894D01*
X155922Y401931D01*
X155853Y402027D01*
X155789Y402128D01*
X155759Y402156D01*
X155736Y402189D01*
X155644Y402265D01*
X155557Y402346D01*
X155522Y402366D01*
X155491Y402391D01*
X155383Y402442D01*
X155279Y402500D01*
X155239Y402510D01*
X155203Y402527D01*
X155086Y402549D01*
X154971Y402579D01*
X154911Y402583D01*
X154891Y402587D01*
X154870Y402585D01*
X154810Y402589D01*
X149990Y402589D01*
X149872Y402574D01*
X149753Y402567D01*
X149715Y402554D01*
X149674Y402549D01*
X149564Y402506D01*
X149451Y402469D01*
X149416Y402447D01*
X149379Y402432D01*
X149283Y402363D01*
X149182Y402299D01*
X149154Y402269D01*
X149121Y402246D01*
X149045Y402154D01*
X148964Y402067D01*
X148944Y402032D01*
X148919Y402001D01*
X148868Y401893D01*
X148810Y401789D01*
X148800Y401749D01*
X148783Y401713D01*
X148761Y401596D01*
X148731Y401481D01*
X148727Y401421D01*
X148723Y401401D01*
X148725Y401380D01*
X148721Y401320D01*
X148721Y396333D01*
X147232Y394844D01*
X129128Y394844D01*
X127639Y396333D01*
X127639Y416467D01*
X129128Y417956D01*
X147232Y417956D01*
X148721Y416467D01*
X148721Y411480D01*
X148736Y411362D01*
X148743Y411243D01*
X148756Y411205D01*
X148761Y411164D01*
X148804Y411054D01*
X148841Y410941D01*
X148863Y410906D01*
X148878Y410869D01*
X148947Y410773D01*
X149011Y410672D01*
X149041Y410644D01*
X149064Y410611D01*
X149156Y410535D01*
X149243Y410454D01*
X149278Y410434D01*
X149309Y410409D01*
X149417Y410358D01*
X149521Y410300D01*
X149561Y410290D01*
X149597Y410273D01*
X149714Y410251D01*
X149829Y410221D01*
X149889Y410217D01*
X149909Y410213D01*
X149930Y410215D01*
X149990Y410211D01*
X154810Y410211D01*
X154928Y410226D01*
X155047Y410233D01*
X155085Y410246D01*
X155126Y410251D01*
X155236Y410294D01*
X155349Y410331D01*
X155384Y410353D01*
X155421Y410368D01*
X155517Y410437D01*
X155618Y410501D01*
X155646Y410531D01*
X155679Y410554D01*
X155755Y410646D01*
X155836Y410733D01*
X155856Y410768D01*
X155881Y410799D01*
X155932Y410907D01*
X155990Y411011D01*
X156000Y411051D01*
X156017Y411087D01*
X156039Y411204D01*
X156069Y411319D01*
X156073Y411379D01*
X156077Y411399D01*
X156075Y411420D01*
X156079Y411480D01*
X156079Y416467D01*
X157568Y417956D01*
X175672Y417956D01*
X177161Y416467D01*
X177161Y411480D01*
X177176Y411362D01*
X177183Y411243D01*
X177196Y411205D01*
X177201Y411164D01*
X177244Y411054D01*
X177281Y410941D01*
X177303Y410906D01*
X177318Y410869D01*
X177387Y410773D01*
X177451Y410672D01*
X177481Y410644D01*
X177504Y410611D01*
X177596Y410535D01*
X177683Y410454D01*
X177718Y410434D01*
X177749Y410409D01*
X177857Y410358D01*
X177961Y410300D01*
X178001Y410290D01*
X178037Y410273D01*
X178154Y410251D01*
X178269Y410221D01*
X178329Y410217D01*
X178349Y410213D01*
X178370Y410215D01*
X178430Y410211D01*
X194746Y410211D01*
X194844Y410223D01*
X194943Y410226D01*
X195001Y410243D01*
X195061Y410251D01*
X195153Y410287D01*
X195249Y410315D01*
X195301Y410345D01*
X195357Y410368D01*
X195437Y410426D01*
X195522Y410476D01*
X195598Y410542D01*
X195614Y410554D01*
X195622Y410564D01*
X195643Y410582D01*
X210883Y425823D01*
X210969Y425932D01*
X211057Y426039D01*
X211066Y426058D01*
X211078Y426074D01*
X211134Y426202D01*
X211193Y426327D01*
X211197Y426347D01*
X211205Y426366D01*
X211227Y426504D01*
X211253Y426640D01*
X211251Y426660D01*
X211254Y426680D01*
X211241Y426819D01*
X211233Y426957D01*
X211227Y426976D01*
X211225Y426996D01*
X211177Y427128D01*
X211135Y427259D01*
X211124Y427277D01*
X211117Y427296D01*
X211039Y427411D01*
X210965Y427528D01*
X210950Y427542D01*
X210938Y427559D01*
X210834Y427651D01*
X210733Y427746D01*
X210715Y427756D01*
X210700Y427769D01*
X210576Y427832D01*
X210454Y427900D01*
X210435Y427905D01*
X210417Y427914D01*
X210281Y427944D01*
X210147Y427979D01*
X210118Y427981D01*
X210107Y427984D01*
X210086Y427983D01*
X209986Y427989D01*
X119604Y427989D01*
X119506Y427977D01*
X119407Y427974D01*
X119349Y427957D01*
X119289Y427949D01*
X119197Y427913D01*
X119101Y427885D01*
X119049Y427855D01*
X118993Y427832D01*
X118913Y427774D01*
X118828Y427724D01*
X118752Y427658D01*
X118736Y427646D01*
X118728Y427636D01*
X118707Y427618D01*
X105662Y414573D01*
X105602Y414495D01*
X105534Y414423D01*
X105505Y414370D01*
X105468Y414322D01*
X105428Y414231D01*
X105380Y414144D01*
X105365Y414086D01*
X105341Y414030D01*
X105326Y413932D01*
X105301Y413837D01*
X105295Y413736D01*
X105291Y413716D01*
X105293Y413704D01*
X105291Y413676D01*
X105291Y401998D01*
X104241Y400948D01*
X104168Y400853D01*
X104089Y400764D01*
X104070Y400728D01*
X104046Y400696D01*
X103998Y400587D01*
X103944Y400481D01*
X103935Y400442D01*
X103919Y400404D01*
X103901Y400287D01*
X103875Y400171D01*
X103876Y400130D01*
X103870Y400090D01*
X103881Y399972D01*
X103884Y399853D01*
X103896Y399814D01*
X103899Y399774D01*
X103940Y399661D01*
X103973Y399547D01*
X103993Y399513D01*
X104007Y399474D01*
X104074Y399376D01*
X104134Y399273D01*
X104174Y399228D01*
X104186Y399211D01*
X104201Y399198D01*
X104241Y399153D01*
X105291Y398102D01*
X105291Y382998D01*
X103802Y381509D01*
X100330Y381509D01*
X100212Y381494D01*
X100093Y381487D01*
X100055Y381474D01*
X100014Y381469D01*
X99904Y381426D01*
X99791Y381389D01*
X99756Y381367D01*
X99719Y381352D01*
X99623Y381283D01*
X99522Y381219D01*
X99494Y381189D01*
X99461Y381166D01*
X99385Y381074D01*
X99304Y380987D01*
X99284Y380952D01*
X99259Y380921D01*
X99208Y380813D01*
X99150Y380709D01*
X99140Y380669D01*
X99123Y380633D01*
X99101Y380516D01*
X99071Y380401D01*
X99067Y380341D01*
X99063Y380321D01*
X99065Y380300D01*
X99061Y380240D01*
X99061Y345004D01*
X99073Y344906D01*
X99076Y344807D01*
X99093Y344749D01*
X99101Y344689D01*
X99137Y344597D01*
X99165Y344501D01*
X99195Y344449D01*
X99218Y344393D01*
X99276Y344313D01*
X99326Y344228D01*
X99392Y344152D01*
X99404Y344136D01*
X99414Y344128D01*
X99432Y344107D01*
X102807Y340732D01*
X102885Y340672D01*
X102957Y340604D01*
X103010Y340575D01*
X103058Y340538D01*
X103149Y340498D01*
X103236Y340450D01*
X103294Y340435D01*
X103350Y340411D01*
X103448Y340396D01*
X103544Y340371D01*
X103644Y340365D01*
X103664Y340361D01*
X103676Y340363D01*
X103704Y340361D01*
X202790Y340361D01*
X202908Y340376D01*
X203027Y340383D01*
X203065Y340396D01*
X203106Y340401D01*
X203216Y340444D01*
X203329Y340481D01*
X203364Y340503D01*
X203401Y340518D01*
X203497Y340587D01*
X203598Y340651D01*
X203626Y340681D01*
X203659Y340704D01*
X203735Y340796D01*
X203816Y340883D01*
X203836Y340918D01*
X203861Y340949D01*
X203912Y341057D01*
X203970Y341161D01*
X203980Y341201D01*
X203997Y341237D01*
X204019Y341354D01*
X204049Y341469D01*
X204053Y341529D01*
X204057Y341549D01*
X204055Y341570D01*
X204059Y341630D01*
X204059Y346602D01*
X205548Y348091D01*
X223520Y348091D01*
X223638Y348106D01*
X223757Y348113D01*
X223795Y348126D01*
X223836Y348131D01*
X223946Y348174D01*
X224059Y348211D01*
X224094Y348233D01*
X224131Y348248D01*
X224227Y348317D01*
X224328Y348381D01*
X224356Y348411D01*
X224389Y348434D01*
X224465Y348526D01*
X224546Y348613D01*
X224566Y348648D01*
X224591Y348679D01*
X224642Y348787D01*
X224700Y348891D01*
X224710Y348931D01*
X224727Y348967D01*
X224749Y349084D01*
X224779Y349199D01*
X224783Y349259D01*
X224787Y349279D01*
X224785Y349300D01*
X224789Y349360D01*
X224789Y357178D01*
X227118Y359507D01*
X227178Y359585D01*
X227246Y359657D01*
X227275Y359710D01*
X227312Y359758D01*
X227352Y359849D01*
X227400Y359936D01*
X227415Y359994D01*
X227439Y360050D01*
X227454Y360148D01*
X227479Y360244D01*
X227485Y360344D01*
X227489Y360364D01*
X227487Y360376D01*
X227489Y360404D01*
X227489Y365890D01*
X227474Y366008D01*
X227467Y366127D01*
X227454Y366165D01*
X227449Y366206D01*
X227406Y366316D01*
X227369Y366429D01*
X227347Y366464D01*
X227332Y366501D01*
X227263Y366597D01*
X227199Y366698D01*
X227169Y366726D01*
X227146Y366759D01*
X227054Y366835D01*
X226967Y366916D01*
X226932Y366936D01*
X226901Y366961D01*
X226793Y367012D01*
X226689Y367070D01*
X226649Y367080D01*
X226613Y367097D01*
X226496Y367119D01*
X226381Y367149D01*
X226321Y367153D01*
X226301Y367157D01*
X226280Y367155D01*
X226220Y367159D01*
X224248Y367159D01*
X222759Y368648D01*
X222759Y369570D01*
X222744Y369688D01*
X222737Y369807D01*
X222724Y369845D01*
X222719Y369886D01*
X222676Y369996D01*
X222639Y370109D01*
X222617Y370144D01*
X222602Y370181D01*
X222533Y370277D01*
X222469Y370378D01*
X222439Y370406D01*
X222416Y370439D01*
X222324Y370515D01*
X222237Y370596D01*
X222202Y370616D01*
X222171Y370641D01*
X222063Y370692D01*
X221959Y370750D01*
X221919Y370760D01*
X221883Y370777D01*
X221766Y370799D01*
X221651Y370829D01*
X221591Y370833D01*
X221571Y370837D01*
X221550Y370835D01*
X221490Y370839D01*
X205304Y370839D01*
X205206Y370827D01*
X205107Y370824D01*
X205049Y370807D01*
X204989Y370799D01*
X204897Y370763D01*
X204801Y370735D01*
X204749Y370705D01*
X204693Y370682D01*
X204613Y370624D01*
X204528Y370574D01*
X204452Y370508D01*
X204436Y370496D01*
X204428Y370486D01*
X204407Y370468D01*
X198428Y364489D01*
X178430Y364489D01*
X178312Y364474D01*
X178193Y364467D01*
X178155Y364454D01*
X178114Y364449D01*
X178004Y364406D01*
X177891Y364369D01*
X177856Y364347D01*
X177819Y364332D01*
X177723Y364263D01*
X177622Y364199D01*
X177594Y364169D01*
X177561Y364146D01*
X177485Y364054D01*
X177404Y363967D01*
X177384Y363932D01*
X177359Y363901D01*
X177308Y363793D01*
X177250Y363689D01*
X177240Y363649D01*
X177223Y363613D01*
X177201Y363496D01*
X177171Y363381D01*
X177167Y363321D01*
X177163Y363301D01*
X177165Y363280D01*
X177161Y363220D01*
X177161Y358233D01*
X175672Y356744D01*
X157568Y356744D01*
X156079Y358233D01*
X156079Y363220D01*
X156064Y363338D01*
X156057Y363457D01*
X156044Y363495D01*
X156039Y363536D01*
X155996Y363646D01*
X155959Y363759D01*
X155937Y363794D01*
X155922Y363831D01*
X155853Y363927D01*
X155789Y364028D01*
X155759Y364056D01*
X155736Y364089D01*
X155644Y364165D01*
X155557Y364246D01*
X155522Y364266D01*
X155491Y364291D01*
X155383Y364342D01*
X155279Y364400D01*
X155239Y364410D01*
X155203Y364427D01*
X155086Y364449D01*
X154971Y364479D01*
X154911Y364483D01*
X154891Y364487D01*
X154870Y364485D01*
X154810Y364489D01*
X149990Y364489D01*
X149872Y364474D01*
X149753Y364467D01*
X149715Y364454D01*
X149674Y364449D01*
X149564Y364406D01*
X149451Y364369D01*
X149416Y364347D01*
X149379Y364332D01*
X149283Y364263D01*
X149182Y364199D01*
X149154Y364169D01*
X149121Y364146D01*
X149045Y364054D01*
X148964Y363967D01*
X148944Y363932D01*
X148919Y363901D01*
X148868Y363793D01*
X148810Y363689D01*
X148800Y363649D01*
X148783Y363613D01*
X148761Y363496D01*
X148731Y363381D01*
X148727Y363321D01*
X148723Y363301D01*
X148725Y363280D01*
X148721Y363220D01*
X148721Y358233D01*
X147232Y356744D01*
X129128Y356744D01*
X127639Y358233D01*
X127639Y378367D01*
X129128Y379856D01*
X147232Y379856D01*
X148721Y378367D01*
X148721Y373380D01*
X148736Y373262D01*
X148743Y373143D01*
X148756Y373105D01*
X148761Y373064D01*
X148804Y372954D01*
X148841Y372841D01*
X148863Y372806D01*
X148878Y372769D01*
X148947Y372673D01*
X149011Y372572D01*
X149041Y372544D01*
X149064Y372511D01*
X149156Y372435D01*
X149243Y372354D01*
X149278Y372334D01*
X149309Y372309D01*
X149417Y372258D01*
X149521Y372200D01*
X149561Y372190D01*
X149597Y372173D01*
X149714Y372151D01*
X149829Y372121D01*
X149889Y372117D01*
X149909Y372113D01*
X149930Y372115D01*
X149990Y372111D01*
X154810Y372111D01*
X154928Y372126D01*
X155047Y372133D01*
X155085Y372146D01*
X155126Y372151D01*
X155236Y372194D01*
X155349Y372231D01*
X155384Y372253D01*
X155421Y372268D01*
X155517Y372337D01*
X155618Y372401D01*
X155646Y372431D01*
X155679Y372454D01*
X155755Y372546D01*
X155836Y372633D01*
X155856Y372668D01*
X155881Y372699D01*
X155932Y372807D01*
X155990Y372911D01*
X156000Y372951D01*
X156017Y372987D01*
X156039Y373104D01*
X156069Y373219D01*
X156073Y373279D01*
X156077Y373299D01*
X156075Y373320D01*
X156079Y373380D01*
X156079Y378367D01*
X157568Y379856D01*
X175672Y379856D01*
X177161Y378367D01*
X177161Y373380D01*
X177176Y373262D01*
X177183Y373143D01*
X177196Y373105D01*
X177201Y373064D01*
X177244Y372954D01*
X177281Y372841D01*
X177303Y372806D01*
X177318Y372769D01*
X177387Y372673D01*
X177451Y372572D01*
X177481Y372544D01*
X177504Y372511D01*
X177596Y372435D01*
X177683Y372354D01*
X177718Y372334D01*
X177749Y372309D01*
X177857Y372258D01*
X177961Y372200D01*
X178001Y372190D01*
X178037Y372173D01*
X178154Y372151D01*
X178269Y372121D01*
X178329Y372117D01*
X178349Y372113D01*
X178370Y372115D01*
X178430Y372111D01*
X194746Y372111D01*
X194844Y372123D01*
X194943Y372126D01*
X195001Y372143D01*
X195061Y372151D01*
X195153Y372187D01*
X195249Y372215D01*
X195301Y372245D01*
X195357Y372268D01*
X195437Y372326D01*
X195522Y372376D01*
X195598Y372442D01*
X195614Y372454D01*
X195622Y372464D01*
X195643Y372482D01*
X201622Y378461D01*
X221490Y378461D01*
X221608Y378476D01*
X221727Y378483D01*
X221765Y378496D01*
X221806Y378501D01*
X221916Y378544D01*
X222029Y378581D01*
X222064Y378603D01*
X222101Y378618D01*
X222197Y378687D01*
X222298Y378751D01*
X222326Y378781D01*
X222359Y378804D01*
X222435Y378896D01*
X222516Y378983D01*
X222536Y379018D01*
X222561Y379049D01*
X222612Y379157D01*
X222670Y379261D01*
X222680Y379301D01*
X222697Y379337D01*
X222719Y379454D01*
X222749Y379569D01*
X222753Y379629D01*
X222757Y379649D01*
X222755Y379670D01*
X222759Y379730D01*
X222759Y382752D01*
X224248Y384241D01*
X238352Y384241D01*
X239841Y382752D01*
X239841Y368648D01*
X238352Y367159D01*
X236380Y367159D01*
X236262Y367144D01*
X236143Y367137D01*
X236105Y367124D01*
X236064Y367119D01*
X235954Y367076D01*
X235841Y367039D01*
X235806Y367017D01*
X235769Y367002D01*
X235673Y366933D01*
X235572Y366869D01*
X235544Y366839D01*
X235511Y366816D01*
X235435Y366724D01*
X235354Y366637D01*
X235334Y366602D01*
X235309Y366571D01*
X235258Y366463D01*
X235200Y366359D01*
X235190Y366319D01*
X235173Y366283D01*
X235151Y366166D01*
X235121Y366051D01*
X235117Y365991D01*
X235113Y365971D01*
X235115Y365950D01*
X235111Y365890D01*
X235111Y356722D01*
X232782Y354393D01*
X232722Y354315D01*
X232654Y354243D01*
X232625Y354190D01*
X232588Y354142D01*
X232548Y354051D01*
X232500Y353964D01*
X232485Y353906D01*
X232461Y353850D01*
X232446Y353752D01*
X232421Y353656D01*
X232415Y353556D01*
X232411Y353536D01*
X232413Y353524D01*
X232411Y353496D01*
X232411Y349360D01*
X232426Y349242D01*
X232433Y349123D01*
X232446Y349085D01*
X232451Y349044D01*
X232494Y348934D01*
X232531Y348821D01*
X232553Y348786D01*
X232568Y348749D01*
X232637Y348653D01*
X232701Y348552D01*
X232731Y348524D01*
X232754Y348491D01*
X232846Y348415D01*
X232933Y348334D01*
X232968Y348314D01*
X232999Y348289D01*
X233107Y348238D01*
X233211Y348180D01*
X233251Y348170D01*
X233287Y348153D01*
X233404Y348131D01*
X233519Y348101D01*
X233579Y348097D01*
X233599Y348093D01*
X233620Y348095D01*
X233680Y348091D01*
X237520Y348091D01*
X237638Y348106D01*
X237757Y348113D01*
X237795Y348126D01*
X237836Y348131D01*
X237946Y348174D01*
X238059Y348211D01*
X238094Y348233D01*
X238131Y348248D01*
X238227Y348317D01*
X238328Y348381D01*
X238356Y348411D01*
X238389Y348434D01*
X238465Y348526D01*
X238546Y348613D01*
X238566Y348648D01*
X238591Y348679D01*
X238642Y348787D01*
X238700Y348891D01*
X238710Y348931D01*
X238727Y348967D01*
X238749Y349084D01*
X238779Y349199D01*
X238783Y349259D01*
X238787Y349279D01*
X238785Y349300D01*
X238789Y349360D01*
X238789Y358478D01*
X245303Y364993D01*
X245389Y365102D01*
X245477Y365209D01*
X245486Y365228D01*
X245498Y365244D01*
X245554Y365372D01*
X245613Y365497D01*
X245617Y365517D01*
X245625Y365536D01*
X245647Y365674D01*
X245673Y365810D01*
X245671Y365830D01*
X245674Y365850D01*
X245661Y365989D01*
X245653Y366127D01*
X245647Y366146D01*
X245645Y366166D01*
X245597Y366298D01*
X245555Y366429D01*
X245544Y366447D01*
X245537Y366466D01*
X245459Y366581D01*
X245385Y366698D01*
X245370Y366712D01*
X245358Y366729D01*
X245254Y366821D01*
X245153Y366916D01*
X245135Y366926D01*
X245120Y366939D01*
X244996Y367003D01*
X244874Y367070D01*
X244855Y367075D01*
X244837Y367084D01*
X244701Y367114D01*
X244567Y367149D01*
X244538Y367151D01*
X244527Y367154D01*
X244506Y367153D01*
X244406Y367159D01*
X244248Y367159D01*
X242759Y368648D01*
X242759Y382752D01*
X244248Y384241D01*
X258352Y384241D01*
X259841Y382752D01*
X259841Y368648D01*
X258989Y367796D01*
X258916Y367702D01*
X258837Y367612D01*
X258826Y367591D01*
X258820Y367584D01*
X258813Y367569D01*
X258794Y367544D01*
X258746Y367435D01*
X258692Y367329D01*
X258685Y367298D01*
X258684Y367296D01*
X258683Y367289D01*
X258667Y367252D01*
X258649Y367135D01*
X258623Y367019D01*
X258624Y366978D01*
X258618Y366938D01*
X258629Y366820D01*
X258632Y366701D01*
X258644Y366662D01*
X258647Y366622D01*
X258688Y366509D01*
X258721Y366395D01*
X258741Y366361D01*
X258755Y366322D01*
X258822Y366224D01*
X258882Y366121D01*
X258922Y366076D01*
X258934Y366059D01*
X258949Y366046D01*
X258989Y366001D01*
X262007Y362982D01*
X262085Y362922D01*
X262157Y362854D01*
X262210Y362825D01*
X262258Y362788D01*
X262349Y362748D01*
X262436Y362700D01*
X262494Y362685D01*
X262550Y362661D01*
X262648Y362646D01*
X262744Y362621D01*
X262844Y362615D01*
X262864Y362611D01*
X262876Y362613D01*
X262904Y362611D01*
X282990Y362611D01*
X283108Y362626D01*
X283227Y362633D01*
X283265Y362646D01*
X283306Y362651D01*
X283416Y362694D01*
X283529Y362731D01*
X283564Y362753D01*
X283601Y362768D01*
X283697Y362837D01*
X283798Y362901D01*
X283826Y362931D01*
X283859Y362954D01*
X283935Y363046D01*
X284016Y363133D01*
X284036Y363168D01*
X284061Y363199D01*
X284112Y363307D01*
X284170Y363411D01*
X284180Y363451D01*
X284197Y363487D01*
X284219Y363604D01*
X284249Y363719D01*
X284253Y363779D01*
X284257Y363799D01*
X284255Y363820D01*
X284259Y363880D01*
X284259Y364852D01*
X285748Y366341D01*
X301852Y366341D01*
X303341Y364852D01*
X303341Y352748D01*
X301852Y351259D01*
X285748Y351259D01*
X284259Y352748D01*
X284259Y353720D01*
X284244Y353838D01*
X284237Y353957D01*
X284224Y353995D01*
X284219Y354036D01*
X284176Y354146D01*
X284139Y354259D01*
X284117Y354294D01*
X284102Y354331D01*
X284033Y354427D01*
X283969Y354528D01*
X283939Y354556D01*
X283916Y354589D01*
X283824Y354665D01*
X283737Y354746D01*
X283702Y354766D01*
X283671Y354791D01*
X283563Y354842D01*
X283459Y354900D01*
X283419Y354910D01*
X283383Y354927D01*
X283266Y354949D01*
X283151Y354979D01*
X283091Y354983D01*
X283071Y354987D01*
X283050Y354985D01*
X282990Y354989D01*
X259222Y354989D01*
X253547Y360663D01*
X253453Y360736D01*
X253364Y360815D01*
X253328Y360833D01*
X253296Y360858D01*
X253187Y360906D01*
X253081Y360960D01*
X253042Y360969D01*
X253004Y360985D01*
X252887Y361003D01*
X252771Y361029D01*
X252730Y361028D01*
X252690Y361034D01*
X252572Y361023D01*
X252453Y361020D01*
X252414Y361008D01*
X252374Y361005D01*
X252261Y360964D01*
X252147Y360931D01*
X252112Y360911D01*
X252074Y360897D01*
X251976Y360830D01*
X251873Y360770D01*
X251828Y360730D01*
X251811Y360718D01*
X251798Y360703D01*
X251752Y360663D01*
X246782Y355693D01*
X246722Y355615D01*
X246654Y355543D01*
X246625Y355490D01*
X246588Y355442D01*
X246548Y355351D01*
X246500Y355264D01*
X246485Y355206D01*
X246461Y355150D01*
X246446Y355052D01*
X246421Y354956D01*
X246415Y354856D01*
X246411Y354836D01*
X246413Y354824D01*
X246411Y354796D01*
X246411Y349360D01*
X246426Y349242D01*
X246433Y349123D01*
X246446Y349085D01*
X246451Y349044D01*
X246494Y348934D01*
X246531Y348821D01*
X246553Y348786D01*
X246568Y348749D01*
X246637Y348653D01*
X246701Y348552D01*
X246731Y348524D01*
X246754Y348491D01*
X246846Y348415D01*
X246933Y348334D01*
X246968Y348314D01*
X246999Y348289D01*
X247107Y348238D01*
X247211Y348180D01*
X247251Y348170D01*
X247287Y348153D01*
X247404Y348131D01*
X247519Y348101D01*
X247579Y348097D01*
X247599Y348093D01*
X247620Y348095D01*
X247680Y348091D01*
X251652Y348091D01*
X253141Y346602D01*
X253141Y326498D01*
X251652Y325009D01*
X247680Y325009D01*
X247562Y324994D01*
X247443Y324987D01*
X247405Y324974D01*
X247364Y324969D01*
X247254Y324926D01*
X247141Y324889D01*
X247106Y324867D01*
X247069Y324852D01*
X246973Y324783D01*
X246872Y324719D01*
X246844Y324689D01*
X246811Y324666D01*
X246735Y324574D01*
X246654Y324487D01*
X246634Y324452D01*
X246609Y324421D01*
X246558Y324313D01*
X246500Y324209D01*
X246490Y324169D01*
X246473Y324133D01*
X246451Y324016D01*
X246421Y323901D01*
X246417Y323841D01*
X246413Y323821D01*
X246415Y323800D01*
X246411Y323740D01*
X246411Y317222D01*
X207382Y278193D01*
X207322Y278115D01*
X207254Y278043D01*
X207225Y277990D01*
X207188Y277942D01*
X207148Y277851D01*
X207100Y277764D01*
X207085Y277706D01*
X207061Y277650D01*
X207046Y277552D01*
X207021Y277456D01*
X207015Y277356D01*
X207011Y277336D01*
X207013Y277324D01*
X207011Y277296D01*
X207011Y220672D01*
X185728Y199389D01*
X144472Y199389D01*
X125793Y218068D01*
X125715Y218128D01*
X125643Y218196D01*
X125590Y218225D01*
X125542Y218262D01*
X125451Y218302D01*
X125364Y218350D01*
X125306Y218365D01*
X125250Y218389D01*
X125152Y218404D01*
X125056Y218429D01*
X124956Y218435D01*
X124936Y218439D01*
X124924Y218437D01*
X124896Y218439D01*
X121280Y218439D01*
X121162Y218424D01*
X121043Y218417D01*
X121005Y218404D01*
X120964Y218399D01*
X120854Y218356D01*
X120741Y218319D01*
X120706Y218297D01*
X120669Y218282D01*
X120573Y218213D01*
X120472Y218149D01*
X120444Y218119D01*
X120411Y218096D01*
X120335Y218004D01*
X120254Y217917D01*
X120234Y217882D01*
X120209Y217851D01*
X120158Y217743D01*
X120100Y217639D01*
X120090Y217599D01*
X120073Y217563D01*
X120051Y217446D01*
X120021Y217331D01*
X120017Y217271D01*
X120013Y217251D01*
X120015Y217230D01*
X120013Y217213D01*
X120013Y217212D01*
X120013Y217211D01*
X120011Y217170D01*
X120011Y212183D01*
X118522Y210694D01*
X100418Y210694D01*
X98929Y212183D01*
X98929Y217170D01*
X98914Y217288D01*
X98907Y217407D01*
X98894Y217445D01*
X98889Y217486D01*
X98846Y217596D01*
X98809Y217709D01*
X98787Y217744D01*
X98772Y217781D01*
X98703Y217877D01*
X98639Y217978D01*
X98609Y218006D01*
X98586Y218039D01*
X98494Y218115D01*
X98407Y218196D01*
X98372Y218216D01*
X98341Y218241D01*
X98233Y218292D01*
X98129Y218350D01*
X98089Y218360D01*
X98053Y218377D01*
X97936Y218399D01*
X97821Y218429D01*
X97761Y218433D01*
X97741Y218437D01*
X97720Y218435D01*
X97660Y218439D01*
X92840Y218439D01*
X92722Y218424D01*
X92603Y218417D01*
X92565Y218404D01*
X92524Y218399D01*
X92414Y218356D01*
X92301Y218319D01*
X92266Y218297D01*
X92229Y218282D01*
X92133Y218213D01*
X92032Y218149D01*
X92004Y218119D01*
X91971Y218096D01*
X91895Y218004D01*
X91814Y217917D01*
X91794Y217882D01*
X91769Y217851D01*
X91718Y217743D01*
X91660Y217639D01*
X91650Y217599D01*
X91633Y217563D01*
X91611Y217446D01*
X91581Y217331D01*
X91577Y217271D01*
X91573Y217251D01*
X91575Y217230D01*
X91573Y217213D01*
X91573Y217212D01*
X91573Y217211D01*
X91571Y217170D01*
X91571Y212183D01*
X90082Y210694D01*
X71978Y210694D01*
X70489Y212183D01*
X70489Y217170D01*
X70474Y217288D01*
X70467Y217407D01*
X70454Y217445D01*
X70449Y217486D01*
X70406Y217596D01*
X70369Y217709D01*
X70347Y217744D01*
X70332Y217781D01*
X70263Y217877D01*
X70199Y217978D01*
X70169Y218006D01*
X70146Y218039D01*
X70054Y218115D01*
X69967Y218196D01*
X69932Y218216D01*
X69901Y218241D01*
X69793Y218292D01*
X69689Y218350D01*
X69649Y218360D01*
X69613Y218377D01*
X69496Y218399D01*
X69381Y218429D01*
X69321Y218433D01*
X69301Y218437D01*
X69280Y218435D01*
X69220Y218439D01*
X68272Y218439D01*
X65668Y221043D01*
X62293Y224418D01*
X59689Y227022D01*
X59689Y232846D01*
X59677Y232944D01*
X59674Y233043D01*
X59657Y233101D01*
X59649Y233161D01*
X59613Y233253D01*
X59585Y233349D01*
X59555Y233401D01*
X59532Y233457D01*
X59474Y233537D01*
X59424Y233622D01*
X59358Y233698D01*
X59346Y233714D01*
X59336Y233722D01*
X59318Y233743D01*
X55943Y237118D01*
X55865Y237178D01*
X55793Y237246D01*
X55771Y237258D01*
X55758Y237269D01*
X55727Y237285D01*
X55692Y237312D01*
X55601Y237352D01*
X55514Y237400D01*
X55491Y237406D01*
X55475Y237414D01*
X55439Y237422D01*
X55400Y237439D01*
X55302Y237454D01*
X55206Y237479D01*
X55176Y237481D01*
X55165Y237484D01*
X55145Y237483D01*
X55106Y237485D01*
X55086Y237489D01*
X55074Y237487D01*
X55046Y237489D01*
X55044Y237489D01*
X54946Y237477D01*
X54847Y237474D01*
X54807Y237462D01*
X54769Y237459D01*
X54751Y237452D01*
X54729Y237449D01*
X54637Y237413D01*
X54541Y237385D01*
X54504Y237363D01*
X54470Y237351D01*
X54456Y237341D01*
X54433Y237332D01*
X54353Y237274D01*
X54267Y237224D01*
X54217Y237179D01*
X54207Y237173D01*
X54199Y237164D01*
X54192Y237158D01*
X54176Y237146D01*
X54168Y237136D01*
X54147Y237117D01*
X53583Y236554D01*
X44573Y236554D01*
X44455Y236539D01*
X44336Y236532D01*
X44298Y236519D01*
X44258Y236514D01*
X44147Y236471D01*
X44034Y236434D01*
X43999Y236412D01*
X43962Y236397D01*
X43866Y236328D01*
X43765Y236264D01*
X43737Y236234D01*
X43704Y236211D01*
X43629Y236119D01*
X43547Y236032D01*
X43527Y235997D01*
X43502Y235966D01*
X43451Y235858D01*
X43393Y235754D01*
X43383Y235714D01*
X43366Y235678D01*
X43344Y235561D01*
X43314Y235446D01*
X43310Y235386D01*
X43306Y235366D01*
X43308Y235345D01*
X43304Y235285D01*
X43304Y232859D01*
X41691Y231246D01*
X39409Y231246D01*
X37796Y232859D01*
X37796Y235172D01*
X37852Y235239D01*
X37861Y235258D01*
X37873Y235274D01*
X37928Y235401D01*
X37987Y235527D01*
X37991Y235547D01*
X37999Y235566D01*
X38021Y235703D01*
X38047Y235840D01*
X38046Y235860D01*
X38049Y235880D01*
X38036Y236018D01*
X38028Y236157D01*
X38021Y236176D01*
X38019Y236196D01*
X37972Y236327D01*
X37929Y236459D01*
X37919Y236477D01*
X37912Y236496D01*
X37834Y236611D01*
X37759Y236728D01*
X37745Y236742D01*
X37733Y236759D01*
X37629Y236851D01*
X37528Y236946D01*
X37510Y236956D01*
X37495Y236969D01*
X37371Y237032D01*
X37249Y237100D01*
X37230Y237105D01*
X37212Y237114D01*
X37076Y237144D01*
X36941Y237179D01*
X36913Y237181D01*
X36901Y237184D01*
X36881Y237183D01*
X36781Y237189D01*
X32360Y237189D01*
X32242Y237174D01*
X32123Y237167D01*
X32085Y237154D01*
X32044Y237149D01*
X31934Y237106D01*
X31821Y237069D01*
X31786Y237047D01*
X31749Y237032D01*
X31653Y236963D01*
X31552Y236899D01*
X31524Y236869D01*
X31491Y236846D01*
X31415Y236754D01*
X31334Y236667D01*
X31314Y236632D01*
X31289Y236601D01*
X31238Y236493D01*
X31180Y236389D01*
X31170Y236349D01*
X31153Y236313D01*
X31131Y236196D01*
X31101Y236081D01*
X31097Y236021D01*
X31093Y236001D01*
X31095Y235980D01*
X31091Y235920D01*
X31091Y231448D01*
X29602Y229959D01*
X24130Y229959D01*
X24012Y229944D01*
X23893Y229937D01*
X23855Y229924D01*
X23814Y229919D01*
X23704Y229876D01*
X23591Y229839D01*
X23556Y229817D01*
X23519Y229802D01*
X23423Y229733D01*
X23322Y229669D01*
X23294Y229639D01*
X23261Y229616D01*
X23185Y229524D01*
X23104Y229437D01*
X23084Y229402D01*
X23059Y229371D01*
X23008Y229263D01*
X22950Y229159D01*
X22940Y229119D01*
X22923Y229083D01*
X22901Y228966D01*
X22871Y228851D01*
X22867Y228791D01*
X22863Y228771D01*
X22865Y228750D01*
X22861Y228690D01*
X22861Y227810D01*
X22876Y227692D01*
X22883Y227573D01*
X22896Y227535D01*
X22901Y227494D01*
X22944Y227384D01*
X22981Y227271D01*
X23003Y227236D01*
X23018Y227199D01*
X23087Y227103D01*
X23151Y227002D01*
X23181Y226974D01*
X23204Y226941D01*
X23296Y226865D01*
X23383Y226784D01*
X23418Y226764D01*
X23449Y226739D01*
X23557Y226688D01*
X23661Y226630D01*
X23701Y226620D01*
X23737Y226603D01*
X23854Y226581D01*
X23969Y226551D01*
X24029Y226547D01*
X24049Y226543D01*
X24070Y226545D01*
X24130Y226541D01*
X29602Y226541D01*
X31091Y225052D01*
X31091Y203948D01*
X29602Y202459D01*
X8498Y202459D01*
X7248Y203709D01*
X7138Y203795D01*
X7031Y203883D01*
X7012Y203892D01*
X6996Y203904D01*
X6868Y203960D01*
X6743Y204019D01*
X6723Y204023D01*
X6704Y204031D01*
X6566Y204053D01*
X6431Y204079D01*
X6410Y204077D01*
X6390Y204080D01*
X6251Y204067D01*
X6113Y204059D01*
X6094Y204053D01*
X6074Y204051D01*
X5942Y204003D01*
X5811Y203961D01*
X5793Y203950D01*
X5774Y203943D01*
X5659Y203865D01*
X5542Y203791D01*
X5528Y203776D01*
X5511Y203764D01*
X5419Y203660D01*
X5324Y203559D01*
X5314Y203541D01*
X5301Y203526D01*
X5237Y203402D01*
X5170Y203280D01*
X5165Y203261D01*
X5156Y203243D01*
X5126Y203106D01*
X5091Y202973D01*
X5089Y202944D01*
X5087Y202933D01*
X5087Y202912D01*
X5081Y202812D01*
X5081Y152400D01*
X5096Y152282D01*
X5103Y152163D01*
X5116Y152125D01*
X5121Y152084D01*
X5164Y151974D01*
X5201Y151861D01*
X5223Y151826D01*
X5238Y151789D01*
X5308Y151693D01*
X5371Y151592D01*
X5401Y151564D01*
X5424Y151531D01*
X5516Y151456D01*
X5603Y151374D01*
X5638Y151354D01*
X5669Y151329D01*
X5777Y151278D01*
X5881Y151220D01*
X5921Y151210D01*
X5957Y151193D01*
X6074Y151171D01*
X6189Y151141D01*
X6250Y151137D01*
X6270Y151133D01*
X6290Y151135D01*
X6350Y151131D01*
X355600Y151131D01*
X355718Y151146D01*
G37*
G36*
X157208Y263276D02*
X157208Y263276D01*
X157327Y263283D01*
X157365Y263296D01*
X157406Y263301D01*
X157516Y263344D01*
X157629Y263381D01*
X157664Y263403D01*
X157701Y263418D01*
X157797Y263487D01*
X157898Y263551D01*
X157926Y263581D01*
X157959Y263604D01*
X158035Y263696D01*
X158116Y263783D01*
X158136Y263818D01*
X158161Y263849D01*
X158212Y263957D01*
X158270Y264061D01*
X158280Y264101D01*
X158297Y264137D01*
X158319Y264254D01*
X158349Y264369D01*
X158353Y264429D01*
X158357Y264449D01*
X158355Y264470D01*
X158359Y264530D01*
X158359Y279752D01*
X159848Y281241D01*
X160020Y281241D01*
X160138Y281256D01*
X160257Y281263D01*
X160295Y281276D01*
X160336Y281281D01*
X160446Y281324D01*
X160559Y281361D01*
X160594Y281383D01*
X160631Y281398D01*
X160727Y281467D01*
X160828Y281531D01*
X160856Y281561D01*
X160889Y281584D01*
X160965Y281676D01*
X161046Y281763D01*
X161066Y281798D01*
X161091Y281829D01*
X161142Y281937D01*
X161200Y282041D01*
X161210Y282081D01*
X161227Y282117D01*
X161249Y282234D01*
X161279Y282349D01*
X161283Y282409D01*
X161287Y282429D01*
X161285Y282450D01*
X161289Y282510D01*
X161289Y287328D01*
X176222Y302261D01*
X207446Y302261D01*
X207544Y302273D01*
X207643Y302276D01*
X207701Y302293D01*
X207761Y302301D01*
X207853Y302337D01*
X207949Y302365D01*
X208001Y302395D01*
X208057Y302418D01*
X208137Y302476D01*
X208222Y302526D01*
X208298Y302592D01*
X208314Y302604D01*
X208322Y302614D01*
X208343Y302632D01*
X224418Y318707D01*
X224478Y318785D01*
X224546Y318857D01*
X224575Y318910D01*
X224612Y318958D01*
X224652Y319049D01*
X224700Y319136D01*
X224715Y319194D01*
X224739Y319250D01*
X224754Y319348D01*
X224779Y319444D01*
X224785Y319544D01*
X224789Y319564D01*
X224787Y319576D01*
X224789Y319604D01*
X224789Y323740D01*
X224774Y323858D01*
X224767Y323977D01*
X224754Y324015D01*
X224749Y324056D01*
X224706Y324166D01*
X224669Y324279D01*
X224647Y324314D01*
X224632Y324351D01*
X224563Y324447D01*
X224499Y324548D01*
X224469Y324576D01*
X224446Y324609D01*
X224354Y324685D01*
X224267Y324766D01*
X224232Y324786D01*
X224201Y324811D01*
X224093Y324862D01*
X223989Y324920D01*
X223949Y324930D01*
X223913Y324947D01*
X223796Y324969D01*
X223681Y324999D01*
X223621Y325003D01*
X223601Y325007D01*
X223580Y325005D01*
X223520Y325009D01*
X205548Y325009D01*
X204059Y326498D01*
X204059Y331470D01*
X204044Y331588D01*
X204037Y331707D01*
X204024Y331745D01*
X204019Y331786D01*
X203976Y331896D01*
X203939Y332009D01*
X203917Y332044D01*
X203902Y332081D01*
X203833Y332177D01*
X203769Y332278D01*
X203739Y332306D01*
X203716Y332339D01*
X203624Y332415D01*
X203537Y332496D01*
X203502Y332516D01*
X203471Y332541D01*
X203363Y332592D01*
X203259Y332650D01*
X203219Y332660D01*
X203183Y332677D01*
X203066Y332699D01*
X202951Y332729D01*
X202891Y332733D01*
X202871Y332737D01*
X202850Y332735D01*
X202790Y332739D01*
X100330Y332739D01*
X100212Y332724D01*
X100093Y332717D01*
X100055Y332704D01*
X100014Y332699D01*
X99904Y332656D01*
X99791Y332619D01*
X99756Y332597D01*
X99719Y332582D01*
X99623Y332513D01*
X99522Y332449D01*
X99494Y332419D01*
X99461Y332396D01*
X99385Y332304D01*
X99304Y332217D01*
X99284Y332182D01*
X99259Y332151D01*
X99208Y332043D01*
X99150Y331939D01*
X99140Y331899D01*
X99123Y331863D01*
X99101Y331746D01*
X99071Y331631D01*
X99067Y331571D01*
X99063Y331551D01*
X99065Y331530D01*
X99061Y331470D01*
X99061Y293154D01*
X99073Y293056D01*
X99076Y292957D01*
X99093Y292899D01*
X99101Y292839D01*
X99137Y292747D01*
X99165Y292651D01*
X99195Y292599D01*
X99218Y292543D01*
X99276Y292463D01*
X99326Y292378D01*
X99392Y292302D01*
X99404Y292286D01*
X99414Y292278D01*
X99432Y292257D01*
X128057Y263632D01*
X128135Y263572D01*
X128207Y263504D01*
X128260Y263475D01*
X128308Y263438D01*
X128399Y263398D01*
X128486Y263350D01*
X128544Y263335D01*
X128600Y263311D01*
X128698Y263296D01*
X128794Y263271D01*
X128894Y263265D01*
X128914Y263261D01*
X128926Y263263D01*
X128954Y263261D01*
X157090Y263261D01*
X157208Y263276D01*
G37*
G36*
X97778Y226076D02*
X97778Y226076D01*
X97897Y226083D01*
X97935Y226096D01*
X97976Y226101D01*
X98086Y226144D01*
X98199Y226181D01*
X98234Y226203D01*
X98271Y226218D01*
X98367Y226287D01*
X98468Y226351D01*
X98496Y226381D01*
X98529Y226404D01*
X98605Y226496D01*
X98686Y226583D01*
X98706Y226618D01*
X98731Y226649D01*
X98782Y226757D01*
X98840Y226861D01*
X98850Y226901D01*
X98867Y226937D01*
X98889Y227054D01*
X98919Y227169D01*
X98923Y227229D01*
X98927Y227249D01*
X98925Y227270D01*
X98929Y227330D01*
X98929Y232317D01*
X100418Y233806D01*
X118522Y233806D01*
X120011Y232317D01*
X120011Y227330D01*
X120026Y227212D01*
X120033Y227093D01*
X120046Y227055D01*
X120051Y227014D01*
X120094Y226904D01*
X120131Y226791D01*
X120153Y226756D01*
X120168Y226719D01*
X120237Y226623D01*
X120301Y226522D01*
X120331Y226494D01*
X120354Y226461D01*
X120446Y226385D01*
X120533Y226304D01*
X120568Y226284D01*
X120599Y226259D01*
X120707Y226208D01*
X120811Y226150D01*
X120851Y226140D01*
X120887Y226123D01*
X121004Y226101D01*
X121119Y226071D01*
X121179Y226067D01*
X121199Y226063D01*
X121220Y226065D01*
X121280Y226061D01*
X145290Y226061D01*
X145408Y226076D01*
X145527Y226083D01*
X145565Y226096D01*
X145606Y226101D01*
X145716Y226144D01*
X145829Y226181D01*
X145864Y226203D01*
X145901Y226218D01*
X145997Y226287D01*
X146098Y226351D01*
X146126Y226381D01*
X146159Y226404D01*
X146235Y226496D01*
X146316Y226583D01*
X146336Y226618D01*
X146361Y226649D01*
X146412Y226757D01*
X146470Y226861D01*
X146480Y226901D01*
X146497Y226937D01*
X146519Y227054D01*
X146549Y227169D01*
X146553Y227229D01*
X146557Y227249D01*
X146555Y227270D01*
X146559Y227330D01*
X146559Y230802D01*
X148048Y232291D01*
X163152Y232291D01*
X164202Y231241D01*
X164297Y231168D01*
X164386Y231089D01*
X164422Y231070D01*
X164454Y231046D01*
X164563Y230998D01*
X164669Y230944D01*
X164708Y230935D01*
X164746Y230919D01*
X164863Y230901D01*
X164979Y230875D01*
X165020Y230876D01*
X165060Y230870D01*
X165178Y230881D01*
X165297Y230884D01*
X165336Y230896D01*
X165376Y230899D01*
X165489Y230940D01*
X165603Y230973D01*
X165637Y230993D01*
X165676Y231007D01*
X165774Y231074D01*
X165877Y231134D01*
X165922Y231174D01*
X165939Y231186D01*
X165952Y231201D01*
X165997Y231241D01*
X167048Y232291D01*
X182152Y232291D01*
X183641Y230802D01*
X183641Y227330D01*
X183656Y227212D01*
X183663Y227093D01*
X183676Y227055D01*
X183681Y227014D01*
X183724Y226904D01*
X183761Y226791D01*
X183783Y226756D01*
X183798Y226719D01*
X183867Y226623D01*
X183931Y226522D01*
X183961Y226494D01*
X183984Y226461D01*
X184076Y226385D01*
X184163Y226304D01*
X184198Y226284D01*
X184229Y226259D01*
X184337Y226208D01*
X184441Y226150D01*
X184481Y226140D01*
X184517Y226123D01*
X184634Y226101D01*
X184749Y226071D01*
X184809Y226067D01*
X184829Y226063D01*
X184850Y226065D01*
X184910Y226061D01*
X188396Y226061D01*
X188494Y226073D01*
X188593Y226076D01*
X188651Y226093D01*
X188711Y226101D01*
X188803Y226137D01*
X188899Y226165D01*
X188951Y226195D01*
X189007Y226218D01*
X189087Y226276D01*
X189172Y226326D01*
X189248Y226392D01*
X189264Y226404D01*
X189272Y226414D01*
X189293Y226432D01*
X192668Y229807D01*
X192728Y229885D01*
X192796Y229957D01*
X192825Y230010D01*
X192862Y230058D01*
X192902Y230149D01*
X192950Y230236D01*
X192965Y230294D01*
X192989Y230350D01*
X193004Y230448D01*
X193029Y230544D01*
X193035Y230644D01*
X193039Y230664D01*
X193037Y230676D01*
X193039Y230704D01*
X193039Y264596D01*
X193027Y264694D01*
X193024Y264793D01*
X193007Y264851D01*
X192999Y264911D01*
X192963Y265003D01*
X192935Y265099D01*
X192905Y265151D01*
X192882Y265207D01*
X192824Y265287D01*
X192774Y265372D01*
X192708Y265448D01*
X192696Y265464D01*
X192686Y265472D01*
X192668Y265493D01*
X189393Y268768D01*
X189315Y268828D01*
X189243Y268896D01*
X189190Y268925D01*
X189142Y268962D01*
X189051Y269002D01*
X188964Y269050D01*
X188906Y269065D01*
X188850Y269089D01*
X188752Y269104D01*
X188656Y269129D01*
X188556Y269135D01*
X188536Y269139D01*
X188524Y269137D01*
X188496Y269139D01*
X185810Y269139D01*
X185692Y269124D01*
X185573Y269117D01*
X185535Y269104D01*
X185494Y269099D01*
X185384Y269056D01*
X185271Y269019D01*
X185236Y268997D01*
X185199Y268982D01*
X185103Y268913D01*
X185002Y268849D01*
X184974Y268819D01*
X184941Y268796D01*
X184865Y268704D01*
X184784Y268617D01*
X184764Y268582D01*
X184739Y268551D01*
X184688Y268443D01*
X184630Y268339D01*
X184620Y268299D01*
X184603Y268263D01*
X184581Y268146D01*
X184551Y268031D01*
X184547Y267971D01*
X184543Y267951D01*
X184545Y267930D01*
X184541Y267870D01*
X184541Y253648D01*
X183052Y252159D01*
X159848Y252159D01*
X158359Y253648D01*
X158359Y254370D01*
X158344Y254488D01*
X158337Y254607D01*
X158324Y254645D01*
X158319Y254686D01*
X158276Y254796D01*
X158239Y254909D01*
X158217Y254944D01*
X158202Y254981D01*
X158133Y255077D01*
X158069Y255178D01*
X158039Y255206D01*
X158016Y255239D01*
X157924Y255315D01*
X157837Y255396D01*
X157802Y255416D01*
X157771Y255441D01*
X157663Y255492D01*
X157559Y255550D01*
X157519Y255560D01*
X157483Y255577D01*
X157366Y255599D01*
X157251Y255629D01*
X157191Y255633D01*
X157171Y255637D01*
X157150Y255635D01*
X157090Y255639D01*
X125272Y255639D01*
X94043Y286868D01*
X91439Y289472D01*
X91439Y380240D01*
X91424Y380358D01*
X91417Y380477D01*
X91404Y380515D01*
X91399Y380556D01*
X91356Y380666D01*
X91319Y380779D01*
X91297Y380814D01*
X91282Y380851D01*
X91213Y380947D01*
X91149Y381048D01*
X91119Y381076D01*
X91096Y381109D01*
X91004Y381185D01*
X90917Y381266D01*
X90882Y381286D01*
X90851Y381311D01*
X90743Y381362D01*
X90639Y381420D01*
X90599Y381430D01*
X90563Y381447D01*
X90446Y381469D01*
X90331Y381499D01*
X90271Y381503D01*
X90251Y381507D01*
X90230Y381505D01*
X90170Y381509D01*
X86698Y381509D01*
X85039Y383168D01*
X84961Y383228D01*
X84889Y383296D01*
X84836Y383325D01*
X84788Y383362D01*
X84697Y383402D01*
X84610Y383450D01*
X84552Y383465D01*
X84496Y383489D01*
X84398Y383504D01*
X84303Y383529D01*
X84202Y383535D01*
X84182Y383539D01*
X84170Y383537D01*
X84142Y383539D01*
X82675Y383539D01*
X82557Y383524D01*
X82438Y383517D01*
X82400Y383504D01*
X82359Y383499D01*
X82249Y383456D01*
X82136Y383419D01*
X82101Y383397D01*
X82064Y383382D01*
X81968Y383313D01*
X81867Y383249D01*
X81839Y383219D01*
X81806Y383196D01*
X81730Y383104D01*
X81649Y383017D01*
X81629Y382982D01*
X81604Y382951D01*
X81553Y382843D01*
X81495Y382739D01*
X81485Y382699D01*
X81468Y382663D01*
X81446Y382546D01*
X81416Y382431D01*
X81412Y382371D01*
X81408Y382351D01*
X81410Y382330D01*
X81406Y382270D01*
X81406Y376778D01*
X79917Y375289D01*
X74930Y375289D01*
X74812Y375274D01*
X74693Y375267D01*
X74655Y375254D01*
X74614Y375249D01*
X74504Y375206D01*
X74391Y375169D01*
X74356Y375147D01*
X74319Y375132D01*
X74223Y375063D01*
X74122Y374999D01*
X74094Y374969D01*
X74061Y374946D01*
X73985Y374854D01*
X73904Y374767D01*
X73884Y374732D01*
X73859Y374701D01*
X73808Y374593D01*
X73750Y374489D01*
X73740Y374449D01*
X73723Y374413D01*
X73701Y374296D01*
X73671Y374181D01*
X73667Y374121D01*
X73663Y374101D01*
X73665Y374080D01*
X73661Y374020D01*
X73661Y370404D01*
X73673Y370306D01*
X73676Y370207D01*
X73693Y370149D01*
X73701Y370089D01*
X73737Y369997D01*
X73765Y369901D01*
X73795Y369849D01*
X73818Y369793D01*
X73876Y369713D01*
X73926Y369628D01*
X73992Y369552D01*
X74004Y369536D01*
X74014Y369528D01*
X74032Y369507D01*
X86361Y357178D01*
X86361Y277822D01*
X71428Y262889D01*
X68253Y262889D01*
X68193Y262946D01*
X68140Y262975D01*
X68092Y263012D01*
X68001Y263052D01*
X67914Y263100D01*
X67856Y263115D01*
X67800Y263139D01*
X67702Y263154D01*
X67606Y263179D01*
X67506Y263185D01*
X67486Y263189D01*
X67474Y263187D01*
X67446Y263189D01*
X56341Y263189D01*
X56223Y263174D01*
X56104Y263167D01*
X56066Y263154D01*
X56025Y263149D01*
X55915Y263106D01*
X55802Y263069D01*
X55767Y263047D01*
X55730Y263032D01*
X55634Y262963D01*
X55533Y262899D01*
X55505Y262869D01*
X55472Y262846D01*
X55396Y262754D01*
X55315Y262667D01*
X55295Y262632D01*
X55270Y262601D01*
X55219Y262493D01*
X55161Y262389D01*
X55151Y262349D01*
X55134Y262313D01*
X55112Y262196D01*
X55082Y262081D01*
X55078Y262021D01*
X55074Y262001D01*
X55076Y261980D01*
X55072Y261920D01*
X55072Y246380D01*
X55087Y246262D01*
X55094Y246143D01*
X55107Y246105D01*
X55112Y246064D01*
X55155Y245954D01*
X55192Y245841D01*
X55214Y245806D01*
X55229Y245769D01*
X55298Y245673D01*
X55362Y245572D01*
X55392Y245544D01*
X55415Y245511D01*
X55507Y245435D01*
X55594Y245354D01*
X55629Y245334D01*
X55660Y245309D01*
X55768Y245258D01*
X55872Y245200D01*
X55912Y245190D01*
X55948Y245173D01*
X56065Y245151D01*
X56180Y245121D01*
X56240Y245117D01*
X56260Y245113D01*
X56281Y245115D01*
X56341Y245111D01*
X58728Y245111D01*
X67311Y236528D01*
X67311Y230704D01*
X67323Y230606D01*
X67326Y230507D01*
X67343Y230449D01*
X67351Y230389D01*
X67387Y230297D01*
X67415Y230201D01*
X67445Y230149D01*
X67468Y230093D01*
X67526Y230013D01*
X67576Y229928D01*
X67642Y229852D01*
X67654Y229836D01*
X67664Y229828D01*
X67682Y229807D01*
X68323Y229167D01*
X68432Y229081D01*
X68539Y228993D01*
X68558Y228984D01*
X68574Y228972D01*
X68702Y228916D01*
X68827Y228857D01*
X68847Y228853D01*
X68866Y228845D01*
X69004Y228823D01*
X69140Y228797D01*
X69160Y228799D01*
X69180Y228796D01*
X69319Y228809D01*
X69457Y228817D01*
X69476Y228823D01*
X69496Y228825D01*
X69628Y228873D01*
X69759Y228915D01*
X69777Y228926D01*
X69796Y228933D01*
X69911Y229011D01*
X70028Y229085D01*
X70042Y229100D01*
X70059Y229112D01*
X70151Y229216D01*
X70246Y229317D01*
X70256Y229335D01*
X70269Y229350D01*
X70333Y229474D01*
X70400Y229596D01*
X70405Y229615D01*
X70414Y229633D01*
X70444Y229769D01*
X70479Y229903D01*
X70481Y229932D01*
X70484Y229943D01*
X70483Y229964D01*
X70489Y230064D01*
X70489Y232317D01*
X71978Y233806D01*
X90082Y233806D01*
X91571Y232317D01*
X91571Y227330D01*
X91586Y227212D01*
X91593Y227093D01*
X91606Y227055D01*
X91611Y227014D01*
X91654Y226904D01*
X91691Y226791D01*
X91713Y226756D01*
X91728Y226719D01*
X91797Y226623D01*
X91861Y226522D01*
X91891Y226494D01*
X91914Y226461D01*
X92006Y226385D01*
X92093Y226304D01*
X92128Y226284D01*
X92159Y226259D01*
X92267Y226208D01*
X92371Y226150D01*
X92411Y226140D01*
X92447Y226123D01*
X92564Y226101D01*
X92679Y226071D01*
X92739Y226067D01*
X92759Y226063D01*
X92780Y226065D01*
X92840Y226061D01*
X97660Y226061D01*
X97778Y226076D01*
G37*
G36*
X198219Y271359D02*
X198219Y271359D01*
X198357Y271367D01*
X198376Y271373D01*
X198396Y271375D01*
X198528Y271423D01*
X198659Y271465D01*
X198677Y271476D01*
X198696Y271483D01*
X198811Y271561D01*
X198928Y271635D01*
X198942Y271650D01*
X198959Y271662D01*
X199051Y271766D01*
X199146Y271867D01*
X199156Y271885D01*
X199169Y271900D01*
X199233Y272024D01*
X199300Y272146D01*
X199305Y272165D01*
X199314Y272183D01*
X199344Y272319D01*
X199379Y272453D01*
X199381Y272482D01*
X199384Y272493D01*
X199383Y272514D01*
X199389Y272614D01*
X199389Y280978D01*
X201993Y283582D01*
X210883Y292473D01*
X210969Y292582D01*
X211057Y292689D01*
X211066Y292708D01*
X211078Y292724D01*
X211134Y292852D01*
X211193Y292977D01*
X211197Y292997D01*
X211205Y293016D01*
X211227Y293154D01*
X211253Y293290D01*
X211251Y293310D01*
X211254Y293330D01*
X211241Y293469D01*
X211233Y293607D01*
X211227Y293626D01*
X211225Y293646D01*
X211177Y293778D01*
X211135Y293909D01*
X211124Y293927D01*
X211117Y293946D01*
X211039Y294061D01*
X210965Y294178D01*
X210950Y294192D01*
X210938Y294209D01*
X210834Y294301D01*
X210733Y294396D01*
X210715Y294406D01*
X210700Y294419D01*
X210576Y294483D01*
X210454Y294550D01*
X210435Y294555D01*
X210417Y294564D01*
X210281Y294594D01*
X210147Y294629D01*
X210118Y294631D01*
X210107Y294634D01*
X210086Y294633D01*
X209986Y294639D01*
X179904Y294639D01*
X179806Y294627D01*
X179707Y294624D01*
X179649Y294607D01*
X179589Y294599D01*
X179497Y294563D01*
X179401Y294535D01*
X179349Y294505D01*
X179293Y294482D01*
X179213Y294424D01*
X179128Y294374D01*
X179052Y294308D01*
X179036Y294296D01*
X179028Y294286D01*
X179007Y294268D01*
X169282Y284543D01*
X169222Y284465D01*
X169154Y284393D01*
X169125Y284340D01*
X169088Y284292D01*
X169048Y284201D01*
X169000Y284114D01*
X168985Y284056D01*
X168961Y284000D01*
X168946Y283902D01*
X168921Y283806D01*
X168915Y283706D01*
X168911Y283686D01*
X168913Y283674D01*
X168911Y283646D01*
X168911Y282510D01*
X168926Y282392D01*
X168933Y282273D01*
X168946Y282235D01*
X168951Y282194D01*
X168994Y282084D01*
X169031Y281971D01*
X169053Y281936D01*
X169068Y281899D01*
X169137Y281803D01*
X169201Y281702D01*
X169231Y281674D01*
X169254Y281641D01*
X169346Y281565D01*
X169433Y281484D01*
X169468Y281464D01*
X169499Y281439D01*
X169607Y281388D01*
X169711Y281330D01*
X169751Y281320D01*
X169787Y281303D01*
X169904Y281281D01*
X170019Y281251D01*
X170079Y281247D01*
X170099Y281243D01*
X170120Y281245D01*
X170180Y281241D01*
X183052Y281241D01*
X184541Y279752D01*
X184541Y278030D01*
X184556Y277912D01*
X184563Y277793D01*
X184576Y277755D01*
X184581Y277714D01*
X184624Y277604D01*
X184661Y277491D01*
X184683Y277456D01*
X184698Y277419D01*
X184767Y277323D01*
X184831Y277222D01*
X184861Y277194D01*
X184884Y277161D01*
X184976Y277085D01*
X185063Y277004D01*
X185098Y276984D01*
X185129Y276959D01*
X185237Y276908D01*
X185341Y276850D01*
X185381Y276840D01*
X185417Y276823D01*
X185534Y276801D01*
X185649Y276771D01*
X185709Y276767D01*
X185729Y276763D01*
X185750Y276765D01*
X185810Y276761D01*
X188296Y276761D01*
X188394Y276773D01*
X188493Y276776D01*
X188551Y276793D01*
X188611Y276801D01*
X188703Y276837D01*
X188785Y276861D01*
X192078Y276861D01*
X197223Y271717D01*
X197332Y271631D01*
X197439Y271543D01*
X197458Y271534D01*
X197474Y271522D01*
X197602Y271466D01*
X197727Y271407D01*
X197747Y271403D01*
X197766Y271395D01*
X197904Y271373D01*
X198040Y271347D01*
X198060Y271349D01*
X198080Y271346D01*
X198219Y271359D01*
G37*
G36*
X182144Y207023D02*
X182144Y207023D01*
X182243Y207026D01*
X182301Y207043D01*
X182361Y207051D01*
X182453Y207087D01*
X182549Y207115D01*
X182601Y207145D01*
X182657Y207168D01*
X182737Y207226D01*
X182822Y207276D01*
X182898Y207342D01*
X182914Y207354D01*
X182922Y207364D01*
X182943Y207382D01*
X191833Y216273D01*
X191919Y216382D01*
X192007Y216489D01*
X192016Y216508D01*
X192028Y216524D01*
X192084Y216652D01*
X192143Y216777D01*
X192147Y216797D01*
X192155Y216816D01*
X192177Y216954D01*
X192203Y217090D01*
X192201Y217110D01*
X192204Y217130D01*
X192191Y217269D01*
X192183Y217407D01*
X192177Y217426D01*
X192175Y217446D01*
X192127Y217578D01*
X192085Y217709D01*
X192074Y217727D01*
X192067Y217746D01*
X191989Y217861D01*
X191915Y217978D01*
X191900Y217992D01*
X191888Y218009D01*
X191784Y218101D01*
X191683Y218196D01*
X191665Y218206D01*
X191650Y218219D01*
X191526Y218283D01*
X191404Y218350D01*
X191385Y218355D01*
X191367Y218364D01*
X191231Y218394D01*
X191097Y218429D01*
X191068Y218431D01*
X191057Y218434D01*
X191036Y218433D01*
X190936Y218439D01*
X184910Y218439D01*
X184792Y218424D01*
X184673Y218417D01*
X184635Y218404D01*
X184594Y218399D01*
X184484Y218356D01*
X184371Y218319D01*
X184336Y218297D01*
X184299Y218282D01*
X184203Y218213D01*
X184102Y218149D01*
X184074Y218119D01*
X184041Y218096D01*
X183965Y218004D01*
X183884Y217917D01*
X183864Y217882D01*
X183839Y217851D01*
X183788Y217743D01*
X183730Y217639D01*
X183720Y217599D01*
X183703Y217563D01*
X183681Y217446D01*
X183651Y217331D01*
X183647Y217271D01*
X183643Y217251D01*
X183645Y217230D01*
X183643Y217213D01*
X183643Y217212D01*
X183643Y217211D01*
X183641Y217170D01*
X183641Y213698D01*
X182152Y212209D01*
X167048Y212209D01*
X165997Y213259D01*
X165903Y213332D01*
X165814Y213411D01*
X165778Y213429D01*
X165746Y213454D01*
X165637Y213502D01*
X165531Y213556D01*
X165492Y213565D01*
X165454Y213581D01*
X165337Y213599D01*
X165221Y213625D01*
X165180Y213624D01*
X165140Y213630D01*
X165022Y213619D01*
X164903Y213616D01*
X164864Y213604D01*
X164824Y213601D01*
X164712Y213560D01*
X164597Y213527D01*
X164562Y213507D01*
X164524Y213493D01*
X164426Y213426D01*
X164323Y213366D01*
X164278Y213326D01*
X164261Y213314D01*
X164248Y213299D01*
X164202Y213259D01*
X163152Y212209D01*
X148048Y212209D01*
X146559Y213698D01*
X146559Y217170D01*
X146544Y217288D01*
X146537Y217407D01*
X146524Y217445D01*
X146519Y217486D01*
X146476Y217596D01*
X146439Y217709D01*
X146417Y217744D01*
X146402Y217781D01*
X146333Y217877D01*
X146269Y217978D01*
X146239Y218006D01*
X146216Y218039D01*
X146124Y218115D01*
X146037Y218196D01*
X146002Y218216D01*
X145971Y218241D01*
X145863Y218292D01*
X145759Y218350D01*
X145719Y218360D01*
X145683Y218377D01*
X145566Y218399D01*
X145451Y218429D01*
X145391Y218433D01*
X145371Y218437D01*
X145350Y218435D01*
X145290Y218439D01*
X139264Y218439D01*
X139127Y218422D01*
X138988Y218409D01*
X138969Y218402D01*
X138949Y218399D01*
X138820Y218348D01*
X138689Y218301D01*
X138672Y218290D01*
X138653Y218282D01*
X138541Y218201D01*
X138425Y218123D01*
X138412Y218107D01*
X138396Y218096D01*
X138307Y217988D01*
X138215Y217884D01*
X138206Y217866D01*
X138193Y217851D01*
X138134Y217725D01*
X138070Y217601D01*
X138066Y217581D01*
X138057Y217563D01*
X138031Y217427D01*
X138001Y217291D01*
X138001Y217270D01*
X137997Y217251D01*
X138006Y217112D01*
X138010Y216973D01*
X138016Y216953D01*
X138017Y216933D01*
X138060Y216801D01*
X138099Y216667D01*
X138109Y216650D01*
X138115Y216631D01*
X138190Y216513D01*
X138260Y216393D01*
X138279Y216372D01*
X138285Y216362D01*
X138300Y216348D01*
X138367Y216273D01*
X147257Y207382D01*
X147335Y207322D01*
X147407Y207254D01*
X147460Y207225D01*
X147508Y207188D01*
X147599Y207148D01*
X147686Y207100D01*
X147744Y207085D01*
X147800Y207061D01*
X147898Y207046D01*
X147994Y207021D01*
X148094Y207015D01*
X148114Y207011D01*
X148126Y207013D01*
X148154Y207011D01*
X182046Y207011D01*
X182144Y207023D01*
G37*
G36*
X233738Y315806D02*
X233738Y315806D01*
X233877Y315810D01*
X233897Y315816D01*
X233917Y315817D01*
X234049Y315860D01*
X234183Y315899D01*
X234200Y315909D01*
X234219Y315915D01*
X234337Y315990D01*
X234457Y316060D01*
X234478Y316079D01*
X234488Y316085D01*
X234502Y316100D01*
X234577Y316167D01*
X238418Y320007D01*
X238478Y320085D01*
X238546Y320157D01*
X238575Y320210D01*
X238612Y320258D01*
X238652Y320349D01*
X238700Y320436D01*
X238715Y320494D01*
X238739Y320550D01*
X238754Y320648D01*
X238779Y320744D01*
X238785Y320844D01*
X238789Y320864D01*
X238787Y320876D01*
X238789Y320904D01*
X238789Y323740D01*
X238774Y323858D01*
X238767Y323977D01*
X238754Y324015D01*
X238749Y324056D01*
X238706Y324166D01*
X238669Y324279D01*
X238647Y324314D01*
X238632Y324351D01*
X238563Y324447D01*
X238499Y324548D01*
X238469Y324576D01*
X238446Y324609D01*
X238354Y324685D01*
X238267Y324766D01*
X238232Y324786D01*
X238201Y324811D01*
X238093Y324862D01*
X237989Y324920D01*
X237949Y324930D01*
X237913Y324947D01*
X237796Y324969D01*
X237681Y324999D01*
X237621Y325003D01*
X237601Y325007D01*
X237580Y325005D01*
X237520Y325009D01*
X233680Y325009D01*
X233562Y324994D01*
X233443Y324987D01*
X233405Y324974D01*
X233364Y324969D01*
X233254Y324926D01*
X233141Y324889D01*
X233106Y324867D01*
X233069Y324852D01*
X232973Y324783D01*
X232872Y324719D01*
X232844Y324689D01*
X232811Y324666D01*
X232735Y324574D01*
X232654Y324487D01*
X232634Y324452D01*
X232609Y324421D01*
X232558Y324313D01*
X232500Y324209D01*
X232490Y324169D01*
X232473Y324133D01*
X232451Y324016D01*
X232421Y323901D01*
X232417Y323841D01*
X232413Y323821D01*
X232415Y323800D01*
X232411Y323740D01*
X232411Y317064D01*
X232428Y316927D01*
X232441Y316788D01*
X232448Y316769D01*
X232451Y316749D01*
X232502Y316620D01*
X232549Y316489D01*
X232560Y316472D01*
X232568Y316453D01*
X232649Y316340D01*
X232727Y316225D01*
X232743Y316212D01*
X232754Y316196D01*
X232862Y316107D01*
X232966Y316015D01*
X232984Y316006D01*
X232999Y315993D01*
X233125Y315934D01*
X233249Y315870D01*
X233269Y315866D01*
X233287Y315857D01*
X233423Y315831D01*
X233559Y315801D01*
X233580Y315801D01*
X233599Y315797D01*
X233738Y315806D01*
G37*
G36*
X6408Y276430D02*
X6408Y276430D01*
X6547Y276434D01*
X6567Y276440D01*
X6587Y276441D01*
X6719Y276484D01*
X6853Y276523D01*
X6870Y276533D01*
X6889Y276539D01*
X7007Y276614D01*
X7127Y276684D01*
X7148Y276703D01*
X7158Y276709D01*
X7172Y276724D01*
X7248Y276791D01*
X8498Y278041D01*
X13970Y278041D01*
X14088Y278056D01*
X14207Y278063D01*
X14245Y278076D01*
X14286Y278081D01*
X14396Y278124D01*
X14509Y278161D01*
X14544Y278183D01*
X14581Y278198D01*
X14677Y278267D01*
X14778Y278331D01*
X14806Y278361D01*
X14839Y278384D01*
X14915Y278476D01*
X14996Y278563D01*
X15016Y278598D01*
X15041Y278629D01*
X15092Y278737D01*
X15150Y278841D01*
X15160Y278881D01*
X15177Y278917D01*
X15199Y279034D01*
X15229Y279149D01*
X15233Y279209D01*
X15237Y279229D01*
X15236Y279241D01*
X15237Y279245D01*
X15236Y279257D01*
X15239Y279310D01*
X15239Y280190D01*
X15224Y280308D01*
X15217Y280427D01*
X15204Y280465D01*
X15199Y280506D01*
X15156Y280616D01*
X15119Y280729D01*
X15097Y280764D01*
X15082Y280801D01*
X15013Y280897D01*
X14949Y280998D01*
X14919Y281026D01*
X14896Y281059D01*
X14804Y281135D01*
X14717Y281216D01*
X14682Y281236D01*
X14651Y281261D01*
X14543Y281312D01*
X14439Y281370D01*
X14399Y281380D01*
X14363Y281397D01*
X14246Y281419D01*
X14131Y281449D01*
X14071Y281453D01*
X14051Y281457D01*
X14030Y281455D01*
X13970Y281459D01*
X8498Y281459D01*
X7248Y282709D01*
X7138Y282795D01*
X7031Y282883D01*
X7012Y282892D01*
X6996Y282904D01*
X6868Y282960D01*
X6743Y283019D01*
X6723Y283023D01*
X6704Y283031D01*
X6566Y283053D01*
X6431Y283079D01*
X6410Y283077D01*
X6390Y283080D01*
X6251Y283067D01*
X6113Y283059D01*
X6094Y283053D01*
X6074Y283051D01*
X5942Y283003D01*
X5811Y282961D01*
X5793Y282950D01*
X5774Y282943D01*
X5659Y282865D01*
X5542Y282791D01*
X5528Y282776D01*
X5511Y282764D01*
X5419Y282660D01*
X5324Y282559D01*
X5314Y282541D01*
X5301Y282526D01*
X5237Y282402D01*
X5170Y282280D01*
X5165Y282261D01*
X5156Y282243D01*
X5126Y282106D01*
X5091Y281973D01*
X5089Y281944D01*
X5087Y281933D01*
X5087Y281912D01*
X5081Y281812D01*
X5081Y277688D01*
X5098Y277550D01*
X5111Y277412D01*
X5118Y277393D01*
X5121Y277373D01*
X5172Y277243D01*
X5219Y277113D01*
X5230Y277096D01*
X5238Y277077D01*
X5319Y276964D01*
X5397Y276849D01*
X5413Y276836D01*
X5424Y276820D01*
X5532Y276731D01*
X5636Y276639D01*
X5654Y276630D01*
X5669Y276617D01*
X5795Y276558D01*
X5919Y276494D01*
X5939Y276490D01*
X5957Y276481D01*
X6094Y276455D01*
X6229Y276425D01*
X6250Y276425D01*
X6270Y276421D01*
X6408Y276430D01*
G37*
G36*
X6408Y224930D02*
X6408Y224930D01*
X6547Y224934D01*
X6567Y224940D01*
X6587Y224941D01*
X6719Y224984D01*
X6853Y225023D01*
X6870Y225033D01*
X6889Y225039D01*
X7007Y225114D01*
X7127Y225184D01*
X7148Y225203D01*
X7158Y225209D01*
X7172Y225224D01*
X7248Y225291D01*
X8498Y226541D01*
X13970Y226541D01*
X14088Y226556D01*
X14207Y226563D01*
X14245Y226576D01*
X14286Y226581D01*
X14396Y226624D01*
X14509Y226661D01*
X14544Y226683D01*
X14581Y226698D01*
X14677Y226767D01*
X14778Y226831D01*
X14806Y226861D01*
X14839Y226884D01*
X14915Y226976D01*
X14996Y227063D01*
X15016Y227098D01*
X15041Y227129D01*
X15092Y227237D01*
X15150Y227341D01*
X15160Y227381D01*
X15177Y227417D01*
X15199Y227534D01*
X15229Y227649D01*
X15233Y227709D01*
X15237Y227729D01*
X15235Y227750D01*
X15239Y227810D01*
X15239Y228690D01*
X15224Y228808D01*
X15217Y228927D01*
X15204Y228965D01*
X15199Y229006D01*
X15156Y229116D01*
X15119Y229229D01*
X15097Y229264D01*
X15082Y229301D01*
X15013Y229397D01*
X14949Y229498D01*
X14919Y229526D01*
X14896Y229559D01*
X14804Y229635D01*
X14717Y229716D01*
X14682Y229736D01*
X14651Y229761D01*
X14543Y229812D01*
X14439Y229870D01*
X14399Y229880D01*
X14363Y229897D01*
X14246Y229919D01*
X14131Y229949D01*
X14071Y229953D01*
X14051Y229957D01*
X14030Y229955D01*
X13970Y229959D01*
X8498Y229959D01*
X7248Y231209D01*
X7138Y231295D01*
X7031Y231383D01*
X7012Y231392D01*
X6996Y231404D01*
X6868Y231460D01*
X6743Y231519D01*
X6723Y231523D01*
X6704Y231531D01*
X6566Y231553D01*
X6431Y231579D01*
X6410Y231577D01*
X6390Y231580D01*
X6251Y231567D01*
X6113Y231559D01*
X6094Y231553D01*
X6074Y231551D01*
X5942Y231503D01*
X5811Y231461D01*
X5793Y231450D01*
X5774Y231443D01*
X5659Y231365D01*
X5542Y231291D01*
X5528Y231276D01*
X5511Y231264D01*
X5419Y231160D01*
X5324Y231059D01*
X5314Y231041D01*
X5301Y231026D01*
X5237Y230902D01*
X5170Y230780D01*
X5165Y230761D01*
X5156Y230743D01*
X5126Y230606D01*
X5091Y230473D01*
X5089Y230444D01*
X5087Y230433D01*
X5087Y230412D01*
X5081Y230312D01*
X5081Y226188D01*
X5098Y226050D01*
X5111Y225912D01*
X5118Y225893D01*
X5121Y225873D01*
X5172Y225743D01*
X5219Y225613D01*
X5230Y225596D01*
X5238Y225577D01*
X5319Y225464D01*
X5397Y225349D01*
X5413Y225336D01*
X5424Y225320D01*
X5532Y225231D01*
X5636Y225139D01*
X5654Y225130D01*
X5669Y225117D01*
X5795Y225058D01*
X5919Y224994D01*
X5939Y224990D01*
X5957Y224981D01*
X6094Y224955D01*
X6229Y224925D01*
X6250Y224925D01*
X6270Y224921D01*
X6408Y224930D01*
G37*
G36*
X6408Y252430D02*
X6408Y252430D01*
X6547Y252434D01*
X6567Y252440D01*
X6587Y252441D01*
X6719Y252484D01*
X6853Y252523D01*
X6870Y252533D01*
X6889Y252539D01*
X7007Y252614D01*
X7127Y252684D01*
X7148Y252703D01*
X7158Y252709D01*
X7172Y252724D01*
X7248Y252791D01*
X7559Y253103D01*
X7632Y253197D01*
X7711Y253286D01*
X7730Y253322D01*
X7754Y253354D01*
X7802Y253463D01*
X7856Y253569D01*
X7865Y253609D01*
X7881Y253646D01*
X7899Y253763D01*
X7925Y253879D01*
X7924Y253920D01*
X7930Y253960D01*
X7919Y254078D01*
X7916Y254197D01*
X7904Y254236D01*
X7901Y254276D01*
X7860Y254388D01*
X7827Y254503D01*
X7807Y254538D01*
X7793Y254576D01*
X7726Y254674D01*
X7666Y254777D01*
X7626Y254822D01*
X7614Y254839D01*
X7599Y254852D01*
X7559Y254898D01*
X7248Y255209D01*
X7138Y255295D01*
X7031Y255383D01*
X7012Y255392D01*
X6996Y255404D01*
X6868Y255460D01*
X6743Y255519D01*
X6723Y255523D01*
X6704Y255531D01*
X6566Y255553D01*
X6431Y255579D01*
X6410Y255577D01*
X6390Y255580D01*
X6251Y255567D01*
X6113Y255559D01*
X6094Y255553D01*
X6074Y255551D01*
X5942Y255503D01*
X5811Y255461D01*
X5793Y255450D01*
X5774Y255443D01*
X5659Y255365D01*
X5542Y255291D01*
X5528Y255276D01*
X5511Y255264D01*
X5419Y255160D01*
X5324Y255059D01*
X5314Y255041D01*
X5301Y255026D01*
X5238Y254902D01*
X5170Y254780D01*
X5165Y254761D01*
X5156Y254743D01*
X5126Y254606D01*
X5091Y254473D01*
X5089Y254444D01*
X5087Y254433D01*
X5087Y254412D01*
X5081Y254312D01*
X5081Y253688D01*
X5098Y253550D01*
X5111Y253412D01*
X5118Y253393D01*
X5121Y253373D01*
X5172Y253243D01*
X5219Y253112D01*
X5230Y253096D01*
X5238Y253077D01*
X5319Y252964D01*
X5397Y252849D01*
X5413Y252836D01*
X5424Y252820D01*
X5532Y252731D01*
X5636Y252639D01*
X5654Y252630D01*
X5669Y252617D01*
X5795Y252558D01*
X5919Y252494D01*
X5939Y252490D01*
X5957Y252481D01*
X6093Y252455D01*
X6229Y252425D01*
X6250Y252425D01*
X6270Y252421D01*
X6408Y252430D01*
G37*
D10*
X35000Y35000D03*
X797000Y543000D03*
D11*
X165150Y259450D03*
D12*
X165150Y272950D03*
D13*
X177150Y272950D03*
D14*
X177150Y259450D03*
D15*
X155600Y222250D03*
X174600Y222250D03*
D16*
X214600Y336550D03*
X242600Y336550D03*
D17*
X231300Y375700D03*
X251300Y375700D03*
D18*
X241300Y408200D03*
D17*
X292100Y395900D03*
X292100Y416900D03*
D19*
X315800Y368300D03*
X293800Y358800D03*
X293800Y377800D03*
D20*
X95250Y409550D03*
X95250Y390550D03*
D21*
X45800Y267000D03*
X45800Y260500D03*
X45800Y254000D03*
X45800Y247500D03*
X45800Y241000D03*
D22*
X19050Y293500D03*
X19050Y266000D03*
X19050Y242000D03*
X19050Y214500D03*
D23*
X138180Y368300D03*
X166620Y368300D03*
X166620Y406400D03*
X138180Y406400D03*
D24*
X69850Y385830D03*
X69850Y414270D03*
D23*
X109470Y222250D03*
X81030Y222250D03*
D25*
X177150Y272950D02*
X190400Y272950D01*
X190500Y273050D01*
X196850Y266700D01*
X196850Y228600D02*
X190500Y222250D01*
X174600Y222250D01*
X196850Y228600D02*
X196850Y266700D01*
X165150Y259450D02*
X126850Y259450D01*
X95250Y291050D01*
X69850Y368300D02*
X69850Y385830D01*
X69850Y414270D01*
X95250Y390550D02*
X95250Y387350D01*
X95250Y342900D01*
X95250Y291050D01*
X101600Y336550D02*
X95250Y342900D01*
X101600Y336550D02*
X214600Y336550D01*
X177150Y259450D02*
X165150Y259450D01*
X82550Y355600D02*
X69850Y368300D01*
X69550Y267000D02*
X69850Y266700D01*
X69550Y267000D02*
X45800Y267000D01*
X69850Y266700D02*
X82550Y279400D01*
X82550Y355600D01*
X69850Y385830D02*
X71370Y387350D01*
X95250Y387350D01*
X45800Y241000D02*
X20050Y241000D01*
X19050Y242000D01*
X19050Y240000D02*
X19050Y214500D01*
X19050Y240000D02*
X20050Y241000D01*
X19050Y240000D02*
X19050Y266000D01*
X19050Y293500D01*
X81030Y222250D02*
X109470Y222250D01*
X46100Y241300D02*
X45800Y241000D01*
X46100Y241300D02*
X57150Y241300D01*
X63500Y234950D01*
X63500Y228600D01*
X69850Y222250D01*
X81030Y222250D01*
X109470Y222250D02*
X127000Y222250D01*
X155600Y222250D01*
X242600Y318800D02*
X242600Y336550D01*
X242600Y318800D02*
X203200Y279400D01*
X203200Y222250D01*
X184150Y203200D01*
X146050Y203200D01*
X127000Y222250D01*
X251300Y368300D02*
X251300Y375700D01*
X251300Y368300D02*
X251300Y365600D01*
X242600Y356900D02*
X242600Y336550D01*
X242600Y356900D02*
X251300Y365600D01*
X251300Y368300D02*
X260800Y358800D01*
X293800Y358800D01*
X165175Y272975D02*
X165150Y272950D01*
X231300Y374650D02*
X231300Y375700D01*
X231300Y374650D02*
X231300Y358300D01*
X228600Y355600D01*
X228600Y317500D01*
X209550Y298450D01*
X177800Y298450D01*
X165100Y285750D02*
X165100Y273050D01*
X165175Y272975D01*
X165100Y285750D02*
X177800Y298450D01*
X166620Y368300D02*
X138180Y368300D01*
X196850Y368300D02*
X203200Y374650D01*
X231300Y374650D01*
X196850Y368300D02*
X166620Y368300D01*
X166620Y406400D02*
X196850Y406400D01*
X215900Y425450D01*
X166620Y406400D02*
X138180Y406400D01*
X215900Y425450D02*
X247650Y425450D01*
X260350Y425450D01*
X241300Y419100D02*
X241300Y408200D01*
X241300Y419100D02*
X247650Y425450D01*
X260350Y425450D02*
X273050Y412750D01*
X273050Y387350D01*
X282600Y377800D01*
X293800Y377800D01*
X315800Y368300D02*
X317500Y368300D01*
X308950Y395900D02*
X292100Y395900D01*
X308950Y395900D02*
X317500Y387350D01*
X317500Y368300D01*
X117500Y431800D02*
X95250Y409550D01*
X277200Y431800D02*
X292100Y416900D01*
X277200Y431800D02*
X117500Y431800D01*
M02*
