G04 EAGLE Gerber RS-274X export*
G75*
%MOMM*%
%FSLAX34Y34*%
%LPD*%
%INSilkscreen Top*%
%IPPOS*%
%AMOC8*
5,1,8,0,0,1.08239X$1,22.5*%
G01*
%ADD10C,0.101600*%
%ADD11C,0.304800*%
%ADD12C,0.254000*%
%ADD13C,0.076200*%
%ADD14C,0.200000*%
%ADD15C,0.127000*%
%ADD16C,0.240000*%
%ADD17R,0.200000X0.200000*%

G36*
X805511Y10135D02*
X805511Y10135D01*
X805540Y10133D01*
X806197Y10220D01*
X806233Y10233D01*
X806293Y10245D01*
X806906Y10499D01*
X806936Y10521D01*
X806991Y10549D01*
X807518Y10952D01*
X807542Y10982D01*
X807588Y11022D01*
X807991Y11549D01*
X808007Y11583D01*
X808041Y11635D01*
X808295Y12247D01*
X808301Y12285D01*
X808319Y12338D01*
X808319Y12339D01*
X808320Y12343D01*
X808407Y13000D01*
X808405Y13022D01*
X808410Y13050D01*
X808410Y18111D01*
X808527Y19294D01*
X808866Y20414D01*
X809418Y21446D01*
X810160Y22350D01*
X811064Y23092D01*
X812096Y23644D01*
X813216Y23983D01*
X814399Y24100D01*
X819460Y24100D01*
X819481Y24105D01*
X819510Y24103D01*
X820167Y24190D01*
X820203Y24203D01*
X820263Y24215D01*
X820876Y24469D01*
X820906Y24491D01*
X820961Y24519D01*
X821488Y24922D01*
X821512Y24952D01*
X821558Y24992D01*
X821961Y25519D01*
X821977Y25553D01*
X822011Y25605D01*
X822265Y26217D01*
X822271Y26255D01*
X822290Y26313D01*
X822377Y26970D01*
X822375Y26992D01*
X822380Y27020D01*
X822380Y34640D01*
X822375Y34661D01*
X822377Y34690D01*
X822290Y35347D01*
X822277Y35383D01*
X822265Y35443D01*
X822011Y36056D01*
X821989Y36086D01*
X821961Y36141D01*
X821558Y36668D01*
X821528Y36692D01*
X821488Y36738D01*
X820961Y37141D01*
X820927Y37157D01*
X820876Y37191D01*
X820263Y37445D01*
X820226Y37451D01*
X820167Y37470D01*
X819510Y37557D01*
X819488Y37555D01*
X819460Y37560D01*
X811840Y37560D01*
X811819Y37555D01*
X811790Y37557D01*
X811133Y37470D01*
X811097Y37457D01*
X811037Y37445D01*
X810425Y37191D01*
X810394Y37169D01*
X810339Y37141D01*
X809812Y36738D01*
X809788Y36708D01*
X809742Y36668D01*
X809339Y36141D01*
X809323Y36107D01*
X809289Y36056D01*
X809035Y35443D01*
X809029Y35406D01*
X809010Y35347D01*
X808923Y34690D01*
X808925Y34668D01*
X808920Y34640D01*
X808920Y29579D01*
X808803Y28396D01*
X808464Y27276D01*
X807912Y26244D01*
X807170Y25340D01*
X806266Y24598D01*
X805234Y24046D01*
X804114Y23707D01*
X802931Y23590D01*
X797870Y23590D01*
X797849Y23585D01*
X797820Y23587D01*
X797163Y23500D01*
X797127Y23487D01*
X797067Y23475D01*
X796455Y23221D01*
X796424Y23199D01*
X796369Y23171D01*
X795842Y22768D01*
X795818Y22738D01*
X795772Y22698D01*
X795369Y22171D01*
X795353Y22137D01*
X795319Y22086D01*
X795065Y21473D01*
X795059Y21436D01*
X795040Y21377D01*
X794953Y20720D01*
X794955Y20698D01*
X794950Y20670D01*
X794950Y13050D01*
X794955Y13029D01*
X794953Y13000D01*
X795040Y12343D01*
X795047Y12323D01*
X795047Y12311D01*
X795055Y12296D01*
X795065Y12247D01*
X795319Y11635D01*
X795341Y11604D01*
X795369Y11549D01*
X795772Y11022D01*
X795777Y11019D01*
X795777Y11018D01*
X795784Y11013D01*
X795802Y10998D01*
X795842Y10952D01*
X796369Y10549D01*
X796403Y10533D01*
X796455Y10499D01*
X797067Y10245D01*
X797105Y10239D01*
X797163Y10220D01*
X797820Y10133D01*
X797842Y10135D01*
X797870Y10130D01*
X805490Y10130D01*
X805511Y10135D01*
G37*
G36*
X791541Y24105D02*
X791541Y24105D01*
X791570Y24103D01*
X792227Y24190D01*
X792263Y24203D01*
X792323Y24215D01*
X792936Y24469D01*
X792966Y24491D01*
X793021Y24519D01*
X793548Y24922D01*
X793572Y24952D01*
X793618Y24992D01*
X794021Y25519D01*
X794037Y25553D01*
X794071Y25605D01*
X794325Y26217D01*
X794331Y26255D01*
X794349Y26307D01*
X794349Y26309D01*
X794350Y26313D01*
X794437Y26970D01*
X794435Y26992D01*
X794440Y27020D01*
X794440Y34640D01*
X794435Y34661D01*
X794437Y34690D01*
X794350Y35347D01*
X794337Y35383D01*
X794325Y35443D01*
X794071Y36056D01*
X794049Y36086D01*
X794021Y36141D01*
X793618Y36668D01*
X793588Y36692D01*
X793548Y36738D01*
X793021Y37141D01*
X792987Y37157D01*
X792936Y37191D01*
X792323Y37445D01*
X792286Y37451D01*
X792227Y37470D01*
X791570Y37557D01*
X791548Y37555D01*
X791520Y37560D01*
X783900Y37560D01*
X783879Y37555D01*
X783850Y37557D01*
X783193Y37470D01*
X783157Y37457D01*
X783097Y37445D01*
X782485Y37191D01*
X782454Y37169D01*
X782399Y37141D01*
X781872Y36738D01*
X781848Y36708D01*
X781802Y36668D01*
X781399Y36141D01*
X781383Y36107D01*
X781349Y36056D01*
X781095Y35443D01*
X781089Y35406D01*
X781070Y35347D01*
X780983Y34690D01*
X780985Y34668D01*
X780980Y34640D01*
X780980Y27020D01*
X780985Y26999D01*
X780983Y26970D01*
X781070Y26313D01*
X781077Y26293D01*
X781077Y26281D01*
X781085Y26266D01*
X781095Y26217D01*
X781349Y25605D01*
X781371Y25574D01*
X781399Y25519D01*
X781802Y24992D01*
X781807Y24989D01*
X781807Y24988D01*
X781814Y24983D01*
X781832Y24968D01*
X781872Y24922D01*
X782399Y24519D01*
X782433Y24503D01*
X782485Y24469D01*
X783097Y24215D01*
X783135Y24209D01*
X783193Y24190D01*
X783850Y24103D01*
X783872Y24105D01*
X783900Y24100D01*
X791520Y24100D01*
X791541Y24105D01*
G37*
D10*
X305308Y420116D02*
X305308Y406908D01*
X311178Y406908D01*
X316403Y406908D02*
X322273Y406908D01*
X316403Y406908D02*
X316403Y420116D01*
X322273Y420116D01*
X320805Y414246D02*
X316403Y414246D01*
X327474Y420116D02*
X327474Y406908D01*
X327474Y420116D02*
X331142Y420116D01*
X331262Y420114D01*
X331382Y420108D01*
X331502Y420098D01*
X331621Y420085D01*
X331740Y420067D01*
X331858Y420046D01*
X331975Y420020D01*
X332092Y419991D01*
X332207Y419958D01*
X332321Y419921D01*
X332434Y419881D01*
X332546Y419837D01*
X332656Y419789D01*
X332765Y419738D01*
X332872Y419683D01*
X332977Y419624D01*
X333079Y419563D01*
X333180Y419498D01*
X333279Y419429D01*
X333376Y419358D01*
X333470Y419283D01*
X333561Y419206D01*
X333650Y419125D01*
X333736Y419041D01*
X333820Y418955D01*
X333901Y418866D01*
X333978Y418775D01*
X334053Y418681D01*
X334124Y418584D01*
X334193Y418485D01*
X334258Y418384D01*
X334319Y418282D01*
X334378Y418177D01*
X334433Y418070D01*
X334484Y417961D01*
X334532Y417851D01*
X334576Y417739D01*
X334616Y417626D01*
X334653Y417512D01*
X334686Y417397D01*
X334715Y417280D01*
X334741Y417163D01*
X334762Y417045D01*
X334780Y416926D01*
X334793Y416807D01*
X334803Y416687D01*
X334809Y416567D01*
X334811Y416447D01*
X334811Y410577D01*
X334809Y410457D01*
X334803Y410337D01*
X334793Y410217D01*
X334780Y410098D01*
X334762Y409979D01*
X334741Y409861D01*
X334715Y409744D01*
X334686Y409627D01*
X334653Y409512D01*
X334616Y409398D01*
X334576Y409285D01*
X334532Y409173D01*
X334484Y409063D01*
X334433Y408954D01*
X334378Y408847D01*
X334319Y408743D01*
X334258Y408640D01*
X334193Y408539D01*
X334124Y408440D01*
X334053Y408343D01*
X333978Y408249D01*
X333901Y408158D01*
X333820Y408069D01*
X333736Y407983D01*
X333650Y407899D01*
X333561Y407818D01*
X333470Y407741D01*
X333376Y407666D01*
X333279Y407595D01*
X333180Y407526D01*
X333079Y407461D01*
X332977Y407400D01*
X332872Y407341D01*
X332765Y407286D01*
X332656Y407235D01*
X332546Y407187D01*
X332434Y407143D01*
X332321Y407103D01*
X332207Y407066D01*
X332092Y407033D01*
X331975Y407004D01*
X331858Y406978D01*
X331740Y406957D01*
X331621Y406939D01*
X331502Y406926D01*
X331382Y406916D01*
X331262Y406910D01*
X331142Y406908D01*
X327474Y406908D01*
X302627Y350266D02*
X302627Y337058D01*
X298958Y350266D02*
X306296Y350266D01*
X310906Y347331D02*
X314575Y350266D01*
X314575Y337058D01*
X310906Y337058D02*
X318244Y337058D01*
X266728Y330708D02*
X263793Y330708D01*
X263686Y330710D01*
X263579Y330716D01*
X263472Y330726D01*
X263366Y330739D01*
X263260Y330757D01*
X263155Y330778D01*
X263051Y330803D01*
X262947Y330832D01*
X262845Y330865D01*
X262745Y330902D01*
X262645Y330942D01*
X262547Y330986D01*
X262451Y331033D01*
X262357Y331084D01*
X262264Y331138D01*
X262174Y331195D01*
X262085Y331256D01*
X261999Y331320D01*
X261916Y331387D01*
X261834Y331457D01*
X261756Y331530D01*
X261680Y331606D01*
X261607Y331684D01*
X261537Y331766D01*
X261470Y331849D01*
X261406Y331935D01*
X261345Y332024D01*
X261288Y332114D01*
X261234Y332207D01*
X261183Y332301D01*
X261136Y332397D01*
X261092Y332495D01*
X261052Y332595D01*
X261015Y332695D01*
X260982Y332797D01*
X260953Y332901D01*
X260928Y333005D01*
X260907Y333110D01*
X260889Y333216D01*
X260876Y333322D01*
X260866Y333429D01*
X260860Y333536D01*
X260858Y333643D01*
X260858Y340981D01*
X260860Y341088D01*
X260866Y341195D01*
X260876Y341302D01*
X260889Y341408D01*
X260907Y341514D01*
X260928Y341619D01*
X260953Y341723D01*
X260982Y341827D01*
X261015Y341929D01*
X261052Y342029D01*
X261092Y342129D01*
X261136Y342227D01*
X261183Y342323D01*
X261234Y342417D01*
X261288Y342510D01*
X261345Y342600D01*
X261406Y342689D01*
X261470Y342775D01*
X261537Y342858D01*
X261607Y342940D01*
X261680Y343018D01*
X261756Y343094D01*
X261834Y343167D01*
X261916Y343237D01*
X261999Y343304D01*
X262085Y343368D01*
X262174Y343429D01*
X262264Y343486D01*
X262357Y343540D01*
X262451Y343591D01*
X262547Y343638D01*
X262645Y343682D01*
X262745Y343722D01*
X262845Y343759D01*
X262947Y343792D01*
X263051Y343821D01*
X263155Y343846D01*
X263260Y343867D01*
X263366Y343885D01*
X263472Y343898D01*
X263579Y343908D01*
X263686Y343914D01*
X263793Y343916D01*
X266728Y343916D01*
X271561Y340981D02*
X275230Y343916D01*
X275230Y330708D01*
X271561Y330708D02*
X278899Y330708D01*
X112861Y305308D02*
X108458Y318516D01*
X117263Y318516D02*
X112861Y305308D01*
X124893Y305308D02*
X127828Y305308D01*
X124893Y305308D02*
X124786Y305310D01*
X124679Y305316D01*
X124572Y305326D01*
X124466Y305339D01*
X124360Y305357D01*
X124255Y305378D01*
X124151Y305403D01*
X124047Y305432D01*
X123945Y305465D01*
X123845Y305502D01*
X123745Y305542D01*
X123647Y305586D01*
X123551Y305633D01*
X123457Y305684D01*
X123364Y305738D01*
X123274Y305795D01*
X123185Y305856D01*
X123099Y305920D01*
X123016Y305987D01*
X122934Y306057D01*
X122856Y306130D01*
X122780Y306206D01*
X122707Y306284D01*
X122637Y306366D01*
X122570Y306449D01*
X122506Y306535D01*
X122445Y306624D01*
X122388Y306714D01*
X122334Y306807D01*
X122283Y306901D01*
X122236Y306997D01*
X122192Y307095D01*
X122152Y307195D01*
X122115Y307295D01*
X122082Y307397D01*
X122053Y307501D01*
X122028Y307605D01*
X122007Y307710D01*
X121989Y307816D01*
X121976Y307922D01*
X121966Y308029D01*
X121960Y308136D01*
X121958Y308243D01*
X121958Y315581D01*
X121960Y315688D01*
X121966Y315795D01*
X121976Y315902D01*
X121989Y316008D01*
X122007Y316114D01*
X122028Y316219D01*
X122053Y316323D01*
X122082Y316427D01*
X122115Y316529D01*
X122152Y316629D01*
X122192Y316729D01*
X122236Y316827D01*
X122283Y316923D01*
X122334Y317017D01*
X122388Y317110D01*
X122445Y317200D01*
X122506Y317289D01*
X122570Y317375D01*
X122637Y317458D01*
X122707Y317540D01*
X122780Y317618D01*
X122856Y317694D01*
X122934Y317767D01*
X123016Y317837D01*
X123099Y317904D01*
X123185Y317968D01*
X123274Y318029D01*
X123364Y318086D01*
X123457Y318140D01*
X123551Y318191D01*
X123647Y318238D01*
X123745Y318282D01*
X123845Y318322D01*
X123945Y318359D01*
X124047Y318392D01*
X124151Y318421D01*
X124255Y318446D01*
X124360Y318467D01*
X124466Y318485D01*
X124572Y318498D01*
X124679Y318508D01*
X124786Y318514D01*
X124893Y318516D01*
X127828Y318516D01*
X133088Y318516D02*
X133088Y305308D01*
X140426Y305308D02*
X133088Y318516D01*
X140426Y318516D02*
X140426Y305308D01*
X149132Y305308D02*
X149132Y318516D01*
X145463Y318516D02*
X152801Y318516D01*
X161447Y318516D02*
X161560Y318514D01*
X161672Y318508D01*
X161785Y318499D01*
X161897Y318485D01*
X162008Y318468D01*
X162119Y318447D01*
X162229Y318422D01*
X162338Y318394D01*
X162446Y318361D01*
X162553Y318325D01*
X162658Y318286D01*
X162763Y318243D01*
X162865Y318196D01*
X162966Y318146D01*
X163065Y318092D01*
X163163Y318035D01*
X163258Y317975D01*
X163351Y317912D01*
X163442Y317845D01*
X163531Y317775D01*
X163617Y317703D01*
X163701Y317627D01*
X163782Y317549D01*
X163860Y317468D01*
X163936Y317384D01*
X164008Y317298D01*
X164078Y317209D01*
X164145Y317118D01*
X164208Y317025D01*
X164268Y316930D01*
X164325Y316832D01*
X164379Y316733D01*
X164429Y316632D01*
X164476Y316530D01*
X164519Y316425D01*
X164558Y316320D01*
X164594Y316213D01*
X164627Y316105D01*
X164655Y315996D01*
X164680Y315886D01*
X164701Y315775D01*
X164718Y315664D01*
X164732Y315552D01*
X164741Y315439D01*
X164747Y315327D01*
X164749Y315214D01*
X161447Y318516D02*
X161320Y318514D01*
X161193Y318508D01*
X161066Y318499D01*
X160940Y318486D01*
X160814Y318469D01*
X160689Y318448D01*
X160564Y318423D01*
X160441Y318395D01*
X160318Y318363D01*
X160196Y318327D01*
X160075Y318288D01*
X159955Y318245D01*
X159837Y318199D01*
X159720Y318149D01*
X159605Y318095D01*
X159492Y318038D01*
X159380Y317978D01*
X159270Y317915D01*
X159162Y317848D01*
X159056Y317778D01*
X158952Y317705D01*
X158850Y317628D01*
X158751Y317549D01*
X158654Y317467D01*
X158560Y317382D01*
X158468Y317294D01*
X158379Y317204D01*
X158293Y317110D01*
X158209Y317015D01*
X158129Y316917D01*
X158051Y316816D01*
X157976Y316713D01*
X157905Y316608D01*
X157837Y316501D01*
X157772Y316392D01*
X157710Y316281D01*
X157651Y316168D01*
X157596Y316054D01*
X157545Y315938D01*
X157497Y315820D01*
X157452Y315701D01*
X157411Y315581D01*
X163648Y312646D02*
X163730Y312726D01*
X163809Y312809D01*
X163886Y312895D01*
X163960Y312983D01*
X164030Y313074D01*
X164098Y313166D01*
X164163Y313261D01*
X164225Y313358D01*
X164283Y313457D01*
X164339Y313558D01*
X164391Y313660D01*
X164439Y313764D01*
X164484Y313870D01*
X164526Y313977D01*
X164565Y314085D01*
X164599Y314195D01*
X164631Y314305D01*
X164658Y314417D01*
X164682Y314529D01*
X164703Y314642D01*
X164719Y314756D01*
X164732Y314870D01*
X164742Y314984D01*
X164747Y315099D01*
X164749Y315214D01*
X163648Y312646D02*
X157411Y305308D01*
X164749Y305308D01*
X170213Y311912D02*
X170216Y312172D01*
X170225Y312431D01*
X170241Y312691D01*
X170263Y312950D01*
X170290Y313208D01*
X170324Y313466D01*
X170365Y313722D01*
X170411Y313978D01*
X170463Y314233D01*
X170522Y314486D01*
X170586Y314738D01*
X170657Y314988D01*
X170733Y315236D01*
X170815Y315482D01*
X170903Y315727D01*
X170997Y315969D01*
X171097Y316209D01*
X171203Y316447D01*
X171314Y316681D01*
X171313Y316682D02*
X171348Y316777D01*
X171386Y316872D01*
X171428Y316965D01*
X171474Y317056D01*
X171523Y317146D01*
X171575Y317234D01*
X171630Y317319D01*
X171689Y317403D01*
X171751Y317484D01*
X171815Y317563D01*
X171883Y317639D01*
X171954Y317713D01*
X172027Y317784D01*
X172103Y317852D01*
X172181Y317918D01*
X172262Y317980D01*
X172345Y318040D01*
X172430Y318096D01*
X172517Y318149D01*
X172606Y318198D01*
X172697Y318244D01*
X172790Y318287D01*
X172884Y318326D01*
X172980Y318362D01*
X173077Y318394D01*
X173175Y318423D01*
X173274Y318447D01*
X173374Y318468D01*
X173474Y318485D01*
X173575Y318499D01*
X173677Y318508D01*
X173779Y318514D01*
X173881Y318516D01*
X173983Y318514D01*
X174085Y318508D01*
X174187Y318499D01*
X174288Y318485D01*
X174388Y318468D01*
X174488Y318447D01*
X174587Y318423D01*
X174685Y318394D01*
X174782Y318362D01*
X174878Y318326D01*
X174972Y318287D01*
X175065Y318244D01*
X175156Y318198D01*
X175245Y318149D01*
X175332Y318096D01*
X175417Y318040D01*
X175500Y317980D01*
X175581Y317918D01*
X175659Y317852D01*
X175735Y317784D01*
X175808Y317713D01*
X175879Y317639D01*
X175947Y317563D01*
X176011Y317484D01*
X176073Y317403D01*
X176132Y317319D01*
X176187Y317234D01*
X176239Y317146D01*
X176288Y317056D01*
X176334Y316965D01*
X176376Y316872D01*
X176414Y316777D01*
X176449Y316682D01*
X176449Y316681D02*
X176560Y316446D01*
X176666Y316209D01*
X176766Y315969D01*
X176860Y315727D01*
X176948Y315482D01*
X177030Y315236D01*
X177106Y314988D01*
X177177Y314737D01*
X177241Y314486D01*
X177300Y314233D01*
X177352Y313978D01*
X177398Y313722D01*
X177439Y313466D01*
X177473Y313208D01*
X177500Y312950D01*
X177522Y312691D01*
X177538Y312431D01*
X177547Y312172D01*
X177550Y311912D01*
X170213Y311912D02*
X170216Y311652D01*
X170225Y311393D01*
X170241Y311133D01*
X170263Y310874D01*
X170290Y310616D01*
X170324Y310358D01*
X170365Y310102D01*
X170411Y309846D01*
X170463Y309591D01*
X170522Y309338D01*
X170586Y309087D01*
X170657Y308836D01*
X170733Y308588D01*
X170815Y308342D01*
X170903Y308097D01*
X170997Y307855D01*
X171097Y307615D01*
X171203Y307378D01*
X171314Y307143D01*
X171313Y307142D02*
X171348Y307047D01*
X171386Y306952D01*
X171428Y306859D01*
X171474Y306768D01*
X171523Y306678D01*
X171575Y306590D01*
X171630Y306505D01*
X171689Y306421D01*
X171751Y306340D01*
X171815Y306261D01*
X171883Y306185D01*
X171954Y306111D01*
X172027Y306040D01*
X172103Y305972D01*
X172181Y305906D01*
X172262Y305844D01*
X172345Y305784D01*
X172430Y305728D01*
X172517Y305675D01*
X172606Y305626D01*
X172697Y305580D01*
X172790Y305537D01*
X172884Y305498D01*
X172980Y305462D01*
X173077Y305430D01*
X173175Y305401D01*
X173274Y305377D01*
X173374Y305356D01*
X173474Y305339D01*
X173575Y305325D01*
X173677Y305316D01*
X173779Y305310D01*
X173881Y305308D01*
X176450Y307142D02*
X176561Y307377D01*
X176667Y307615D01*
X176767Y307855D01*
X176861Y308097D01*
X176949Y308341D01*
X177031Y308588D01*
X177107Y308836D01*
X177178Y309086D01*
X177242Y309338D01*
X177301Y309591D01*
X177353Y309846D01*
X177399Y310101D01*
X177440Y310358D01*
X177474Y310616D01*
X177501Y310874D01*
X177523Y311133D01*
X177539Y311392D01*
X177548Y311652D01*
X177551Y311912D01*
X176449Y307142D02*
X176414Y307047D01*
X176376Y306952D01*
X176334Y306859D01*
X176288Y306768D01*
X176239Y306678D01*
X176187Y306590D01*
X176132Y306505D01*
X176073Y306421D01*
X176011Y306340D01*
X175947Y306261D01*
X175879Y306185D01*
X175808Y306111D01*
X175735Y306040D01*
X175659Y305972D01*
X175581Y305906D01*
X175500Y305844D01*
X175417Y305784D01*
X175332Y305728D01*
X175245Y305675D01*
X175156Y305626D01*
X175065Y305580D01*
X174972Y305537D01*
X174878Y305498D01*
X174782Y305462D01*
X174685Y305430D01*
X174587Y305401D01*
X174488Y305377D01*
X174388Y305356D01*
X174288Y305339D01*
X174187Y305325D01*
X174085Y305316D01*
X173983Y305310D01*
X173881Y305308D01*
X170946Y308243D02*
X176817Y315581D01*
X187050Y318516D02*
X187163Y318514D01*
X187275Y318508D01*
X187388Y318499D01*
X187500Y318485D01*
X187611Y318468D01*
X187722Y318447D01*
X187832Y318422D01*
X187941Y318394D01*
X188049Y318361D01*
X188156Y318325D01*
X188261Y318286D01*
X188366Y318243D01*
X188468Y318196D01*
X188569Y318146D01*
X188668Y318092D01*
X188766Y318035D01*
X188861Y317975D01*
X188954Y317912D01*
X189045Y317845D01*
X189134Y317775D01*
X189220Y317703D01*
X189304Y317627D01*
X189385Y317549D01*
X189463Y317468D01*
X189539Y317384D01*
X189611Y317298D01*
X189681Y317209D01*
X189748Y317118D01*
X189811Y317025D01*
X189871Y316930D01*
X189928Y316832D01*
X189982Y316733D01*
X190032Y316632D01*
X190079Y316530D01*
X190122Y316425D01*
X190161Y316320D01*
X190197Y316213D01*
X190230Y316105D01*
X190258Y315996D01*
X190283Y315886D01*
X190304Y315775D01*
X190321Y315664D01*
X190335Y315552D01*
X190344Y315439D01*
X190350Y315327D01*
X190352Y315214D01*
X187050Y318516D02*
X186923Y318514D01*
X186796Y318508D01*
X186669Y318499D01*
X186543Y318486D01*
X186417Y318469D01*
X186292Y318448D01*
X186167Y318423D01*
X186044Y318395D01*
X185921Y318363D01*
X185799Y318327D01*
X185678Y318288D01*
X185558Y318245D01*
X185440Y318199D01*
X185323Y318149D01*
X185208Y318095D01*
X185095Y318038D01*
X184983Y317978D01*
X184873Y317915D01*
X184765Y317848D01*
X184659Y317778D01*
X184555Y317705D01*
X184453Y317628D01*
X184354Y317549D01*
X184257Y317467D01*
X184163Y317382D01*
X184071Y317294D01*
X183982Y317204D01*
X183896Y317110D01*
X183812Y317015D01*
X183732Y316917D01*
X183654Y316816D01*
X183579Y316713D01*
X183508Y316608D01*
X183440Y316501D01*
X183375Y316392D01*
X183313Y316281D01*
X183254Y316168D01*
X183199Y316054D01*
X183148Y315938D01*
X183100Y315820D01*
X183055Y315701D01*
X183014Y315581D01*
X189251Y312646D02*
X189333Y312726D01*
X189412Y312809D01*
X189489Y312895D01*
X189563Y312983D01*
X189633Y313074D01*
X189701Y313166D01*
X189766Y313261D01*
X189828Y313358D01*
X189886Y313457D01*
X189942Y313558D01*
X189994Y313660D01*
X190042Y313764D01*
X190087Y313870D01*
X190129Y313977D01*
X190168Y314085D01*
X190202Y314195D01*
X190234Y314305D01*
X190261Y314417D01*
X190285Y314529D01*
X190306Y314642D01*
X190322Y314756D01*
X190335Y314870D01*
X190345Y314984D01*
X190350Y315099D01*
X190352Y315214D01*
X189251Y312646D02*
X183014Y305308D01*
X190352Y305308D01*
X195816Y311912D02*
X195819Y312172D01*
X195828Y312431D01*
X195844Y312691D01*
X195866Y312950D01*
X195893Y313208D01*
X195927Y313466D01*
X195968Y313722D01*
X196014Y313978D01*
X196066Y314233D01*
X196125Y314486D01*
X196189Y314738D01*
X196260Y314988D01*
X196336Y315236D01*
X196418Y315482D01*
X196506Y315727D01*
X196600Y315969D01*
X196700Y316209D01*
X196806Y316447D01*
X196917Y316681D01*
X196917Y316682D02*
X196952Y316777D01*
X196990Y316872D01*
X197032Y316965D01*
X197078Y317056D01*
X197127Y317146D01*
X197179Y317234D01*
X197234Y317319D01*
X197293Y317403D01*
X197355Y317484D01*
X197419Y317563D01*
X197487Y317639D01*
X197558Y317713D01*
X197631Y317784D01*
X197707Y317852D01*
X197785Y317918D01*
X197866Y317980D01*
X197949Y318040D01*
X198034Y318096D01*
X198121Y318149D01*
X198210Y318198D01*
X198301Y318244D01*
X198394Y318287D01*
X198488Y318326D01*
X198584Y318362D01*
X198681Y318394D01*
X198779Y318423D01*
X198878Y318447D01*
X198978Y318468D01*
X199078Y318485D01*
X199179Y318499D01*
X199281Y318508D01*
X199383Y318514D01*
X199485Y318516D01*
X199587Y318514D01*
X199689Y318508D01*
X199791Y318499D01*
X199892Y318485D01*
X199992Y318468D01*
X200092Y318447D01*
X200191Y318423D01*
X200289Y318394D01*
X200386Y318362D01*
X200482Y318326D01*
X200576Y318287D01*
X200669Y318244D01*
X200760Y318198D01*
X200849Y318149D01*
X200936Y318096D01*
X201021Y318040D01*
X201104Y317980D01*
X201185Y317918D01*
X201263Y317852D01*
X201339Y317784D01*
X201412Y317713D01*
X201483Y317639D01*
X201551Y317563D01*
X201615Y317484D01*
X201677Y317403D01*
X201736Y317319D01*
X201791Y317234D01*
X201843Y317146D01*
X201892Y317056D01*
X201938Y316965D01*
X201980Y316872D01*
X202018Y316777D01*
X202053Y316682D01*
X202052Y316681D02*
X202163Y316446D01*
X202269Y316209D01*
X202369Y315969D01*
X202463Y315727D01*
X202551Y315482D01*
X202633Y315236D01*
X202709Y314988D01*
X202780Y314737D01*
X202844Y314486D01*
X202903Y314233D01*
X202955Y313978D01*
X203001Y313722D01*
X203042Y313466D01*
X203076Y313208D01*
X203103Y312950D01*
X203125Y312691D01*
X203141Y312431D01*
X203150Y312172D01*
X203153Y311912D01*
X195816Y311912D02*
X195819Y311652D01*
X195828Y311393D01*
X195844Y311133D01*
X195866Y310874D01*
X195893Y310616D01*
X195927Y310358D01*
X195968Y310102D01*
X196014Y309846D01*
X196066Y309591D01*
X196125Y309338D01*
X196189Y309087D01*
X196260Y308836D01*
X196336Y308588D01*
X196418Y308342D01*
X196506Y308097D01*
X196600Y307855D01*
X196700Y307615D01*
X196806Y307378D01*
X196917Y307143D01*
X196917Y307142D02*
X196952Y307047D01*
X196990Y306952D01*
X197032Y306859D01*
X197078Y306768D01*
X197127Y306678D01*
X197179Y306590D01*
X197234Y306505D01*
X197293Y306421D01*
X197355Y306340D01*
X197419Y306261D01*
X197487Y306185D01*
X197558Y306111D01*
X197631Y306040D01*
X197707Y305972D01*
X197785Y305906D01*
X197866Y305844D01*
X197949Y305784D01*
X198034Y305728D01*
X198121Y305675D01*
X198210Y305626D01*
X198301Y305580D01*
X198394Y305537D01*
X198488Y305498D01*
X198584Y305462D01*
X198681Y305430D01*
X198779Y305401D01*
X198878Y305377D01*
X198978Y305356D01*
X199078Y305339D01*
X199179Y305325D01*
X199281Y305316D01*
X199383Y305310D01*
X199485Y305308D01*
X202053Y307142D02*
X202164Y307377D01*
X202270Y307615D01*
X202370Y307855D01*
X202464Y308097D01*
X202552Y308341D01*
X202634Y308588D01*
X202710Y308836D01*
X202781Y309086D01*
X202845Y309338D01*
X202904Y309591D01*
X202956Y309846D01*
X203002Y310101D01*
X203043Y310358D01*
X203077Y310616D01*
X203104Y310874D01*
X203126Y311133D01*
X203142Y311392D01*
X203151Y311652D01*
X203154Y311912D01*
X202053Y307142D02*
X202018Y307047D01*
X201980Y306952D01*
X201938Y306859D01*
X201892Y306768D01*
X201843Y306678D01*
X201791Y306590D01*
X201736Y306505D01*
X201677Y306421D01*
X201615Y306340D01*
X201551Y306261D01*
X201483Y306185D01*
X201412Y306111D01*
X201339Y306040D01*
X201263Y305972D01*
X201185Y305906D01*
X201104Y305844D01*
X201021Y305784D01*
X200936Y305728D01*
X200849Y305675D01*
X200760Y305626D01*
X200669Y305580D01*
X200576Y305537D01*
X200482Y305498D01*
X200386Y305462D01*
X200289Y305430D01*
X200191Y305401D01*
X200092Y305377D01*
X199992Y305356D01*
X199892Y305339D01*
X199791Y305325D01*
X199689Y305316D01*
X199587Y305310D01*
X199485Y305308D01*
X196549Y308243D02*
X202420Y315581D01*
X152908Y248666D02*
X152908Y235458D01*
X152908Y248666D02*
X156577Y248666D01*
X156697Y248664D01*
X156817Y248658D01*
X156937Y248648D01*
X157056Y248635D01*
X157175Y248617D01*
X157293Y248596D01*
X157410Y248570D01*
X157527Y248541D01*
X157642Y248508D01*
X157756Y248471D01*
X157869Y248431D01*
X157981Y248387D01*
X158091Y248339D01*
X158200Y248288D01*
X158307Y248233D01*
X158411Y248174D01*
X158514Y248113D01*
X158615Y248048D01*
X158714Y247979D01*
X158811Y247908D01*
X158905Y247833D01*
X158996Y247756D01*
X159085Y247675D01*
X159171Y247591D01*
X159255Y247505D01*
X159336Y247416D01*
X159413Y247325D01*
X159488Y247231D01*
X159559Y247134D01*
X159628Y247035D01*
X159693Y246934D01*
X159754Y246832D01*
X159813Y246727D01*
X159868Y246620D01*
X159919Y246511D01*
X159967Y246401D01*
X160011Y246289D01*
X160051Y246176D01*
X160088Y246062D01*
X160121Y245947D01*
X160150Y245830D01*
X160176Y245713D01*
X160197Y245595D01*
X160215Y245476D01*
X160228Y245357D01*
X160238Y245237D01*
X160244Y245117D01*
X160246Y244997D01*
X160244Y244877D01*
X160238Y244757D01*
X160228Y244637D01*
X160215Y244518D01*
X160197Y244399D01*
X160176Y244281D01*
X160150Y244164D01*
X160121Y244047D01*
X160088Y243932D01*
X160051Y243818D01*
X160011Y243705D01*
X159967Y243593D01*
X159919Y243483D01*
X159868Y243374D01*
X159813Y243267D01*
X159754Y243163D01*
X159693Y243060D01*
X159628Y242959D01*
X159559Y242860D01*
X159488Y242763D01*
X159413Y242669D01*
X159336Y242578D01*
X159255Y242489D01*
X159171Y242403D01*
X159085Y242319D01*
X158996Y242238D01*
X158905Y242161D01*
X158811Y242086D01*
X158714Y242015D01*
X158615Y241946D01*
X158514Y241881D01*
X158412Y241820D01*
X158307Y241761D01*
X158200Y241706D01*
X158091Y241655D01*
X157981Y241607D01*
X157869Y241563D01*
X157756Y241523D01*
X157642Y241486D01*
X157527Y241453D01*
X157410Y241424D01*
X157293Y241398D01*
X157175Y241377D01*
X157056Y241359D01*
X156937Y241346D01*
X156817Y241336D01*
X156697Y241330D01*
X156577Y241328D01*
X152908Y241328D01*
X157311Y241328D02*
X160246Y235458D01*
X165632Y245731D02*
X169300Y248666D01*
X169300Y235458D01*
X165632Y235458D02*
X172969Y235458D01*
X80377Y235458D02*
X80377Y248666D01*
X76708Y248666D02*
X84046Y248666D01*
X89262Y248666D02*
X89262Y235458D01*
X89262Y248666D02*
X92931Y248666D01*
X93051Y248664D01*
X93171Y248658D01*
X93291Y248648D01*
X93410Y248635D01*
X93529Y248617D01*
X93647Y248596D01*
X93764Y248570D01*
X93881Y248541D01*
X93996Y248508D01*
X94110Y248471D01*
X94223Y248431D01*
X94335Y248387D01*
X94445Y248339D01*
X94554Y248288D01*
X94661Y248233D01*
X94765Y248174D01*
X94868Y248113D01*
X94969Y248048D01*
X95068Y247979D01*
X95165Y247908D01*
X95259Y247833D01*
X95350Y247756D01*
X95439Y247675D01*
X95525Y247591D01*
X95609Y247505D01*
X95690Y247416D01*
X95767Y247325D01*
X95842Y247231D01*
X95913Y247134D01*
X95982Y247035D01*
X96047Y246934D01*
X96108Y246832D01*
X96167Y246727D01*
X96222Y246620D01*
X96273Y246511D01*
X96321Y246401D01*
X96365Y246289D01*
X96405Y246176D01*
X96442Y246062D01*
X96475Y245947D01*
X96504Y245830D01*
X96530Y245713D01*
X96551Y245595D01*
X96569Y245476D01*
X96582Y245357D01*
X96592Y245237D01*
X96598Y245117D01*
X96600Y244997D01*
X96598Y244877D01*
X96592Y244757D01*
X96582Y244637D01*
X96569Y244518D01*
X96551Y244399D01*
X96530Y244281D01*
X96504Y244164D01*
X96475Y244047D01*
X96442Y243932D01*
X96405Y243818D01*
X96365Y243705D01*
X96321Y243593D01*
X96273Y243483D01*
X96222Y243374D01*
X96167Y243267D01*
X96108Y243163D01*
X96047Y243060D01*
X95982Y242959D01*
X95913Y242860D01*
X95842Y242763D01*
X95767Y242669D01*
X95690Y242578D01*
X95609Y242489D01*
X95525Y242403D01*
X95439Y242319D01*
X95350Y242238D01*
X95259Y242161D01*
X95165Y242086D01*
X95068Y242015D01*
X94969Y241946D01*
X94868Y241881D01*
X94766Y241820D01*
X94661Y241761D01*
X94554Y241706D01*
X94445Y241655D01*
X94335Y241607D01*
X94223Y241563D01*
X94110Y241523D01*
X93996Y241486D01*
X93881Y241453D01*
X93764Y241424D01*
X93647Y241398D01*
X93529Y241377D01*
X93410Y241359D01*
X93291Y241346D01*
X93171Y241336D01*
X93051Y241330D01*
X92931Y241328D01*
X89262Y241328D01*
X101458Y238393D02*
X104393Y248666D01*
X101458Y238393D02*
X108795Y238393D01*
X106594Y241328D02*
X106594Y235458D01*
X48627Y425958D02*
X48627Y439166D01*
X44958Y439166D02*
X52296Y439166D01*
X57512Y439166D02*
X57512Y425958D01*
X57512Y439166D02*
X61181Y439166D01*
X61301Y439164D01*
X61421Y439158D01*
X61541Y439148D01*
X61660Y439135D01*
X61779Y439117D01*
X61897Y439096D01*
X62014Y439070D01*
X62131Y439041D01*
X62246Y439008D01*
X62360Y438971D01*
X62473Y438931D01*
X62585Y438887D01*
X62695Y438839D01*
X62804Y438788D01*
X62911Y438733D01*
X63015Y438674D01*
X63118Y438613D01*
X63219Y438548D01*
X63318Y438479D01*
X63415Y438408D01*
X63509Y438333D01*
X63600Y438256D01*
X63689Y438175D01*
X63775Y438091D01*
X63859Y438005D01*
X63940Y437916D01*
X64017Y437825D01*
X64092Y437731D01*
X64163Y437634D01*
X64232Y437535D01*
X64297Y437434D01*
X64358Y437332D01*
X64417Y437227D01*
X64472Y437120D01*
X64523Y437011D01*
X64571Y436901D01*
X64615Y436789D01*
X64655Y436676D01*
X64692Y436562D01*
X64725Y436447D01*
X64754Y436330D01*
X64780Y436213D01*
X64801Y436095D01*
X64819Y435976D01*
X64832Y435857D01*
X64842Y435737D01*
X64848Y435617D01*
X64850Y435497D01*
X64848Y435377D01*
X64842Y435257D01*
X64832Y435137D01*
X64819Y435018D01*
X64801Y434899D01*
X64780Y434781D01*
X64754Y434664D01*
X64725Y434547D01*
X64692Y434432D01*
X64655Y434318D01*
X64615Y434205D01*
X64571Y434093D01*
X64523Y433983D01*
X64472Y433874D01*
X64417Y433767D01*
X64358Y433663D01*
X64297Y433560D01*
X64232Y433459D01*
X64163Y433360D01*
X64092Y433263D01*
X64017Y433169D01*
X63940Y433078D01*
X63859Y432989D01*
X63775Y432903D01*
X63689Y432819D01*
X63600Y432738D01*
X63509Y432661D01*
X63415Y432586D01*
X63318Y432515D01*
X63219Y432446D01*
X63118Y432381D01*
X63016Y432320D01*
X62911Y432261D01*
X62804Y432206D01*
X62695Y432155D01*
X62585Y432107D01*
X62473Y432063D01*
X62360Y432023D01*
X62246Y431986D01*
X62131Y431953D01*
X62014Y431924D01*
X61897Y431898D01*
X61779Y431877D01*
X61660Y431859D01*
X61541Y431846D01*
X61421Y431836D01*
X61301Y431830D01*
X61181Y431828D01*
X57512Y431828D01*
X69708Y425958D02*
X73377Y425958D01*
X73497Y425960D01*
X73617Y425966D01*
X73737Y425976D01*
X73856Y425989D01*
X73975Y426007D01*
X74093Y426028D01*
X74210Y426054D01*
X74327Y426083D01*
X74442Y426116D01*
X74556Y426153D01*
X74669Y426193D01*
X74781Y426237D01*
X74891Y426285D01*
X75000Y426336D01*
X75107Y426391D01*
X75212Y426450D01*
X75314Y426511D01*
X75415Y426576D01*
X75514Y426645D01*
X75611Y426716D01*
X75705Y426791D01*
X75796Y426868D01*
X75885Y426949D01*
X75971Y427033D01*
X76055Y427119D01*
X76136Y427208D01*
X76213Y427299D01*
X76288Y427393D01*
X76359Y427490D01*
X76428Y427589D01*
X76493Y427690D01*
X76554Y427793D01*
X76613Y427897D01*
X76668Y428004D01*
X76719Y428113D01*
X76767Y428223D01*
X76811Y428335D01*
X76851Y428448D01*
X76888Y428562D01*
X76921Y428677D01*
X76950Y428794D01*
X76976Y428911D01*
X76997Y429029D01*
X77015Y429148D01*
X77028Y429267D01*
X77038Y429387D01*
X77044Y429507D01*
X77046Y429627D01*
X77044Y429747D01*
X77038Y429867D01*
X77028Y429987D01*
X77015Y430106D01*
X76997Y430225D01*
X76976Y430343D01*
X76950Y430460D01*
X76921Y430577D01*
X76888Y430692D01*
X76851Y430806D01*
X76811Y430919D01*
X76767Y431031D01*
X76719Y431141D01*
X76668Y431250D01*
X76613Y431357D01*
X76554Y431462D01*
X76493Y431564D01*
X76428Y431665D01*
X76359Y431764D01*
X76288Y431861D01*
X76213Y431955D01*
X76136Y432046D01*
X76055Y432135D01*
X75971Y432221D01*
X75885Y432305D01*
X75796Y432386D01*
X75705Y432463D01*
X75611Y432538D01*
X75514Y432609D01*
X75415Y432678D01*
X75314Y432743D01*
X75211Y432804D01*
X75107Y432863D01*
X75000Y432918D01*
X74891Y432969D01*
X74781Y433017D01*
X74669Y433061D01*
X74556Y433101D01*
X74442Y433138D01*
X74327Y433171D01*
X74210Y433200D01*
X74093Y433226D01*
X73975Y433247D01*
X73856Y433265D01*
X73737Y433278D01*
X73617Y433288D01*
X73497Y433294D01*
X73377Y433296D01*
X74110Y439166D02*
X69708Y439166D01*
X74110Y439166D02*
X74217Y439164D01*
X74324Y439158D01*
X74431Y439148D01*
X74537Y439135D01*
X74643Y439117D01*
X74748Y439096D01*
X74852Y439071D01*
X74956Y439042D01*
X75058Y439009D01*
X75158Y438972D01*
X75258Y438932D01*
X75356Y438888D01*
X75452Y438841D01*
X75546Y438790D01*
X75639Y438736D01*
X75729Y438679D01*
X75818Y438618D01*
X75904Y438554D01*
X75987Y438487D01*
X76069Y438417D01*
X76147Y438344D01*
X76223Y438268D01*
X76296Y438190D01*
X76366Y438108D01*
X76433Y438025D01*
X76497Y437939D01*
X76558Y437850D01*
X76615Y437760D01*
X76669Y437667D01*
X76720Y437573D01*
X76767Y437477D01*
X76811Y437379D01*
X76851Y437279D01*
X76888Y437179D01*
X76921Y437077D01*
X76950Y436973D01*
X76975Y436869D01*
X76996Y436764D01*
X77014Y436658D01*
X77027Y436552D01*
X77037Y436445D01*
X77043Y436338D01*
X77045Y436231D01*
X77043Y436124D01*
X77037Y436017D01*
X77027Y435910D01*
X77014Y435804D01*
X76996Y435698D01*
X76975Y435593D01*
X76950Y435489D01*
X76921Y435385D01*
X76888Y435283D01*
X76851Y435183D01*
X76811Y435083D01*
X76767Y434985D01*
X76720Y434889D01*
X76669Y434795D01*
X76615Y434702D01*
X76558Y434612D01*
X76497Y434523D01*
X76433Y434437D01*
X76366Y434354D01*
X76296Y434272D01*
X76223Y434194D01*
X76147Y434118D01*
X76069Y434045D01*
X75987Y433975D01*
X75904Y433908D01*
X75818Y433844D01*
X75729Y433783D01*
X75639Y433726D01*
X75546Y433672D01*
X75452Y433621D01*
X75356Y433574D01*
X75258Y433530D01*
X75158Y433490D01*
X75058Y433453D01*
X74956Y433420D01*
X74852Y433391D01*
X74748Y433366D01*
X74643Y433345D01*
X74537Y433327D01*
X74431Y433314D01*
X74324Y433304D01*
X74217Y433298D01*
X74110Y433296D01*
X71175Y433296D01*
X83058Y445008D02*
X83058Y458216D01*
X86727Y458216D01*
X86847Y458214D01*
X86967Y458208D01*
X87087Y458198D01*
X87206Y458185D01*
X87325Y458167D01*
X87443Y458146D01*
X87560Y458120D01*
X87677Y458091D01*
X87792Y458058D01*
X87906Y458021D01*
X88019Y457981D01*
X88131Y457937D01*
X88241Y457889D01*
X88350Y457838D01*
X88457Y457783D01*
X88561Y457724D01*
X88664Y457663D01*
X88765Y457598D01*
X88864Y457529D01*
X88961Y457458D01*
X89055Y457383D01*
X89146Y457306D01*
X89235Y457225D01*
X89321Y457141D01*
X89405Y457055D01*
X89486Y456966D01*
X89563Y456875D01*
X89638Y456781D01*
X89709Y456684D01*
X89778Y456585D01*
X89843Y456484D01*
X89904Y456382D01*
X89963Y456277D01*
X90018Y456170D01*
X90069Y456061D01*
X90117Y455951D01*
X90161Y455839D01*
X90201Y455726D01*
X90238Y455612D01*
X90271Y455497D01*
X90300Y455380D01*
X90326Y455263D01*
X90347Y455145D01*
X90365Y455026D01*
X90378Y454907D01*
X90388Y454787D01*
X90394Y454667D01*
X90396Y454547D01*
X90394Y454427D01*
X90388Y454307D01*
X90378Y454187D01*
X90365Y454068D01*
X90347Y453949D01*
X90326Y453831D01*
X90300Y453714D01*
X90271Y453597D01*
X90238Y453482D01*
X90201Y453368D01*
X90161Y453255D01*
X90117Y453143D01*
X90069Y453033D01*
X90018Y452924D01*
X89963Y452817D01*
X89904Y452713D01*
X89843Y452610D01*
X89778Y452509D01*
X89709Y452410D01*
X89638Y452313D01*
X89563Y452219D01*
X89486Y452128D01*
X89405Y452039D01*
X89321Y451953D01*
X89235Y451869D01*
X89146Y451788D01*
X89055Y451711D01*
X88961Y451636D01*
X88864Y451565D01*
X88765Y451496D01*
X88664Y451431D01*
X88562Y451370D01*
X88457Y451311D01*
X88350Y451256D01*
X88241Y451205D01*
X88131Y451157D01*
X88019Y451113D01*
X87906Y451073D01*
X87792Y451036D01*
X87677Y451003D01*
X87560Y450974D01*
X87443Y450948D01*
X87325Y450927D01*
X87206Y450909D01*
X87087Y450896D01*
X86967Y450886D01*
X86847Y450880D01*
X86727Y450878D01*
X83058Y450878D01*
X87461Y450878D02*
X90396Y445008D01*
X95782Y445008D02*
X99450Y445008D01*
X99570Y445010D01*
X99690Y445016D01*
X99810Y445026D01*
X99929Y445039D01*
X100048Y445057D01*
X100166Y445078D01*
X100283Y445104D01*
X100400Y445133D01*
X100515Y445166D01*
X100629Y445203D01*
X100742Y445243D01*
X100854Y445287D01*
X100964Y445335D01*
X101073Y445386D01*
X101180Y445441D01*
X101285Y445500D01*
X101387Y445561D01*
X101488Y445626D01*
X101587Y445695D01*
X101684Y445766D01*
X101778Y445841D01*
X101869Y445918D01*
X101958Y445999D01*
X102044Y446083D01*
X102128Y446169D01*
X102209Y446258D01*
X102286Y446349D01*
X102361Y446443D01*
X102432Y446540D01*
X102501Y446639D01*
X102566Y446740D01*
X102627Y446843D01*
X102686Y446947D01*
X102741Y447054D01*
X102792Y447163D01*
X102840Y447273D01*
X102884Y447385D01*
X102924Y447498D01*
X102961Y447612D01*
X102994Y447727D01*
X103023Y447844D01*
X103049Y447961D01*
X103070Y448079D01*
X103088Y448198D01*
X103101Y448317D01*
X103111Y448437D01*
X103117Y448557D01*
X103119Y448677D01*
X103117Y448797D01*
X103111Y448917D01*
X103101Y449037D01*
X103088Y449156D01*
X103070Y449275D01*
X103049Y449393D01*
X103023Y449510D01*
X102994Y449627D01*
X102961Y449742D01*
X102924Y449856D01*
X102884Y449969D01*
X102840Y450081D01*
X102792Y450191D01*
X102741Y450300D01*
X102686Y450407D01*
X102627Y450512D01*
X102566Y450614D01*
X102501Y450715D01*
X102432Y450814D01*
X102361Y450911D01*
X102286Y451005D01*
X102209Y451096D01*
X102128Y451185D01*
X102044Y451271D01*
X101958Y451355D01*
X101869Y451436D01*
X101778Y451513D01*
X101684Y451588D01*
X101587Y451659D01*
X101488Y451728D01*
X101387Y451793D01*
X101284Y451854D01*
X101180Y451913D01*
X101073Y451968D01*
X100964Y452019D01*
X100854Y452067D01*
X100742Y452111D01*
X100629Y452151D01*
X100515Y452188D01*
X100400Y452221D01*
X100283Y452250D01*
X100166Y452276D01*
X100048Y452297D01*
X99929Y452315D01*
X99810Y452328D01*
X99690Y452338D01*
X99570Y452344D01*
X99450Y452346D01*
X100184Y458216D02*
X95782Y458216D01*
X100184Y458216D02*
X100291Y458214D01*
X100398Y458208D01*
X100505Y458198D01*
X100611Y458185D01*
X100717Y458167D01*
X100822Y458146D01*
X100926Y458121D01*
X101030Y458092D01*
X101132Y458059D01*
X101232Y458022D01*
X101332Y457982D01*
X101430Y457938D01*
X101526Y457891D01*
X101620Y457840D01*
X101713Y457786D01*
X101803Y457729D01*
X101892Y457668D01*
X101978Y457604D01*
X102061Y457537D01*
X102143Y457467D01*
X102221Y457394D01*
X102297Y457318D01*
X102370Y457240D01*
X102440Y457158D01*
X102507Y457075D01*
X102571Y456989D01*
X102632Y456900D01*
X102689Y456810D01*
X102743Y456717D01*
X102794Y456623D01*
X102841Y456527D01*
X102885Y456429D01*
X102925Y456329D01*
X102962Y456229D01*
X102995Y456127D01*
X103024Y456023D01*
X103049Y455919D01*
X103070Y455814D01*
X103088Y455708D01*
X103101Y455602D01*
X103111Y455495D01*
X103117Y455388D01*
X103119Y455281D01*
X103117Y455174D01*
X103111Y455067D01*
X103101Y454960D01*
X103088Y454854D01*
X103070Y454748D01*
X103049Y454643D01*
X103024Y454539D01*
X102995Y454435D01*
X102962Y454333D01*
X102925Y454233D01*
X102885Y454133D01*
X102841Y454035D01*
X102794Y453939D01*
X102743Y453845D01*
X102689Y453752D01*
X102632Y453662D01*
X102571Y453573D01*
X102507Y453487D01*
X102440Y453404D01*
X102370Y453322D01*
X102297Y453244D01*
X102221Y453168D01*
X102143Y453095D01*
X102061Y453025D01*
X101978Y452958D01*
X101892Y452894D01*
X101803Y452833D01*
X101713Y452776D01*
X101620Y452722D01*
X101526Y452671D01*
X101430Y452624D01*
X101332Y452580D01*
X101232Y452540D01*
X101132Y452503D01*
X101030Y452470D01*
X100926Y452441D01*
X100822Y452416D01*
X100717Y452395D01*
X100611Y452377D01*
X100505Y452364D01*
X100398Y452354D01*
X100291Y452348D01*
X100184Y452346D01*
X97249Y452346D01*
X137104Y355092D02*
X137104Y343408D01*
X133858Y355092D02*
X140349Y355092D01*
X145076Y355092D02*
X145076Y343408D01*
X145076Y355092D02*
X148322Y355092D01*
X148435Y355090D01*
X148548Y355084D01*
X148661Y355074D01*
X148774Y355060D01*
X148886Y355043D01*
X148997Y355021D01*
X149107Y354996D01*
X149217Y354966D01*
X149325Y354933D01*
X149432Y354896D01*
X149538Y354856D01*
X149642Y354811D01*
X149745Y354763D01*
X149846Y354712D01*
X149945Y354657D01*
X150042Y354599D01*
X150137Y354537D01*
X150230Y354472D01*
X150320Y354404D01*
X150408Y354333D01*
X150494Y354258D01*
X150577Y354181D01*
X150657Y354101D01*
X150734Y354018D01*
X150809Y353932D01*
X150880Y353844D01*
X150948Y353754D01*
X151013Y353661D01*
X151075Y353566D01*
X151133Y353469D01*
X151188Y353370D01*
X151239Y353269D01*
X151287Y353166D01*
X151332Y353062D01*
X151372Y352956D01*
X151409Y352849D01*
X151442Y352741D01*
X151472Y352631D01*
X151497Y352521D01*
X151519Y352410D01*
X151536Y352298D01*
X151550Y352185D01*
X151560Y352072D01*
X151566Y351959D01*
X151568Y351846D01*
X151566Y351733D01*
X151560Y351620D01*
X151550Y351507D01*
X151536Y351394D01*
X151519Y351282D01*
X151497Y351171D01*
X151472Y351061D01*
X151442Y350951D01*
X151409Y350843D01*
X151372Y350736D01*
X151332Y350630D01*
X151287Y350526D01*
X151239Y350423D01*
X151188Y350322D01*
X151133Y350223D01*
X151075Y350126D01*
X151013Y350031D01*
X150948Y349938D01*
X150880Y349848D01*
X150809Y349760D01*
X150734Y349674D01*
X150657Y349591D01*
X150577Y349511D01*
X150494Y349434D01*
X150408Y349359D01*
X150320Y349288D01*
X150230Y349220D01*
X150137Y349155D01*
X150042Y349093D01*
X149945Y349035D01*
X149846Y348980D01*
X149745Y348929D01*
X149642Y348881D01*
X149538Y348836D01*
X149432Y348796D01*
X149325Y348759D01*
X149217Y348726D01*
X149107Y348696D01*
X148997Y348671D01*
X148886Y348649D01*
X148774Y348632D01*
X148661Y348618D01*
X148548Y348608D01*
X148435Y348602D01*
X148322Y348600D01*
X148322Y348601D02*
X145076Y348601D01*
X155956Y352496D02*
X159201Y355092D01*
X159201Y343408D01*
X155956Y343408D02*
X162447Y343408D01*
X137104Y381508D02*
X137104Y393192D01*
X140349Y393192D02*
X133858Y393192D01*
X145076Y393192D02*
X145076Y381508D01*
X145076Y393192D02*
X148322Y393192D01*
X148435Y393190D01*
X148548Y393184D01*
X148661Y393174D01*
X148774Y393160D01*
X148886Y393143D01*
X148997Y393121D01*
X149107Y393096D01*
X149217Y393066D01*
X149325Y393033D01*
X149432Y392996D01*
X149538Y392956D01*
X149642Y392911D01*
X149745Y392863D01*
X149846Y392812D01*
X149945Y392757D01*
X150042Y392699D01*
X150137Y392637D01*
X150230Y392572D01*
X150320Y392504D01*
X150408Y392433D01*
X150494Y392358D01*
X150577Y392281D01*
X150657Y392201D01*
X150734Y392118D01*
X150809Y392032D01*
X150880Y391944D01*
X150948Y391854D01*
X151013Y391761D01*
X151075Y391666D01*
X151133Y391569D01*
X151188Y391470D01*
X151239Y391369D01*
X151287Y391266D01*
X151332Y391162D01*
X151372Y391056D01*
X151409Y390949D01*
X151442Y390841D01*
X151472Y390731D01*
X151497Y390621D01*
X151519Y390510D01*
X151536Y390398D01*
X151550Y390285D01*
X151560Y390172D01*
X151566Y390059D01*
X151568Y389946D01*
X151566Y389833D01*
X151560Y389720D01*
X151550Y389607D01*
X151536Y389494D01*
X151519Y389382D01*
X151497Y389271D01*
X151472Y389161D01*
X151442Y389051D01*
X151409Y388943D01*
X151372Y388836D01*
X151332Y388730D01*
X151287Y388626D01*
X151239Y388523D01*
X151188Y388422D01*
X151133Y388323D01*
X151075Y388226D01*
X151013Y388131D01*
X150948Y388038D01*
X150880Y387948D01*
X150809Y387860D01*
X150734Y387774D01*
X150657Y387691D01*
X150577Y387611D01*
X150494Y387534D01*
X150408Y387459D01*
X150320Y387388D01*
X150230Y387320D01*
X150137Y387255D01*
X150042Y387193D01*
X149945Y387135D01*
X149846Y387080D01*
X149745Y387029D01*
X149642Y386981D01*
X149538Y386936D01*
X149432Y386896D01*
X149325Y386859D01*
X149217Y386826D01*
X149107Y386796D01*
X148997Y386771D01*
X148886Y386749D01*
X148774Y386732D01*
X148661Y386718D01*
X148548Y386708D01*
X148435Y386702D01*
X148322Y386700D01*
X148322Y386701D02*
X145076Y386701D01*
X159526Y393192D02*
X159633Y393190D01*
X159739Y393184D01*
X159845Y393174D01*
X159951Y393161D01*
X160057Y393143D01*
X160161Y393122D01*
X160265Y393097D01*
X160368Y393068D01*
X160469Y393036D01*
X160569Y392999D01*
X160668Y392959D01*
X160766Y392916D01*
X160862Y392869D01*
X160956Y392818D01*
X161048Y392764D01*
X161138Y392707D01*
X161226Y392647D01*
X161311Y392583D01*
X161394Y392516D01*
X161475Y392446D01*
X161553Y392374D01*
X161629Y392298D01*
X161701Y392220D01*
X161771Y392139D01*
X161838Y392056D01*
X161902Y391971D01*
X161962Y391883D01*
X162019Y391793D01*
X162073Y391701D01*
X162124Y391607D01*
X162171Y391511D01*
X162214Y391413D01*
X162254Y391314D01*
X162291Y391214D01*
X162323Y391113D01*
X162352Y391010D01*
X162377Y390906D01*
X162398Y390802D01*
X162416Y390696D01*
X162429Y390590D01*
X162439Y390484D01*
X162445Y390378D01*
X162447Y390271D01*
X159526Y393192D02*
X159405Y393190D01*
X159284Y393184D01*
X159164Y393174D01*
X159043Y393161D01*
X158924Y393143D01*
X158804Y393122D01*
X158686Y393097D01*
X158569Y393068D01*
X158452Y393035D01*
X158337Y392999D01*
X158223Y392958D01*
X158110Y392915D01*
X157998Y392867D01*
X157889Y392816D01*
X157781Y392761D01*
X157674Y392703D01*
X157570Y392642D01*
X157468Y392577D01*
X157368Y392509D01*
X157270Y392438D01*
X157174Y392364D01*
X157081Y392287D01*
X156991Y392206D01*
X156903Y392123D01*
X156818Y392037D01*
X156735Y391948D01*
X156656Y391857D01*
X156579Y391763D01*
X156506Y391667D01*
X156436Y391569D01*
X156369Y391468D01*
X156305Y391365D01*
X156245Y391260D01*
X156188Y391153D01*
X156134Y391045D01*
X156084Y390935D01*
X156038Y390823D01*
X155995Y390710D01*
X155956Y390595D01*
X161474Y387999D02*
X161553Y388076D01*
X161629Y388157D01*
X161702Y388240D01*
X161772Y388325D01*
X161839Y388413D01*
X161903Y388503D01*
X161963Y388595D01*
X162020Y388690D01*
X162074Y388786D01*
X162125Y388884D01*
X162172Y388984D01*
X162216Y389086D01*
X162256Y389189D01*
X162292Y389293D01*
X162324Y389399D01*
X162353Y389505D01*
X162378Y389613D01*
X162400Y389721D01*
X162417Y389831D01*
X162431Y389940D01*
X162440Y390050D01*
X162446Y390161D01*
X162448Y390271D01*
X161473Y387999D02*
X155956Y381508D01*
X162447Y381508D01*
X175204Y438658D02*
X175204Y450342D01*
X178449Y450342D02*
X171958Y450342D01*
X185189Y438658D02*
X187786Y438658D01*
X185189Y438658D02*
X185090Y438660D01*
X184990Y438666D01*
X184891Y438675D01*
X184793Y438688D01*
X184695Y438705D01*
X184597Y438726D01*
X184501Y438751D01*
X184406Y438779D01*
X184312Y438811D01*
X184219Y438846D01*
X184127Y438885D01*
X184037Y438928D01*
X183949Y438973D01*
X183862Y439023D01*
X183778Y439075D01*
X183695Y439131D01*
X183615Y439189D01*
X183537Y439251D01*
X183462Y439316D01*
X183389Y439384D01*
X183319Y439454D01*
X183251Y439527D01*
X183186Y439602D01*
X183124Y439680D01*
X183066Y439760D01*
X183010Y439843D01*
X182958Y439927D01*
X182908Y440014D01*
X182863Y440102D01*
X182820Y440192D01*
X182781Y440284D01*
X182746Y440377D01*
X182714Y440471D01*
X182686Y440566D01*
X182661Y440662D01*
X182640Y440760D01*
X182623Y440858D01*
X182610Y440956D01*
X182601Y441055D01*
X182595Y441155D01*
X182593Y441254D01*
X182593Y447746D01*
X182595Y447845D01*
X182601Y447945D01*
X182610Y448044D01*
X182623Y448142D01*
X182640Y448240D01*
X182661Y448338D01*
X182686Y448434D01*
X182714Y448529D01*
X182746Y448623D01*
X182781Y448716D01*
X182820Y448808D01*
X182863Y448898D01*
X182908Y448986D01*
X182958Y449073D01*
X183010Y449157D01*
X183066Y449240D01*
X183124Y449320D01*
X183186Y449398D01*
X183251Y449473D01*
X183319Y449546D01*
X183389Y449616D01*
X183462Y449684D01*
X183537Y449749D01*
X183615Y449811D01*
X183695Y449869D01*
X183778Y449925D01*
X183862Y449977D01*
X183949Y450027D01*
X184037Y450072D01*
X184127Y450115D01*
X184219Y450154D01*
X184311Y450189D01*
X184406Y450221D01*
X184501Y450249D01*
X184597Y450274D01*
X184695Y450295D01*
X184793Y450312D01*
X184891Y450325D01*
X184990Y450334D01*
X185090Y450340D01*
X185189Y450342D01*
X187786Y450342D01*
X192151Y438658D02*
X195397Y438658D01*
X195510Y438660D01*
X195623Y438666D01*
X195736Y438676D01*
X195849Y438690D01*
X195961Y438707D01*
X196072Y438729D01*
X196182Y438754D01*
X196292Y438784D01*
X196400Y438817D01*
X196507Y438854D01*
X196613Y438894D01*
X196717Y438939D01*
X196820Y438987D01*
X196921Y439038D01*
X197020Y439093D01*
X197117Y439151D01*
X197212Y439213D01*
X197305Y439278D01*
X197395Y439346D01*
X197483Y439417D01*
X197569Y439492D01*
X197652Y439569D01*
X197732Y439649D01*
X197809Y439732D01*
X197884Y439818D01*
X197955Y439906D01*
X198023Y439996D01*
X198088Y440089D01*
X198150Y440184D01*
X198208Y440281D01*
X198263Y440380D01*
X198314Y440481D01*
X198362Y440584D01*
X198407Y440688D01*
X198447Y440794D01*
X198484Y440901D01*
X198517Y441009D01*
X198547Y441119D01*
X198572Y441229D01*
X198594Y441340D01*
X198611Y441452D01*
X198625Y441565D01*
X198635Y441678D01*
X198641Y441791D01*
X198643Y441904D01*
X198641Y442017D01*
X198635Y442130D01*
X198625Y442243D01*
X198611Y442356D01*
X198594Y442468D01*
X198572Y442579D01*
X198547Y442689D01*
X198517Y442799D01*
X198484Y442907D01*
X198447Y443014D01*
X198407Y443120D01*
X198362Y443224D01*
X198314Y443327D01*
X198263Y443428D01*
X198208Y443527D01*
X198150Y443624D01*
X198088Y443719D01*
X198023Y443812D01*
X197955Y443902D01*
X197884Y443990D01*
X197809Y444076D01*
X197732Y444159D01*
X197652Y444239D01*
X197569Y444316D01*
X197483Y444391D01*
X197395Y444462D01*
X197305Y444530D01*
X197212Y444595D01*
X197117Y444657D01*
X197020Y444715D01*
X196921Y444770D01*
X196820Y444821D01*
X196717Y444869D01*
X196613Y444914D01*
X196507Y444954D01*
X196400Y444991D01*
X196292Y445024D01*
X196182Y445054D01*
X196072Y445079D01*
X195961Y445101D01*
X195849Y445118D01*
X195736Y445132D01*
X195623Y445142D01*
X195510Y445148D01*
X195397Y445150D01*
X196046Y450342D02*
X192151Y450342D01*
X196046Y450342D02*
X196147Y450340D01*
X196247Y450334D01*
X196347Y450324D01*
X196447Y450311D01*
X196546Y450293D01*
X196645Y450272D01*
X196742Y450247D01*
X196839Y450218D01*
X196934Y450185D01*
X197028Y450149D01*
X197120Y450109D01*
X197211Y450066D01*
X197300Y450019D01*
X197387Y449969D01*
X197473Y449915D01*
X197556Y449858D01*
X197636Y449798D01*
X197715Y449735D01*
X197791Y449668D01*
X197864Y449599D01*
X197934Y449527D01*
X198002Y449453D01*
X198067Y449376D01*
X198128Y449296D01*
X198187Y449214D01*
X198242Y449130D01*
X198294Y449044D01*
X198343Y448956D01*
X198388Y448866D01*
X198430Y448774D01*
X198468Y448681D01*
X198502Y448586D01*
X198533Y448491D01*
X198560Y448394D01*
X198583Y448296D01*
X198603Y448197D01*
X198618Y448097D01*
X198630Y447997D01*
X198638Y447897D01*
X198642Y447796D01*
X198642Y447696D01*
X198638Y447595D01*
X198630Y447495D01*
X198618Y447395D01*
X198603Y447295D01*
X198583Y447196D01*
X198560Y447098D01*
X198533Y447001D01*
X198502Y446906D01*
X198468Y446811D01*
X198430Y446718D01*
X198388Y446626D01*
X198343Y446536D01*
X198294Y446448D01*
X198242Y446362D01*
X198187Y446278D01*
X198128Y446196D01*
X198067Y446116D01*
X198002Y446039D01*
X197934Y445965D01*
X197864Y445893D01*
X197791Y445824D01*
X197715Y445757D01*
X197636Y445694D01*
X197556Y445634D01*
X197473Y445577D01*
X197387Y445523D01*
X197300Y445473D01*
X197211Y445426D01*
X197120Y445383D01*
X197028Y445343D01*
X196934Y445307D01*
X196839Y445274D01*
X196742Y445245D01*
X196645Y445220D01*
X196546Y445199D01*
X196447Y445181D01*
X196347Y445168D01*
X196247Y445158D01*
X196147Y445152D01*
X196046Y445150D01*
X196046Y445149D02*
X193449Y445149D01*
X203581Y438658D02*
X206826Y438658D01*
X206939Y438660D01*
X207052Y438666D01*
X207165Y438676D01*
X207278Y438690D01*
X207390Y438707D01*
X207501Y438729D01*
X207611Y438754D01*
X207721Y438784D01*
X207829Y438817D01*
X207936Y438854D01*
X208042Y438894D01*
X208146Y438939D01*
X208249Y438987D01*
X208350Y439038D01*
X208449Y439093D01*
X208546Y439151D01*
X208641Y439213D01*
X208734Y439278D01*
X208824Y439346D01*
X208912Y439417D01*
X208998Y439492D01*
X209081Y439569D01*
X209161Y439649D01*
X209238Y439732D01*
X209313Y439818D01*
X209384Y439906D01*
X209452Y439996D01*
X209517Y440089D01*
X209579Y440184D01*
X209637Y440281D01*
X209692Y440380D01*
X209743Y440481D01*
X209791Y440584D01*
X209836Y440688D01*
X209876Y440794D01*
X209913Y440901D01*
X209946Y441009D01*
X209976Y441119D01*
X210001Y441229D01*
X210023Y441340D01*
X210040Y441452D01*
X210054Y441565D01*
X210064Y441678D01*
X210070Y441791D01*
X210072Y441904D01*
X210070Y442017D01*
X210064Y442130D01*
X210054Y442243D01*
X210040Y442356D01*
X210023Y442468D01*
X210001Y442579D01*
X209976Y442689D01*
X209946Y442799D01*
X209913Y442907D01*
X209876Y443014D01*
X209836Y443120D01*
X209791Y443224D01*
X209743Y443327D01*
X209692Y443428D01*
X209637Y443527D01*
X209579Y443624D01*
X209517Y443719D01*
X209452Y443812D01*
X209384Y443902D01*
X209313Y443990D01*
X209238Y444076D01*
X209161Y444159D01*
X209081Y444239D01*
X208998Y444316D01*
X208912Y444391D01*
X208824Y444462D01*
X208734Y444530D01*
X208641Y444595D01*
X208546Y444657D01*
X208449Y444715D01*
X208350Y444770D01*
X208249Y444821D01*
X208146Y444869D01*
X208042Y444914D01*
X207936Y444954D01*
X207829Y444991D01*
X207721Y445024D01*
X207611Y445054D01*
X207501Y445079D01*
X207390Y445101D01*
X207278Y445118D01*
X207165Y445132D01*
X207052Y445142D01*
X206939Y445148D01*
X206826Y445150D01*
X207476Y450342D02*
X203581Y450342D01*
X207476Y450342D02*
X207577Y450340D01*
X207677Y450334D01*
X207777Y450324D01*
X207877Y450311D01*
X207976Y450293D01*
X208075Y450272D01*
X208172Y450247D01*
X208269Y450218D01*
X208364Y450185D01*
X208458Y450149D01*
X208550Y450109D01*
X208641Y450066D01*
X208730Y450019D01*
X208817Y449969D01*
X208903Y449915D01*
X208986Y449858D01*
X209066Y449798D01*
X209145Y449735D01*
X209221Y449668D01*
X209294Y449599D01*
X209364Y449527D01*
X209432Y449453D01*
X209497Y449376D01*
X209558Y449296D01*
X209617Y449214D01*
X209672Y449130D01*
X209724Y449044D01*
X209773Y448956D01*
X209818Y448866D01*
X209860Y448774D01*
X209898Y448681D01*
X209932Y448586D01*
X209963Y448491D01*
X209990Y448394D01*
X210013Y448296D01*
X210033Y448197D01*
X210048Y448097D01*
X210060Y447997D01*
X210068Y447897D01*
X210072Y447796D01*
X210072Y447696D01*
X210068Y447595D01*
X210060Y447495D01*
X210048Y447395D01*
X210033Y447295D01*
X210013Y447196D01*
X209990Y447098D01*
X209963Y447001D01*
X209932Y446906D01*
X209898Y446811D01*
X209860Y446718D01*
X209818Y446626D01*
X209773Y446536D01*
X209724Y446448D01*
X209672Y446362D01*
X209617Y446278D01*
X209558Y446196D01*
X209497Y446116D01*
X209432Y446039D01*
X209364Y445965D01*
X209294Y445893D01*
X209221Y445824D01*
X209145Y445757D01*
X209066Y445694D01*
X208986Y445634D01*
X208903Y445577D01*
X208817Y445523D01*
X208730Y445473D01*
X208641Y445426D01*
X208550Y445383D01*
X208458Y445343D01*
X208364Y445307D01*
X208269Y445274D01*
X208172Y445245D01*
X208075Y445220D01*
X207976Y445199D01*
X207877Y445181D01*
X207777Y445168D01*
X207677Y445158D01*
X207577Y445152D01*
X207476Y445150D01*
X207476Y445149D02*
X204879Y445149D01*
X214362Y438658D02*
X222151Y450342D01*
X214362Y450342D02*
X222151Y438658D01*
X226554Y443202D02*
X234343Y443202D01*
X242965Y450342D02*
X243072Y450340D01*
X243178Y450334D01*
X243284Y450324D01*
X243390Y450311D01*
X243496Y450293D01*
X243600Y450272D01*
X243704Y450247D01*
X243807Y450218D01*
X243908Y450186D01*
X244008Y450149D01*
X244107Y450109D01*
X244205Y450066D01*
X244301Y450019D01*
X244395Y449968D01*
X244487Y449914D01*
X244577Y449857D01*
X244665Y449797D01*
X244750Y449733D01*
X244833Y449666D01*
X244914Y449596D01*
X244992Y449524D01*
X245068Y449448D01*
X245140Y449370D01*
X245210Y449289D01*
X245277Y449206D01*
X245341Y449121D01*
X245401Y449033D01*
X245458Y448943D01*
X245512Y448851D01*
X245563Y448757D01*
X245610Y448661D01*
X245653Y448563D01*
X245693Y448464D01*
X245730Y448364D01*
X245762Y448263D01*
X245791Y448160D01*
X245816Y448056D01*
X245837Y447952D01*
X245855Y447846D01*
X245868Y447740D01*
X245878Y447634D01*
X245884Y447528D01*
X245886Y447421D01*
X242965Y450342D02*
X242844Y450340D01*
X242723Y450334D01*
X242603Y450324D01*
X242482Y450311D01*
X242363Y450293D01*
X242243Y450272D01*
X242125Y450247D01*
X242008Y450218D01*
X241891Y450185D01*
X241776Y450149D01*
X241662Y450108D01*
X241549Y450065D01*
X241437Y450017D01*
X241328Y449966D01*
X241220Y449911D01*
X241113Y449853D01*
X241009Y449792D01*
X240907Y449727D01*
X240807Y449659D01*
X240709Y449588D01*
X240613Y449514D01*
X240520Y449437D01*
X240430Y449356D01*
X240342Y449273D01*
X240257Y449187D01*
X240174Y449098D01*
X240095Y449007D01*
X240018Y448913D01*
X239945Y448817D01*
X239875Y448719D01*
X239808Y448618D01*
X239744Y448515D01*
X239684Y448410D01*
X239627Y448303D01*
X239573Y448195D01*
X239523Y448085D01*
X239477Y447973D01*
X239434Y447860D01*
X239395Y447745D01*
X244913Y445149D02*
X244992Y445226D01*
X245068Y445307D01*
X245141Y445390D01*
X245211Y445475D01*
X245278Y445563D01*
X245342Y445653D01*
X245402Y445745D01*
X245459Y445840D01*
X245513Y445936D01*
X245564Y446034D01*
X245611Y446134D01*
X245655Y446236D01*
X245695Y446339D01*
X245731Y446443D01*
X245763Y446549D01*
X245792Y446655D01*
X245817Y446763D01*
X245839Y446871D01*
X245856Y446981D01*
X245870Y447090D01*
X245879Y447200D01*
X245885Y447311D01*
X245887Y447421D01*
X244912Y445149D02*
X239395Y438658D01*
X245886Y438658D01*
X250938Y443202D02*
X258727Y443202D01*
X267349Y450342D02*
X267456Y450340D01*
X267562Y450334D01*
X267668Y450324D01*
X267774Y450311D01*
X267880Y450293D01*
X267984Y450272D01*
X268088Y450247D01*
X268191Y450218D01*
X268292Y450186D01*
X268392Y450149D01*
X268491Y450109D01*
X268589Y450066D01*
X268685Y450019D01*
X268779Y449968D01*
X268871Y449914D01*
X268961Y449857D01*
X269049Y449797D01*
X269134Y449733D01*
X269217Y449666D01*
X269298Y449596D01*
X269376Y449524D01*
X269452Y449448D01*
X269524Y449370D01*
X269594Y449289D01*
X269661Y449206D01*
X269725Y449121D01*
X269785Y449033D01*
X269842Y448943D01*
X269896Y448851D01*
X269947Y448757D01*
X269994Y448661D01*
X270037Y448563D01*
X270077Y448464D01*
X270114Y448364D01*
X270146Y448263D01*
X270175Y448160D01*
X270200Y448056D01*
X270221Y447952D01*
X270239Y447846D01*
X270252Y447740D01*
X270262Y447634D01*
X270268Y447528D01*
X270270Y447421D01*
X267349Y450342D02*
X267228Y450340D01*
X267107Y450334D01*
X266987Y450324D01*
X266866Y450311D01*
X266747Y450293D01*
X266627Y450272D01*
X266509Y450247D01*
X266392Y450218D01*
X266275Y450185D01*
X266160Y450149D01*
X266046Y450108D01*
X265933Y450065D01*
X265821Y450017D01*
X265712Y449966D01*
X265604Y449911D01*
X265497Y449853D01*
X265393Y449792D01*
X265291Y449727D01*
X265191Y449659D01*
X265093Y449588D01*
X264997Y449514D01*
X264904Y449437D01*
X264814Y449356D01*
X264726Y449273D01*
X264641Y449187D01*
X264558Y449098D01*
X264479Y449007D01*
X264402Y448913D01*
X264329Y448817D01*
X264259Y448719D01*
X264192Y448618D01*
X264128Y448515D01*
X264068Y448410D01*
X264011Y448303D01*
X263957Y448195D01*
X263907Y448085D01*
X263861Y447973D01*
X263818Y447860D01*
X263779Y447745D01*
X269296Y445149D02*
X269375Y445226D01*
X269451Y445307D01*
X269524Y445390D01*
X269594Y445475D01*
X269661Y445563D01*
X269725Y445653D01*
X269785Y445745D01*
X269842Y445840D01*
X269896Y445936D01*
X269947Y446034D01*
X269994Y446134D01*
X270038Y446236D01*
X270078Y446339D01*
X270114Y446443D01*
X270146Y446549D01*
X270175Y446655D01*
X270200Y446763D01*
X270222Y446871D01*
X270239Y446981D01*
X270253Y447090D01*
X270262Y447200D01*
X270268Y447311D01*
X270270Y447421D01*
X269296Y445149D02*
X263779Y438658D01*
X270270Y438658D01*
X275209Y444500D02*
X275212Y444730D01*
X275220Y444960D01*
X275234Y445189D01*
X275253Y445418D01*
X275278Y445647D01*
X275308Y445874D01*
X275343Y446102D01*
X275384Y446328D01*
X275430Y446553D01*
X275482Y446777D01*
X275539Y446999D01*
X275601Y447221D01*
X275669Y447440D01*
X275742Y447658D01*
X275820Y447875D01*
X275903Y448089D01*
X275991Y448301D01*
X276084Y448511D01*
X276183Y448719D01*
X276182Y448719D02*
X276215Y448809D01*
X276251Y448898D01*
X276291Y448986D01*
X276335Y449071D01*
X276382Y449155D01*
X276432Y449237D01*
X276486Y449317D01*
X276542Y449394D01*
X276602Y449470D01*
X276665Y449543D01*
X276730Y449613D01*
X276799Y449681D01*
X276870Y449745D01*
X276943Y449807D01*
X277019Y449866D01*
X277097Y449922D01*
X277178Y449975D01*
X277260Y450024D01*
X277344Y450070D01*
X277431Y450113D01*
X277518Y450152D01*
X277608Y450188D01*
X277698Y450220D01*
X277790Y450248D01*
X277883Y450273D01*
X277977Y450294D01*
X278071Y450311D01*
X278166Y450325D01*
X278262Y450334D01*
X278358Y450340D01*
X278454Y450342D01*
X278550Y450340D01*
X278646Y450334D01*
X278742Y450325D01*
X278837Y450311D01*
X278931Y450294D01*
X279025Y450273D01*
X279118Y450248D01*
X279210Y450220D01*
X279300Y450188D01*
X279390Y450152D01*
X279477Y450113D01*
X279564Y450070D01*
X279648Y450024D01*
X279730Y449975D01*
X279811Y449922D01*
X279889Y449866D01*
X279965Y449807D01*
X280038Y449745D01*
X280109Y449681D01*
X280178Y449613D01*
X280243Y449543D01*
X280306Y449470D01*
X280366Y449394D01*
X280422Y449317D01*
X280476Y449237D01*
X280526Y449155D01*
X280573Y449071D01*
X280617Y448986D01*
X280657Y448898D01*
X280693Y448809D01*
X280726Y448719D01*
X280825Y448512D01*
X280918Y448302D01*
X281006Y448089D01*
X281089Y447875D01*
X281167Y447659D01*
X281240Y447441D01*
X281308Y447221D01*
X281370Y447000D01*
X281427Y446777D01*
X281479Y446553D01*
X281525Y446328D01*
X281566Y446102D01*
X281601Y445875D01*
X281631Y445647D01*
X281656Y445418D01*
X281675Y445189D01*
X281689Y444960D01*
X281697Y444730D01*
X281700Y444500D01*
X275209Y444500D02*
X275212Y444270D01*
X275220Y444040D01*
X275234Y443811D01*
X275253Y443582D01*
X275278Y443353D01*
X275308Y443125D01*
X275343Y442898D01*
X275384Y442672D01*
X275430Y442447D01*
X275482Y442223D01*
X275539Y442000D01*
X275601Y441779D01*
X275669Y441559D01*
X275742Y441341D01*
X275820Y441125D01*
X275903Y440911D01*
X275991Y440699D01*
X276084Y440488D01*
X276183Y440281D01*
X276182Y440281D02*
X276215Y440191D01*
X276251Y440102D01*
X276292Y440014D01*
X276335Y439929D01*
X276382Y439845D01*
X276432Y439763D01*
X276486Y439683D01*
X276542Y439606D01*
X276602Y439530D01*
X276665Y439457D01*
X276730Y439387D01*
X276799Y439319D01*
X276870Y439255D01*
X276943Y439193D01*
X277019Y439134D01*
X277097Y439078D01*
X277178Y439025D01*
X277260Y438976D01*
X277344Y438930D01*
X277431Y438887D01*
X277518Y438848D01*
X277608Y438812D01*
X277698Y438780D01*
X277790Y438752D01*
X277883Y438727D01*
X277977Y438706D01*
X278071Y438689D01*
X278166Y438675D01*
X278262Y438666D01*
X278358Y438660D01*
X278454Y438658D01*
X280726Y440281D02*
X280825Y440488D01*
X280918Y440699D01*
X281006Y440911D01*
X281089Y441125D01*
X281167Y441341D01*
X281240Y441559D01*
X281308Y441779D01*
X281370Y442000D01*
X281427Y442223D01*
X281479Y442447D01*
X281525Y442672D01*
X281566Y442898D01*
X281601Y443125D01*
X281631Y443353D01*
X281656Y443582D01*
X281675Y443811D01*
X281689Y444040D01*
X281697Y444270D01*
X281700Y444500D01*
X280726Y440281D02*
X280693Y440191D01*
X280657Y440102D01*
X280617Y440014D01*
X280573Y439929D01*
X280526Y439845D01*
X280476Y439763D01*
X280422Y439683D01*
X280366Y439606D01*
X280306Y439530D01*
X280243Y439457D01*
X280178Y439387D01*
X280109Y439319D01*
X280038Y439255D01*
X279965Y439193D01*
X279889Y439134D01*
X279811Y439078D01*
X279730Y439025D01*
X279648Y438976D01*
X279564Y438930D01*
X279477Y438887D01*
X279390Y438848D01*
X279300Y438812D01*
X279210Y438780D01*
X279118Y438752D01*
X279025Y438727D01*
X278931Y438706D01*
X278837Y438689D01*
X278742Y438675D01*
X278646Y438666D01*
X278550Y438660D01*
X278454Y438658D01*
X275858Y441254D02*
X281051Y447746D01*
X286639Y438658D02*
X289884Y438658D01*
X289997Y438660D01*
X290110Y438666D01*
X290223Y438676D01*
X290336Y438690D01*
X290448Y438707D01*
X290559Y438729D01*
X290669Y438754D01*
X290779Y438784D01*
X290887Y438817D01*
X290994Y438854D01*
X291100Y438894D01*
X291204Y438939D01*
X291307Y438987D01*
X291408Y439038D01*
X291507Y439093D01*
X291604Y439151D01*
X291699Y439213D01*
X291792Y439278D01*
X291882Y439346D01*
X291970Y439417D01*
X292056Y439492D01*
X292139Y439569D01*
X292219Y439649D01*
X292296Y439732D01*
X292371Y439818D01*
X292442Y439906D01*
X292510Y439996D01*
X292575Y440089D01*
X292637Y440184D01*
X292695Y440281D01*
X292750Y440380D01*
X292801Y440481D01*
X292849Y440584D01*
X292894Y440688D01*
X292934Y440794D01*
X292971Y440901D01*
X293004Y441009D01*
X293034Y441119D01*
X293059Y441229D01*
X293081Y441340D01*
X293098Y441452D01*
X293112Y441565D01*
X293122Y441678D01*
X293128Y441791D01*
X293130Y441904D01*
X293128Y442017D01*
X293122Y442130D01*
X293112Y442243D01*
X293098Y442356D01*
X293081Y442468D01*
X293059Y442579D01*
X293034Y442689D01*
X293004Y442799D01*
X292971Y442907D01*
X292934Y443014D01*
X292894Y443120D01*
X292849Y443224D01*
X292801Y443327D01*
X292750Y443428D01*
X292695Y443527D01*
X292637Y443624D01*
X292575Y443719D01*
X292510Y443812D01*
X292442Y443902D01*
X292371Y443990D01*
X292296Y444076D01*
X292219Y444159D01*
X292139Y444239D01*
X292056Y444316D01*
X291970Y444391D01*
X291882Y444462D01*
X291792Y444530D01*
X291699Y444595D01*
X291604Y444657D01*
X291507Y444715D01*
X291408Y444770D01*
X291307Y444821D01*
X291204Y444869D01*
X291100Y444914D01*
X290994Y444954D01*
X290887Y444991D01*
X290779Y445024D01*
X290669Y445054D01*
X290559Y445079D01*
X290448Y445101D01*
X290336Y445118D01*
X290223Y445132D01*
X290110Y445142D01*
X289997Y445148D01*
X289884Y445150D01*
X290533Y450342D02*
X286639Y450342D01*
X290533Y450342D02*
X290634Y450340D01*
X290734Y450334D01*
X290834Y450324D01*
X290934Y450311D01*
X291033Y450293D01*
X291132Y450272D01*
X291229Y450247D01*
X291326Y450218D01*
X291421Y450185D01*
X291515Y450149D01*
X291607Y450109D01*
X291698Y450066D01*
X291787Y450019D01*
X291874Y449969D01*
X291960Y449915D01*
X292043Y449858D01*
X292123Y449798D01*
X292202Y449735D01*
X292278Y449668D01*
X292351Y449599D01*
X292421Y449527D01*
X292489Y449453D01*
X292554Y449376D01*
X292615Y449296D01*
X292674Y449214D01*
X292729Y449130D01*
X292781Y449044D01*
X292830Y448956D01*
X292875Y448866D01*
X292917Y448774D01*
X292955Y448681D01*
X292989Y448586D01*
X293020Y448491D01*
X293047Y448394D01*
X293070Y448296D01*
X293090Y448197D01*
X293105Y448097D01*
X293117Y447997D01*
X293125Y447897D01*
X293129Y447796D01*
X293129Y447696D01*
X293125Y447595D01*
X293117Y447495D01*
X293105Y447395D01*
X293090Y447295D01*
X293070Y447196D01*
X293047Y447098D01*
X293020Y447001D01*
X292989Y446906D01*
X292955Y446811D01*
X292917Y446718D01*
X292875Y446626D01*
X292830Y446536D01*
X292781Y446448D01*
X292729Y446362D01*
X292674Y446278D01*
X292615Y446196D01*
X292554Y446116D01*
X292489Y446039D01*
X292421Y445965D01*
X292351Y445893D01*
X292278Y445824D01*
X292202Y445757D01*
X292123Y445694D01*
X292043Y445634D01*
X291960Y445577D01*
X291874Y445523D01*
X291787Y445473D01*
X291698Y445426D01*
X291607Y445383D01*
X291515Y445343D01*
X291421Y445307D01*
X291326Y445274D01*
X291229Y445245D01*
X291132Y445220D01*
X291033Y445199D01*
X290934Y445181D01*
X290834Y445168D01*
X290734Y445158D01*
X290634Y445152D01*
X290533Y445150D01*
X290533Y445149D02*
X287937Y445149D01*
X298472Y438658D02*
X303665Y438658D01*
X298472Y438658D02*
X298472Y450342D01*
X303665Y450342D01*
X302367Y445149D02*
X298472Y445149D01*
X19558Y323342D02*
X19558Y314904D01*
X19560Y314791D01*
X19566Y314678D01*
X19576Y314565D01*
X19590Y314452D01*
X19607Y314340D01*
X19629Y314229D01*
X19654Y314119D01*
X19684Y314009D01*
X19717Y313901D01*
X19754Y313794D01*
X19794Y313688D01*
X19839Y313584D01*
X19887Y313481D01*
X19938Y313380D01*
X19993Y313281D01*
X20051Y313184D01*
X20113Y313089D01*
X20178Y312996D01*
X20246Y312906D01*
X20317Y312818D01*
X20392Y312732D01*
X20469Y312649D01*
X20549Y312569D01*
X20632Y312492D01*
X20718Y312417D01*
X20806Y312346D01*
X20896Y312278D01*
X20989Y312213D01*
X21084Y312151D01*
X21181Y312093D01*
X21280Y312038D01*
X21381Y311987D01*
X21484Y311939D01*
X21588Y311894D01*
X21694Y311854D01*
X21801Y311817D01*
X21909Y311784D01*
X22019Y311754D01*
X22129Y311729D01*
X22240Y311707D01*
X22352Y311690D01*
X22465Y311676D01*
X22578Y311666D01*
X22691Y311660D01*
X22804Y311658D01*
X22917Y311660D01*
X23030Y311666D01*
X23143Y311676D01*
X23256Y311690D01*
X23368Y311707D01*
X23479Y311729D01*
X23589Y311754D01*
X23699Y311784D01*
X23807Y311817D01*
X23914Y311854D01*
X24020Y311894D01*
X24124Y311939D01*
X24227Y311987D01*
X24328Y312038D01*
X24427Y312093D01*
X24524Y312151D01*
X24619Y312213D01*
X24712Y312278D01*
X24802Y312346D01*
X24890Y312417D01*
X24976Y312492D01*
X25059Y312569D01*
X25139Y312649D01*
X25216Y312732D01*
X25291Y312818D01*
X25362Y312906D01*
X25430Y312996D01*
X25495Y313089D01*
X25557Y313184D01*
X25615Y313281D01*
X25670Y313380D01*
X25721Y313481D01*
X25769Y313584D01*
X25814Y313688D01*
X25854Y313794D01*
X25891Y313901D01*
X25924Y314009D01*
X25954Y314119D01*
X25979Y314229D01*
X26001Y314340D01*
X26018Y314452D01*
X26032Y314565D01*
X26042Y314678D01*
X26048Y314791D01*
X26050Y314904D01*
X26049Y314904D02*
X26049Y323342D01*
X37479Y314254D02*
X37477Y314155D01*
X37471Y314055D01*
X37462Y313956D01*
X37449Y313858D01*
X37432Y313760D01*
X37411Y313662D01*
X37386Y313566D01*
X37358Y313471D01*
X37326Y313377D01*
X37291Y313284D01*
X37252Y313192D01*
X37209Y313102D01*
X37164Y313014D01*
X37114Y312927D01*
X37062Y312843D01*
X37006Y312760D01*
X36948Y312680D01*
X36886Y312602D01*
X36821Y312527D01*
X36753Y312454D01*
X36683Y312384D01*
X36610Y312316D01*
X36535Y312251D01*
X36457Y312189D01*
X36377Y312131D01*
X36294Y312075D01*
X36210Y312023D01*
X36123Y311973D01*
X36035Y311928D01*
X35945Y311885D01*
X35853Y311846D01*
X35760Y311811D01*
X35666Y311779D01*
X35571Y311751D01*
X35475Y311726D01*
X35377Y311705D01*
X35279Y311688D01*
X35181Y311675D01*
X35082Y311666D01*
X34982Y311660D01*
X34883Y311658D01*
X34739Y311660D01*
X34594Y311666D01*
X34450Y311675D01*
X34307Y311688D01*
X34163Y311705D01*
X34020Y311726D01*
X33878Y311751D01*
X33737Y311779D01*
X33596Y311811D01*
X33456Y311847D01*
X33317Y311886D01*
X33179Y311929D01*
X33043Y311976D01*
X32907Y312026D01*
X32773Y312080D01*
X32641Y312137D01*
X32510Y312198D01*
X32381Y312262D01*
X32253Y312330D01*
X32127Y312400D01*
X32003Y312475D01*
X31882Y312552D01*
X31762Y312633D01*
X31644Y312716D01*
X31529Y312803D01*
X31416Y312893D01*
X31305Y312986D01*
X31197Y313081D01*
X31091Y313180D01*
X30988Y313281D01*
X31313Y320746D02*
X31315Y320845D01*
X31321Y320945D01*
X31330Y321044D01*
X31343Y321142D01*
X31360Y321240D01*
X31381Y321338D01*
X31406Y321434D01*
X31434Y321529D01*
X31466Y321623D01*
X31501Y321716D01*
X31540Y321808D01*
X31583Y321898D01*
X31628Y321986D01*
X31678Y322073D01*
X31730Y322157D01*
X31786Y322240D01*
X31844Y322320D01*
X31906Y322398D01*
X31971Y322473D01*
X32039Y322546D01*
X32109Y322616D01*
X32182Y322684D01*
X32257Y322749D01*
X32335Y322811D01*
X32415Y322869D01*
X32498Y322925D01*
X32582Y322977D01*
X32669Y323027D01*
X32757Y323072D01*
X32847Y323115D01*
X32939Y323154D01*
X33032Y323189D01*
X33126Y323221D01*
X33221Y323249D01*
X33318Y323274D01*
X33415Y323295D01*
X33513Y323312D01*
X33611Y323325D01*
X33710Y323334D01*
X33810Y323340D01*
X33909Y323342D01*
X34045Y323340D01*
X34181Y323334D01*
X34317Y323325D01*
X34453Y323312D01*
X34588Y323294D01*
X34722Y323274D01*
X34856Y323249D01*
X34990Y323221D01*
X35122Y323188D01*
X35253Y323153D01*
X35384Y323113D01*
X35513Y323070D01*
X35641Y323024D01*
X35767Y322973D01*
X35893Y322920D01*
X36016Y322862D01*
X36138Y322802D01*
X36258Y322738D01*
X36377Y322670D01*
X36493Y322600D01*
X36607Y322526D01*
X36720Y322449D01*
X36830Y322368D01*
X32610Y318474D02*
X32524Y318527D01*
X32440Y318584D01*
X32358Y318643D01*
X32278Y318706D01*
X32201Y318772D01*
X32126Y318840D01*
X32054Y318912D01*
X31985Y318986D01*
X31919Y319063D01*
X31856Y319142D01*
X31796Y319224D01*
X31739Y319308D01*
X31685Y319394D01*
X31635Y319482D01*
X31588Y319572D01*
X31544Y319663D01*
X31505Y319757D01*
X31468Y319851D01*
X31436Y319947D01*
X31407Y320045D01*
X31382Y320143D01*
X31361Y320242D01*
X31343Y320342D01*
X31330Y320442D01*
X31320Y320543D01*
X31314Y320645D01*
X31312Y320746D01*
X36181Y316526D02*
X36267Y316473D01*
X36351Y316416D01*
X36433Y316357D01*
X36513Y316294D01*
X36590Y316228D01*
X36665Y316160D01*
X36737Y316088D01*
X36806Y316014D01*
X36872Y315937D01*
X36935Y315858D01*
X36995Y315776D01*
X37052Y315692D01*
X37106Y315606D01*
X37156Y315518D01*
X37203Y315428D01*
X37247Y315337D01*
X37286Y315243D01*
X37323Y315149D01*
X37355Y315053D01*
X37384Y314955D01*
X37409Y314857D01*
X37430Y314758D01*
X37448Y314658D01*
X37461Y314558D01*
X37471Y314457D01*
X37477Y314355D01*
X37479Y314254D01*
X36181Y316526D02*
X32611Y318474D01*
X42587Y318149D02*
X45833Y318149D01*
X45833Y318150D02*
X45946Y318148D01*
X46059Y318142D01*
X46172Y318132D01*
X46285Y318118D01*
X46397Y318101D01*
X46508Y318079D01*
X46618Y318054D01*
X46728Y318024D01*
X46836Y317991D01*
X46943Y317954D01*
X47049Y317914D01*
X47153Y317869D01*
X47256Y317821D01*
X47357Y317770D01*
X47456Y317715D01*
X47553Y317657D01*
X47648Y317595D01*
X47741Y317530D01*
X47831Y317462D01*
X47919Y317391D01*
X48005Y317316D01*
X48088Y317239D01*
X48168Y317159D01*
X48245Y317076D01*
X48320Y316990D01*
X48391Y316902D01*
X48459Y316812D01*
X48524Y316719D01*
X48586Y316624D01*
X48644Y316527D01*
X48699Y316428D01*
X48750Y316327D01*
X48798Y316224D01*
X48843Y316120D01*
X48883Y316014D01*
X48920Y315907D01*
X48953Y315799D01*
X48983Y315689D01*
X49008Y315579D01*
X49030Y315468D01*
X49047Y315356D01*
X49061Y315243D01*
X49071Y315130D01*
X49077Y315017D01*
X49079Y314904D01*
X49077Y314791D01*
X49071Y314678D01*
X49061Y314565D01*
X49047Y314452D01*
X49030Y314340D01*
X49008Y314229D01*
X48983Y314119D01*
X48953Y314009D01*
X48920Y313901D01*
X48883Y313794D01*
X48843Y313688D01*
X48798Y313584D01*
X48750Y313481D01*
X48699Y313380D01*
X48644Y313281D01*
X48586Y313184D01*
X48524Y313089D01*
X48459Y312996D01*
X48391Y312906D01*
X48320Y312818D01*
X48245Y312732D01*
X48168Y312649D01*
X48088Y312569D01*
X48005Y312492D01*
X47919Y312417D01*
X47831Y312346D01*
X47741Y312278D01*
X47648Y312213D01*
X47553Y312151D01*
X47456Y312093D01*
X47357Y312038D01*
X47256Y311987D01*
X47153Y311939D01*
X47049Y311894D01*
X46943Y311854D01*
X46836Y311817D01*
X46728Y311784D01*
X46618Y311754D01*
X46508Y311729D01*
X46397Y311707D01*
X46285Y311690D01*
X46172Y311676D01*
X46059Y311666D01*
X45946Y311660D01*
X45833Y311658D01*
X42587Y311658D01*
X42587Y323342D01*
X45833Y323342D01*
X45934Y323340D01*
X46034Y323334D01*
X46134Y323324D01*
X46234Y323311D01*
X46333Y323293D01*
X46432Y323272D01*
X46529Y323247D01*
X46626Y323218D01*
X46721Y323185D01*
X46815Y323149D01*
X46907Y323109D01*
X46998Y323066D01*
X47087Y323019D01*
X47174Y322969D01*
X47260Y322915D01*
X47343Y322858D01*
X47423Y322798D01*
X47502Y322735D01*
X47578Y322668D01*
X47651Y322599D01*
X47721Y322527D01*
X47789Y322453D01*
X47854Y322376D01*
X47915Y322296D01*
X47974Y322214D01*
X48029Y322130D01*
X48081Y322044D01*
X48130Y321956D01*
X48175Y321866D01*
X48217Y321774D01*
X48255Y321681D01*
X48289Y321586D01*
X48320Y321491D01*
X48347Y321394D01*
X48370Y321296D01*
X48390Y321197D01*
X48405Y321097D01*
X48417Y320997D01*
X48425Y320897D01*
X48429Y320796D01*
X48429Y320696D01*
X48425Y320595D01*
X48417Y320495D01*
X48405Y320395D01*
X48390Y320295D01*
X48370Y320196D01*
X48347Y320098D01*
X48320Y320001D01*
X48289Y319906D01*
X48255Y319811D01*
X48217Y319718D01*
X48175Y319626D01*
X48130Y319536D01*
X48081Y319448D01*
X48029Y319362D01*
X47974Y319278D01*
X47915Y319196D01*
X47854Y319116D01*
X47789Y319039D01*
X47721Y318965D01*
X47651Y318893D01*
X47578Y318824D01*
X47502Y318757D01*
X47423Y318694D01*
X47343Y318634D01*
X47260Y318577D01*
X47174Y318523D01*
X47087Y318473D01*
X46998Y318426D01*
X46907Y318383D01*
X46815Y318343D01*
X46721Y318307D01*
X46626Y318274D01*
X46529Y318245D01*
X46432Y318220D01*
X46333Y318199D01*
X46234Y318181D01*
X46134Y318168D01*
X46034Y318158D01*
X45934Y318152D01*
X45833Y318150D01*
D11*
X245686Y186556D02*
X252163Y193826D01*
X252324Y194003D01*
X252490Y194175D01*
X252659Y194344D01*
X252833Y194508D01*
X253011Y194668D01*
X253192Y194823D01*
X253377Y194974D01*
X253566Y195120D01*
X253759Y195262D01*
X253955Y195399D01*
X254154Y195531D01*
X254356Y195658D01*
X254562Y195780D01*
X254770Y195897D01*
X254981Y196009D01*
X255195Y196115D01*
X255412Y196217D01*
X255630Y196313D01*
X255852Y196403D01*
X256075Y196489D01*
X256300Y196568D01*
X256527Y196642D01*
X256756Y196711D01*
X256987Y196774D01*
X257219Y196831D01*
X257452Y196882D01*
X257687Y196928D01*
X257922Y196968D01*
X258159Y197002D01*
X258396Y197031D01*
X258634Y197053D01*
X258873Y197070D01*
X259111Y197081D01*
X259350Y197086D01*
X259589Y197085D01*
X259828Y197078D01*
X260067Y197065D01*
X260305Y197047D01*
X260543Y197023D01*
X260780Y196992D01*
X261016Y196956D01*
X261251Y196915D01*
X261485Y196867D01*
X261718Y196814D01*
X261950Y196755D01*
X262180Y196690D01*
X262409Y196620D01*
X262635Y196544D01*
X262860Y196463D01*
X263083Y196376D01*
X263303Y196284D01*
X263521Y196186D01*
X263737Y196083D01*
X263950Y195975D01*
X264160Y195862D01*
X264368Y195743D01*
X264572Y195619D01*
X264774Y195491D01*
X264972Y195357D01*
X265167Y195219D01*
X265358Y195076D01*
X265546Y194928D01*
X265730Y194776D01*
X265910Y194619D01*
X266087Y194458D01*
X266259Y194292D01*
X266428Y194123D01*
X266592Y193949D01*
X266752Y193771D01*
X266907Y193590D01*
X267058Y193405D01*
X267204Y193216D01*
X267346Y193023D01*
X267483Y192827D01*
X267615Y192628D01*
X267742Y192426D01*
X267864Y192220D01*
X267981Y192012D01*
X268093Y191801D01*
X268199Y191587D01*
X268301Y191370D01*
X268397Y191152D01*
X268487Y190930D01*
X268573Y190707D01*
X268652Y190482D01*
X268726Y190255D01*
X268795Y190026D01*
X268858Y189795D01*
X268915Y189563D01*
X268966Y189330D01*
X269012Y189095D01*
X269052Y188860D01*
X269086Y188623D01*
X269115Y188386D01*
X269137Y188148D01*
X269154Y187910D01*
X269165Y187671D01*
X269170Y187432D01*
X269169Y187193D01*
X269162Y186954D01*
X269149Y186715D01*
X269131Y186477D01*
X269107Y186239D01*
X269076Y186002D01*
X269040Y185766D01*
X268999Y185531D01*
X268951Y185297D01*
X268898Y185064D01*
X268839Y184832D01*
X268774Y184602D01*
X268704Y184373D01*
X268628Y184147D01*
X268547Y183922D01*
X268460Y183699D01*
X268368Y183479D01*
X268270Y183261D01*
X268167Y183045D01*
X268059Y182832D01*
X267946Y182622D01*
X267827Y182414D01*
X267703Y182210D01*
X267575Y182009D01*
X267441Y181810D01*
X267303Y181615D01*
X267160Y181424D01*
X267012Y181236D01*
X266860Y181052D01*
X266703Y180872D01*
X266703Y180871D02*
X260226Y173602D01*
X234055Y196919D01*
X240532Y204189D01*
X240532Y204188D02*
X240660Y204329D01*
X240792Y204465D01*
X240926Y204599D01*
X241064Y204730D01*
X241205Y204857D01*
X241349Y204980D01*
X241496Y205100D01*
X241646Y205216D01*
X241798Y205329D01*
X241953Y205438D01*
X242111Y205543D01*
X242272Y205644D01*
X242435Y205742D01*
X242600Y205835D01*
X242767Y205924D01*
X242937Y206009D01*
X243108Y206090D01*
X243282Y206167D01*
X243457Y206240D01*
X243634Y206308D01*
X243812Y206372D01*
X243993Y206431D01*
X244174Y206486D01*
X244357Y206537D01*
X244541Y206583D01*
X244726Y206625D01*
X244912Y206662D01*
X245099Y206695D01*
X245286Y206723D01*
X245474Y206747D01*
X245663Y206766D01*
X245852Y206780D01*
X246042Y206790D01*
X246231Y206795D01*
X246421Y206796D01*
X246611Y206792D01*
X246800Y206783D01*
X246989Y206770D01*
X247178Y206752D01*
X247367Y206729D01*
X247554Y206702D01*
X247741Y206670D01*
X247928Y206634D01*
X248113Y206593D01*
X248297Y206548D01*
X248480Y206499D01*
X248662Y206444D01*
X248842Y206386D01*
X249021Y206323D01*
X249199Y206256D01*
X249374Y206184D01*
X249548Y206108D01*
X249720Y206028D01*
X249890Y205944D01*
X250058Y205856D01*
X250224Y205763D01*
X250387Y205667D01*
X250548Y205567D01*
X250706Y205462D01*
X250862Y205354D01*
X251016Y205243D01*
X251166Y205127D01*
X251314Y205008D01*
X251458Y204885D01*
X251600Y204759D01*
X251738Y204629D01*
X251874Y204497D01*
X252006Y204360D01*
X252134Y204221D01*
X252260Y204079D01*
X252381Y203933D01*
X252500Y203785D01*
X252614Y203633D01*
X252725Y203480D01*
X252832Y203323D01*
X252935Y203164D01*
X253034Y203002D01*
X253130Y202838D01*
X253221Y202672D01*
X253308Y202503D01*
X253391Y202333D01*
X253470Y202160D01*
X253545Y201986D01*
X253615Y201810D01*
X253681Y201632D01*
X253743Y201453D01*
X253800Y201272D01*
X253853Y201090D01*
X253902Y200906D01*
X253946Y200722D01*
X253985Y200536D01*
X254020Y200350D01*
X254051Y200163D01*
X254077Y199975D01*
X254098Y199786D01*
X254115Y199597D01*
X254127Y199408D01*
X254134Y199218D01*
X254137Y199029D01*
X254135Y198839D01*
X254129Y198650D01*
X254118Y198460D01*
X254102Y198271D01*
X254082Y198083D01*
X254057Y197894D01*
X254028Y197707D01*
X253994Y197520D01*
X253955Y197335D01*
X253912Y197150D01*
X253865Y196966D01*
X253813Y196784D01*
X253757Y196603D01*
X253696Y196423D01*
X253631Y196245D01*
X253561Y196068D01*
X253488Y195894D01*
X253410Y195721D01*
X253328Y195550D01*
X253241Y195381D01*
X253151Y195214D01*
X253057Y195049D01*
X252958Y194887D01*
X252856Y194727D01*
X252750Y194570D01*
X252640Y194416D01*
X252526Y194264D01*
X252409Y194115D01*
X252288Y193969D01*
X252164Y193826D01*
X278648Y194278D02*
X285125Y201548D01*
X285282Y201728D01*
X285434Y201912D01*
X285582Y202100D01*
X285725Y202291D01*
X285863Y202486D01*
X285997Y202685D01*
X286125Y202886D01*
X286249Y203090D01*
X286368Y203298D01*
X286481Y203508D01*
X286589Y203721D01*
X286692Y203937D01*
X286790Y204155D01*
X286882Y204375D01*
X286969Y204598D01*
X287050Y204823D01*
X287126Y205049D01*
X287196Y205278D01*
X287261Y205508D01*
X287320Y205740D01*
X287373Y205973D01*
X287421Y206207D01*
X287462Y206442D01*
X287498Y206678D01*
X287529Y206915D01*
X287553Y207153D01*
X287571Y207391D01*
X287584Y207630D01*
X287591Y207869D01*
X287592Y208108D01*
X287587Y208347D01*
X287576Y208586D01*
X287559Y208824D01*
X287537Y209062D01*
X287508Y209299D01*
X287474Y209536D01*
X287434Y209771D01*
X287388Y210006D01*
X287337Y210239D01*
X287280Y210471D01*
X287217Y210702D01*
X287148Y210931D01*
X287074Y211158D01*
X286995Y211383D01*
X286909Y211606D01*
X286819Y211828D01*
X286723Y212046D01*
X286621Y212263D01*
X286515Y212477D01*
X286403Y212688D01*
X286286Y212896D01*
X286164Y213102D01*
X286037Y213304D01*
X285905Y213503D01*
X285768Y213699D01*
X285626Y213892D01*
X285480Y214081D01*
X285329Y214266D01*
X285174Y214447D01*
X285014Y214625D01*
X284850Y214799D01*
X284681Y214968D01*
X284509Y215134D01*
X284332Y215295D01*
X284152Y215452D01*
X283968Y215604D01*
X283780Y215752D01*
X283589Y215895D01*
X283394Y216033D01*
X283196Y216167D01*
X282994Y216295D01*
X282790Y216419D01*
X282582Y216538D01*
X282372Y216651D01*
X282159Y216759D01*
X281943Y216862D01*
X281725Y216960D01*
X281505Y217052D01*
X281282Y217139D01*
X281057Y217220D01*
X280831Y217296D01*
X280602Y217366D01*
X280372Y217431D01*
X280140Y217490D01*
X279907Y217543D01*
X279673Y217591D01*
X279438Y217632D01*
X279202Y217668D01*
X278965Y217699D01*
X278727Y217723D01*
X278489Y217741D01*
X278250Y217754D01*
X278011Y217761D01*
X277772Y217762D01*
X277533Y217757D01*
X277295Y217746D01*
X277056Y217729D01*
X276818Y217707D01*
X276581Y217678D01*
X276344Y217644D01*
X276109Y217604D01*
X275874Y217558D01*
X275641Y217507D01*
X275409Y217450D01*
X275178Y217387D01*
X274949Y217318D01*
X274722Y217244D01*
X274497Y217165D01*
X274274Y217079D01*
X274052Y216989D01*
X273834Y216893D01*
X273617Y216791D01*
X273403Y216685D01*
X273192Y216573D01*
X272984Y216456D01*
X272778Y216334D01*
X272576Y216207D01*
X272377Y216075D01*
X272181Y215938D01*
X271988Y215796D01*
X271799Y215650D01*
X271614Y215499D01*
X271433Y215344D01*
X271255Y215184D01*
X271081Y215020D01*
X270912Y214851D01*
X270746Y214679D01*
X270585Y214502D01*
X260249Y226320D02*
X252477Y217596D01*
X260249Y226319D02*
X260378Y226461D01*
X260511Y226599D01*
X260646Y226733D01*
X260785Y226865D01*
X260927Y226992D01*
X261073Y227117D01*
X261221Y227237D01*
X261372Y227354D01*
X261526Y227468D01*
X261683Y227577D01*
X261842Y227683D01*
X262004Y227785D01*
X262168Y227882D01*
X262335Y227976D01*
X262504Y228065D01*
X262675Y228151D01*
X262848Y228232D01*
X263023Y228308D01*
X263200Y228381D01*
X263379Y228449D01*
X263559Y228513D01*
X263741Y228572D01*
X263924Y228627D01*
X264108Y228677D01*
X264294Y228723D01*
X264481Y228764D01*
X264668Y228801D01*
X264857Y228833D01*
X265046Y228860D01*
X265236Y228883D01*
X265426Y228901D01*
X265617Y228914D01*
X265808Y228923D01*
X265999Y228927D01*
X266190Y228926D01*
X266381Y228921D01*
X266572Y228910D01*
X266762Y228896D01*
X266953Y228876D01*
X267142Y228852D01*
X267331Y228823D01*
X267520Y228790D01*
X267707Y228752D01*
X267893Y228709D01*
X268078Y228662D01*
X268263Y228611D01*
X268445Y228554D01*
X268627Y228494D01*
X268806Y228429D01*
X268984Y228359D01*
X269161Y228285D01*
X269335Y228207D01*
X269508Y228125D01*
X269678Y228038D01*
X269846Y227948D01*
X270012Y227853D01*
X270176Y227754D01*
X270337Y227651D01*
X270496Y227544D01*
X270651Y227433D01*
X270805Y227319D01*
X270955Y227201D01*
X271102Y227079D01*
X271246Y226954D01*
X271388Y226825D01*
X271526Y226692D01*
X271660Y226557D01*
X271792Y226418D01*
X271919Y226276D01*
X272044Y226130D01*
X272164Y225982D01*
X272281Y225831D01*
X272395Y225677D01*
X272504Y225520D01*
X272610Y225361D01*
X272712Y225199D01*
X272809Y225035D01*
X272903Y224868D01*
X272992Y224699D01*
X273078Y224528D01*
X273159Y224355D01*
X273235Y224180D01*
X273308Y224003D01*
X273376Y223824D01*
X273440Y223644D01*
X273499Y223462D01*
X273554Y223279D01*
X273604Y223095D01*
X273650Y222909D01*
X273691Y222723D01*
X273728Y222535D01*
X273760Y222346D01*
X273787Y222157D01*
X273810Y221967D01*
X273828Y221777D01*
X273841Y221586D01*
X273850Y221395D01*
X273854Y221204D01*
X273853Y221013D01*
X273848Y220822D01*
X273837Y220631D01*
X273823Y220441D01*
X273803Y220250D01*
X273779Y220061D01*
X273750Y219872D01*
X273717Y219684D01*
X273679Y219496D01*
X273636Y219310D01*
X273589Y219125D01*
X273538Y218940D01*
X273481Y218758D01*
X273421Y218576D01*
X273356Y218397D01*
X273286Y218219D01*
X273212Y218042D01*
X273134Y217868D01*
X273052Y217695D01*
X272965Y217525D01*
X272875Y217357D01*
X272780Y217191D01*
X272681Y217027D01*
X272578Y216866D01*
X272471Y216707D01*
X272360Y216552D01*
X272246Y216398D01*
X272128Y216248D01*
X272006Y216101D01*
X271881Y215957D01*
X271881Y215956D02*
X266699Y210140D01*
X272119Y239642D02*
X298291Y216325D01*
X311245Y230864D02*
X272119Y239642D01*
X285074Y254182D02*
X311245Y230864D01*
D12*
X304800Y279400D02*
X292100Y279400D01*
X304800Y279400D02*
X336550Y247650D01*
X336550Y234950D01*
X228600Y203200D02*
X228600Y190500D01*
X254000Y165100D01*
X266700Y165100D01*
D13*
X762381Y13937D02*
X763566Y10381D01*
X764752Y13937D01*
X768652Y15715D02*
X768724Y15713D01*
X768796Y15707D01*
X768868Y15697D01*
X768939Y15684D01*
X769009Y15666D01*
X769078Y15645D01*
X769146Y15620D01*
X769212Y15592D01*
X769277Y15560D01*
X769340Y15524D01*
X769401Y15485D01*
X769459Y15443D01*
X769516Y15398D01*
X769569Y15349D01*
X769620Y15298D01*
X769669Y15245D01*
X769714Y15188D01*
X769756Y15130D01*
X769795Y15069D01*
X769831Y15006D01*
X769863Y14941D01*
X769891Y14875D01*
X769916Y14807D01*
X769937Y14738D01*
X769955Y14668D01*
X769968Y14597D01*
X769978Y14525D01*
X769984Y14453D01*
X769986Y14381D01*
X768652Y15715D02*
X768572Y15713D01*
X768493Y15708D01*
X768413Y15698D01*
X768335Y15685D01*
X768257Y15669D01*
X768179Y15649D01*
X768103Y15625D01*
X768028Y15597D01*
X767955Y15567D01*
X767883Y15533D01*
X767812Y15495D01*
X767744Y15454D01*
X767677Y15410D01*
X767612Y15364D01*
X767550Y15314D01*
X767490Y15261D01*
X767433Y15205D01*
X767378Y15147D01*
X767326Y15087D01*
X767277Y15024D01*
X767231Y14959D01*
X767188Y14892D01*
X767148Y14823D01*
X767112Y14752D01*
X767078Y14679D01*
X767049Y14605D01*
X767022Y14530D01*
X769541Y13344D02*
X769592Y13395D01*
X769640Y13449D01*
X769686Y13505D01*
X769729Y13564D01*
X769769Y13624D01*
X769805Y13687D01*
X769839Y13751D01*
X769869Y13817D01*
X769896Y13884D01*
X769919Y13953D01*
X769939Y14022D01*
X769956Y14093D01*
X769969Y14164D01*
X769978Y14236D01*
X769983Y14309D01*
X769985Y14381D01*
X769541Y13344D02*
X767022Y10381D01*
X769986Y10381D01*
X772196Y10381D02*
X772196Y10677D01*
X772493Y10677D01*
X772493Y10381D01*
X772196Y10381D01*
X774703Y13048D02*
X774705Y13173D01*
X774710Y13297D01*
X774719Y13421D01*
X774731Y13545D01*
X774747Y13669D01*
X774766Y13792D01*
X774789Y13915D01*
X774816Y14037D01*
X774845Y14158D01*
X774878Y14278D01*
X774915Y14397D01*
X774955Y14515D01*
X774998Y14632D01*
X775045Y14747D01*
X775095Y14862D01*
X775148Y14974D01*
X775171Y15035D01*
X775197Y15094D01*
X775227Y15152D01*
X775260Y15207D01*
X775297Y15261D01*
X775336Y15312D01*
X775378Y15361D01*
X775424Y15407D01*
X775472Y15451D01*
X775522Y15492D01*
X775575Y15529D01*
X775629Y15564D01*
X775686Y15595D01*
X775745Y15623D01*
X775805Y15647D01*
X775866Y15668D01*
X775928Y15685D01*
X775992Y15698D01*
X776056Y15707D01*
X776120Y15713D01*
X776185Y15715D01*
X776250Y15713D01*
X776314Y15707D01*
X776378Y15698D01*
X776442Y15685D01*
X776504Y15668D01*
X776565Y15647D01*
X776625Y15623D01*
X776684Y15595D01*
X776741Y15564D01*
X776795Y15529D01*
X776848Y15492D01*
X776898Y15451D01*
X776946Y15407D01*
X776992Y15361D01*
X777034Y15312D01*
X777073Y15261D01*
X777110Y15207D01*
X777143Y15152D01*
X777173Y15094D01*
X777199Y15035D01*
X777222Y14974D01*
X777275Y14862D01*
X777325Y14747D01*
X777372Y14632D01*
X777415Y14515D01*
X777455Y14397D01*
X777492Y14278D01*
X777525Y14158D01*
X777554Y14037D01*
X777581Y13915D01*
X777604Y13792D01*
X777623Y13669D01*
X777639Y13545D01*
X777651Y13421D01*
X777660Y13297D01*
X777665Y13173D01*
X777667Y13048D01*
X774703Y13048D02*
X774705Y12923D01*
X774710Y12799D01*
X774719Y12675D01*
X774731Y12551D01*
X774747Y12427D01*
X774766Y12304D01*
X774789Y12181D01*
X774816Y12060D01*
X774845Y11939D01*
X774878Y11818D01*
X774915Y11699D01*
X774955Y11581D01*
X774998Y11464D01*
X775045Y11349D01*
X775095Y11234D01*
X775148Y11122D01*
X775171Y11061D01*
X775197Y11002D01*
X775227Y10944D01*
X775260Y10889D01*
X775297Y10835D01*
X775336Y10784D01*
X775378Y10735D01*
X775424Y10689D01*
X775472Y10645D01*
X775522Y10604D01*
X775575Y10567D01*
X775629Y10532D01*
X775686Y10501D01*
X775745Y10473D01*
X775805Y10449D01*
X775866Y10428D01*
X775928Y10411D01*
X775992Y10398D01*
X776056Y10389D01*
X776120Y10383D01*
X776185Y10381D01*
X777222Y11122D02*
X777275Y11234D01*
X777325Y11349D01*
X777372Y11464D01*
X777415Y11581D01*
X777455Y11699D01*
X777492Y11818D01*
X777525Y11939D01*
X777554Y12060D01*
X777581Y12181D01*
X777604Y12304D01*
X777623Y12427D01*
X777639Y12551D01*
X777651Y12675D01*
X777660Y12799D01*
X777665Y12923D01*
X777667Y13048D01*
X777222Y11122D02*
X777199Y11061D01*
X777173Y11002D01*
X777143Y10944D01*
X777110Y10889D01*
X777073Y10835D01*
X777034Y10784D01*
X776992Y10735D01*
X776946Y10689D01*
X776898Y10645D01*
X776848Y10604D01*
X776795Y10567D01*
X776741Y10532D01*
X776684Y10501D01*
X776625Y10473D01*
X776565Y10449D01*
X776504Y10428D01*
X776442Y10411D01*
X776378Y10398D01*
X776314Y10389D01*
X776250Y10383D01*
X776185Y10381D01*
X775000Y11566D02*
X777370Y14530D01*
X20381Y555333D02*
X20381Y560667D01*
X22752Y560667D01*
X22752Y558296D02*
X20381Y558296D01*
X25167Y560667D02*
X25167Y555333D01*
X25167Y560667D02*
X26649Y560667D01*
X26725Y560665D01*
X26801Y560659D01*
X26877Y560649D01*
X26952Y560636D01*
X27026Y560618D01*
X27100Y560597D01*
X27172Y560572D01*
X27242Y560543D01*
X27312Y560511D01*
X27379Y560475D01*
X27444Y560435D01*
X27508Y560393D01*
X27569Y560347D01*
X27627Y560298D01*
X27683Y560246D01*
X27737Y560192D01*
X27787Y560134D01*
X27834Y560075D01*
X27879Y560012D01*
X27920Y559948D01*
X27957Y559882D01*
X27991Y559813D01*
X28022Y559743D01*
X28049Y559672D01*
X28072Y559599D01*
X28091Y559525D01*
X28107Y559451D01*
X28119Y559375D01*
X28127Y559299D01*
X28131Y559223D01*
X28131Y559147D01*
X28127Y559071D01*
X28119Y558995D01*
X28107Y558919D01*
X28091Y558845D01*
X28072Y558771D01*
X28049Y558698D01*
X28022Y558627D01*
X27991Y558557D01*
X27957Y558488D01*
X27920Y558422D01*
X27879Y558358D01*
X27834Y558295D01*
X27787Y558236D01*
X27737Y558178D01*
X27683Y558124D01*
X27627Y558072D01*
X27569Y558023D01*
X27508Y557977D01*
X27444Y557935D01*
X27379Y557895D01*
X27312Y557859D01*
X27242Y557827D01*
X27172Y557798D01*
X27100Y557773D01*
X27026Y557752D01*
X26952Y557734D01*
X26877Y557721D01*
X26801Y557711D01*
X26725Y557705D01*
X26649Y557703D01*
X26649Y557704D02*
X25167Y557704D01*
X26945Y557704D02*
X28131Y555333D01*
X30608Y556518D02*
X31794Y560667D01*
X30608Y556518D02*
X33572Y556518D01*
X32683Y555333D02*
X32683Y557704D01*
D14*
X189585Y259002D02*
X189587Y259065D01*
X189593Y259127D01*
X189603Y259189D01*
X189616Y259251D01*
X189634Y259311D01*
X189655Y259370D01*
X189680Y259428D01*
X189709Y259484D01*
X189741Y259538D01*
X189776Y259590D01*
X189814Y259639D01*
X189856Y259687D01*
X189900Y259731D01*
X189948Y259773D01*
X189997Y259811D01*
X190049Y259846D01*
X190103Y259878D01*
X190159Y259907D01*
X190217Y259932D01*
X190276Y259953D01*
X190336Y259971D01*
X190398Y259984D01*
X190460Y259994D01*
X190522Y260000D01*
X190585Y260002D01*
X190648Y260000D01*
X190710Y259994D01*
X190772Y259984D01*
X190834Y259971D01*
X190894Y259953D01*
X190953Y259932D01*
X191011Y259907D01*
X191067Y259878D01*
X191121Y259846D01*
X191173Y259811D01*
X191222Y259773D01*
X191270Y259731D01*
X191314Y259687D01*
X191356Y259639D01*
X191394Y259590D01*
X191429Y259538D01*
X191461Y259484D01*
X191490Y259428D01*
X191515Y259370D01*
X191536Y259311D01*
X191554Y259251D01*
X191567Y259189D01*
X191577Y259127D01*
X191583Y259065D01*
X191585Y259002D01*
X191583Y258939D01*
X191577Y258877D01*
X191567Y258815D01*
X191554Y258753D01*
X191536Y258693D01*
X191515Y258634D01*
X191490Y258576D01*
X191461Y258520D01*
X191429Y258466D01*
X191394Y258414D01*
X191356Y258365D01*
X191314Y258317D01*
X191270Y258273D01*
X191222Y258231D01*
X191173Y258193D01*
X191121Y258158D01*
X191067Y258126D01*
X191011Y258097D01*
X190953Y258072D01*
X190894Y258051D01*
X190834Y258033D01*
X190772Y258020D01*
X190710Y258010D01*
X190648Y258004D01*
X190585Y258002D01*
X190522Y258004D01*
X190460Y258010D01*
X190398Y258020D01*
X190336Y258033D01*
X190276Y258051D01*
X190217Y258072D01*
X190159Y258097D01*
X190103Y258126D01*
X190049Y258158D01*
X189997Y258193D01*
X189948Y258231D01*
X189900Y258273D01*
X189856Y258317D01*
X189814Y258365D01*
X189776Y258414D01*
X189741Y258466D01*
X189709Y258520D01*
X189680Y258576D01*
X189655Y258634D01*
X189634Y258693D01*
X189616Y258753D01*
X189603Y258815D01*
X189593Y258877D01*
X189587Y258939D01*
X189585Y259002D01*
D15*
X185150Y256700D02*
X185150Y276700D01*
X157750Y276700D02*
X157750Y256700D01*
D10*
X133590Y288234D02*
X133590Y296672D01*
X133589Y288234D02*
X133591Y288121D01*
X133597Y288008D01*
X133607Y287895D01*
X133621Y287782D01*
X133638Y287670D01*
X133660Y287559D01*
X133685Y287449D01*
X133715Y287339D01*
X133748Y287231D01*
X133785Y287124D01*
X133825Y287018D01*
X133870Y286914D01*
X133918Y286811D01*
X133969Y286710D01*
X134024Y286611D01*
X134082Y286514D01*
X134144Y286419D01*
X134209Y286326D01*
X134277Y286236D01*
X134348Y286148D01*
X134423Y286062D01*
X134500Y285979D01*
X134580Y285899D01*
X134663Y285822D01*
X134749Y285747D01*
X134837Y285676D01*
X134927Y285608D01*
X135020Y285543D01*
X135115Y285481D01*
X135212Y285423D01*
X135311Y285368D01*
X135412Y285317D01*
X135515Y285269D01*
X135619Y285224D01*
X135725Y285184D01*
X135832Y285147D01*
X135940Y285114D01*
X136050Y285084D01*
X136160Y285059D01*
X136271Y285037D01*
X136383Y285020D01*
X136496Y285006D01*
X136609Y284996D01*
X136722Y284990D01*
X136835Y284988D01*
X136948Y284990D01*
X137061Y284996D01*
X137174Y285006D01*
X137287Y285020D01*
X137399Y285037D01*
X137510Y285059D01*
X137620Y285084D01*
X137730Y285114D01*
X137838Y285147D01*
X137945Y285184D01*
X138051Y285224D01*
X138155Y285269D01*
X138258Y285317D01*
X138359Y285368D01*
X138458Y285423D01*
X138555Y285481D01*
X138650Y285543D01*
X138743Y285608D01*
X138833Y285676D01*
X138921Y285747D01*
X139007Y285822D01*
X139090Y285899D01*
X139170Y285979D01*
X139247Y286062D01*
X139322Y286148D01*
X139393Y286236D01*
X139461Y286326D01*
X139526Y286419D01*
X139588Y286514D01*
X139646Y286611D01*
X139701Y286710D01*
X139752Y286811D01*
X139800Y286914D01*
X139845Y287018D01*
X139885Y287124D01*
X139922Y287231D01*
X139955Y287339D01*
X139985Y287449D01*
X140010Y287559D01*
X140032Y287670D01*
X140049Y287782D01*
X140063Y287895D01*
X140073Y288008D01*
X140079Y288121D01*
X140081Y288234D01*
X140081Y296672D01*
X145401Y294076D02*
X148646Y296672D01*
X148646Y284988D01*
X145401Y284988D02*
X151892Y284988D01*
X159258Y247142D02*
X159258Y235458D01*
X159258Y247142D02*
X162504Y247142D01*
X162617Y247140D01*
X162730Y247134D01*
X162843Y247124D01*
X162956Y247110D01*
X163068Y247093D01*
X163179Y247071D01*
X163289Y247046D01*
X163399Y247016D01*
X163507Y246983D01*
X163614Y246946D01*
X163720Y246906D01*
X163824Y246861D01*
X163927Y246813D01*
X164028Y246762D01*
X164127Y246707D01*
X164224Y246649D01*
X164319Y246587D01*
X164412Y246522D01*
X164502Y246454D01*
X164590Y246383D01*
X164676Y246308D01*
X164759Y246231D01*
X164839Y246151D01*
X164916Y246068D01*
X164991Y245982D01*
X165062Y245894D01*
X165130Y245804D01*
X165195Y245711D01*
X165257Y245616D01*
X165315Y245519D01*
X165370Y245420D01*
X165421Y245319D01*
X165469Y245216D01*
X165514Y245112D01*
X165554Y245006D01*
X165591Y244899D01*
X165624Y244791D01*
X165654Y244681D01*
X165679Y244571D01*
X165701Y244460D01*
X165718Y244348D01*
X165732Y244235D01*
X165742Y244122D01*
X165748Y244009D01*
X165750Y243896D01*
X165748Y243783D01*
X165742Y243670D01*
X165732Y243557D01*
X165718Y243444D01*
X165701Y243332D01*
X165679Y243221D01*
X165654Y243111D01*
X165624Y243001D01*
X165591Y242893D01*
X165554Y242786D01*
X165514Y242680D01*
X165469Y242576D01*
X165421Y242473D01*
X165370Y242372D01*
X165315Y242273D01*
X165257Y242176D01*
X165195Y242081D01*
X165130Y241988D01*
X165062Y241898D01*
X164991Y241810D01*
X164916Y241724D01*
X164839Y241641D01*
X164759Y241561D01*
X164676Y241484D01*
X164590Y241409D01*
X164502Y241338D01*
X164412Y241270D01*
X164319Y241205D01*
X164224Y241143D01*
X164127Y241085D01*
X164028Y241030D01*
X163927Y240979D01*
X163824Y240931D01*
X163720Y240886D01*
X163614Y240846D01*
X163507Y240809D01*
X163399Y240776D01*
X163289Y240746D01*
X163179Y240721D01*
X163068Y240699D01*
X162956Y240682D01*
X162843Y240668D01*
X162730Y240658D01*
X162617Y240652D01*
X162504Y240650D01*
X162504Y240651D02*
X159258Y240651D01*
X163153Y240651D02*
X165749Y235458D01*
X170614Y244546D02*
X173860Y247142D01*
X173860Y235458D01*
X177105Y235458D02*
X170614Y235458D01*
X263454Y286258D02*
X266051Y286258D01*
X263454Y286258D02*
X263355Y286260D01*
X263255Y286266D01*
X263156Y286275D01*
X263058Y286288D01*
X262960Y286305D01*
X262862Y286326D01*
X262766Y286351D01*
X262671Y286379D01*
X262577Y286411D01*
X262484Y286446D01*
X262392Y286485D01*
X262302Y286528D01*
X262214Y286573D01*
X262127Y286623D01*
X262043Y286675D01*
X261960Y286731D01*
X261880Y286789D01*
X261802Y286851D01*
X261727Y286916D01*
X261654Y286984D01*
X261584Y287054D01*
X261516Y287127D01*
X261451Y287202D01*
X261389Y287280D01*
X261331Y287360D01*
X261275Y287443D01*
X261223Y287527D01*
X261173Y287614D01*
X261128Y287702D01*
X261085Y287792D01*
X261046Y287884D01*
X261011Y287977D01*
X260979Y288071D01*
X260951Y288166D01*
X260926Y288262D01*
X260905Y288360D01*
X260888Y288458D01*
X260875Y288556D01*
X260866Y288655D01*
X260860Y288755D01*
X260858Y288854D01*
X260858Y295346D01*
X260860Y295445D01*
X260866Y295545D01*
X260875Y295644D01*
X260888Y295742D01*
X260905Y295840D01*
X260926Y295938D01*
X260951Y296034D01*
X260979Y296129D01*
X261011Y296223D01*
X261046Y296316D01*
X261085Y296408D01*
X261128Y296498D01*
X261173Y296586D01*
X261223Y296673D01*
X261275Y296757D01*
X261331Y296840D01*
X261389Y296920D01*
X261451Y296998D01*
X261516Y297073D01*
X261584Y297146D01*
X261654Y297216D01*
X261727Y297284D01*
X261802Y297349D01*
X261880Y297411D01*
X261960Y297469D01*
X262043Y297525D01*
X262127Y297577D01*
X262214Y297627D01*
X262302Y297672D01*
X262392Y297715D01*
X262484Y297754D01*
X262576Y297789D01*
X262671Y297821D01*
X262766Y297849D01*
X262862Y297874D01*
X262960Y297895D01*
X263058Y297912D01*
X263156Y297925D01*
X263255Y297934D01*
X263355Y297940D01*
X263454Y297942D01*
X266051Y297942D01*
X270416Y295346D02*
X273662Y297942D01*
X273662Y286258D01*
X276907Y286258D02*
X270416Y286258D01*
D15*
X223300Y385200D02*
X223300Y411700D01*
X229300Y411700D01*
X259300Y411700D02*
X259300Y385200D01*
X259300Y411700D02*
X253300Y411700D01*
D16*
X224520Y364243D02*
X224522Y364312D01*
X224528Y364381D01*
X224538Y364449D01*
X224552Y364517D01*
X224569Y364584D01*
X224591Y364650D01*
X224616Y364714D01*
X224645Y364777D01*
X224678Y364838D01*
X224714Y364897D01*
X224753Y364954D01*
X224796Y365008D01*
X224841Y365060D01*
X224890Y365110D01*
X224941Y365156D01*
X224995Y365199D01*
X225052Y365240D01*
X225110Y365276D01*
X225171Y365310D01*
X225233Y365340D01*
X225297Y365366D01*
X225362Y365388D01*
X225429Y365407D01*
X225497Y365422D01*
X225565Y365433D01*
X225634Y365440D01*
X225703Y365443D01*
X225772Y365442D01*
X225841Y365437D01*
X225909Y365428D01*
X225977Y365415D01*
X226044Y365398D01*
X226111Y365378D01*
X226175Y365353D01*
X226238Y365325D01*
X226300Y365294D01*
X226359Y365258D01*
X226417Y365220D01*
X226472Y365178D01*
X226525Y365133D01*
X226575Y365085D01*
X226622Y365035D01*
X226666Y364981D01*
X226707Y364926D01*
X226745Y364868D01*
X226779Y364808D01*
X226810Y364746D01*
X226837Y364682D01*
X226860Y364617D01*
X226880Y364551D01*
X226896Y364483D01*
X226908Y364415D01*
X226916Y364347D01*
X226920Y364278D01*
X226920Y364208D01*
X226916Y364139D01*
X226908Y364071D01*
X226896Y364003D01*
X226880Y363935D01*
X226860Y363869D01*
X226837Y363804D01*
X226810Y363740D01*
X226779Y363678D01*
X226745Y363618D01*
X226707Y363560D01*
X226666Y363505D01*
X226622Y363451D01*
X226575Y363401D01*
X226525Y363353D01*
X226472Y363308D01*
X226417Y363266D01*
X226359Y363228D01*
X226300Y363192D01*
X226238Y363161D01*
X226175Y363133D01*
X226111Y363108D01*
X226044Y363088D01*
X225977Y363071D01*
X225909Y363058D01*
X225841Y363049D01*
X225772Y363044D01*
X225703Y363043D01*
X225634Y363046D01*
X225565Y363053D01*
X225497Y363064D01*
X225429Y363079D01*
X225362Y363098D01*
X225297Y363120D01*
X225233Y363146D01*
X225171Y363176D01*
X225110Y363210D01*
X225052Y363246D01*
X224995Y363287D01*
X224941Y363330D01*
X224890Y363376D01*
X224841Y363426D01*
X224796Y363478D01*
X224753Y363532D01*
X224714Y363589D01*
X224678Y363648D01*
X224645Y363709D01*
X224616Y363772D01*
X224591Y363836D01*
X224569Y363902D01*
X224552Y363969D01*
X224538Y364037D01*
X224528Y364105D01*
X224522Y364174D01*
X224520Y364243D01*
D10*
X217058Y384446D02*
X205372Y384446D01*
X205372Y387692D01*
X205374Y387805D01*
X205380Y387918D01*
X205390Y388031D01*
X205404Y388144D01*
X205421Y388256D01*
X205443Y388367D01*
X205468Y388477D01*
X205498Y388587D01*
X205531Y388695D01*
X205568Y388802D01*
X205608Y388908D01*
X205653Y389012D01*
X205701Y389115D01*
X205752Y389216D01*
X205807Y389315D01*
X205865Y389412D01*
X205927Y389507D01*
X205992Y389600D01*
X206060Y389690D01*
X206131Y389778D01*
X206206Y389864D01*
X206283Y389947D01*
X206363Y390027D01*
X206446Y390104D01*
X206532Y390179D01*
X206620Y390250D01*
X206710Y390318D01*
X206803Y390383D01*
X206898Y390445D01*
X206995Y390503D01*
X207094Y390558D01*
X207195Y390609D01*
X207298Y390657D01*
X207402Y390702D01*
X207508Y390742D01*
X207615Y390779D01*
X207723Y390812D01*
X207833Y390842D01*
X207943Y390867D01*
X208054Y390889D01*
X208166Y390906D01*
X208279Y390920D01*
X208392Y390930D01*
X208505Y390936D01*
X208618Y390938D01*
X208731Y390936D01*
X208844Y390930D01*
X208957Y390920D01*
X209070Y390906D01*
X209182Y390889D01*
X209293Y390867D01*
X209403Y390842D01*
X209513Y390812D01*
X209621Y390779D01*
X209728Y390742D01*
X209834Y390702D01*
X209938Y390657D01*
X210041Y390609D01*
X210142Y390558D01*
X210241Y390503D01*
X210338Y390445D01*
X210433Y390383D01*
X210526Y390318D01*
X210616Y390250D01*
X210704Y390179D01*
X210790Y390104D01*
X210873Y390027D01*
X210953Y389947D01*
X211030Y389864D01*
X211105Y389778D01*
X211176Y389690D01*
X211244Y389600D01*
X211309Y389507D01*
X211371Y389412D01*
X211429Y389315D01*
X211484Y389216D01*
X211535Y389115D01*
X211583Y389012D01*
X211628Y388908D01*
X211668Y388802D01*
X211705Y388695D01*
X211738Y388587D01*
X211768Y388477D01*
X211793Y388367D01*
X211815Y388256D01*
X211832Y388144D01*
X211846Y388031D01*
X211856Y387918D01*
X211862Y387805D01*
X211864Y387692D01*
X211865Y387692D02*
X211865Y384446D01*
X211865Y388341D02*
X217058Y390938D01*
X208294Y402297D02*
X208187Y402295D01*
X208081Y402289D01*
X207974Y402279D01*
X207869Y402266D01*
X207763Y402248D01*
X207659Y402227D01*
X207555Y402202D01*
X207452Y402173D01*
X207351Y402141D01*
X207250Y402104D01*
X207151Y402064D01*
X207054Y402021D01*
X206958Y401974D01*
X206864Y401923D01*
X206772Y401869D01*
X206682Y401812D01*
X206594Y401751D01*
X206508Y401688D01*
X206425Y401621D01*
X206344Y401551D01*
X206266Y401479D01*
X206190Y401403D01*
X206118Y401325D01*
X206048Y401244D01*
X205981Y401161D01*
X205918Y401075D01*
X205857Y400987D01*
X205800Y400897D01*
X205746Y400805D01*
X205695Y400711D01*
X205648Y400615D01*
X205605Y400518D01*
X205565Y400419D01*
X205529Y400319D01*
X205496Y400217D01*
X205467Y400114D01*
X205442Y400010D01*
X205421Y399906D01*
X205403Y399801D01*
X205390Y399695D01*
X205380Y399588D01*
X205374Y399482D01*
X205372Y399375D01*
X205373Y399375D02*
X205375Y399254D01*
X205381Y399133D01*
X205391Y399013D01*
X205404Y398892D01*
X205422Y398773D01*
X205443Y398653D01*
X205468Y398535D01*
X205497Y398418D01*
X205530Y398301D01*
X205566Y398186D01*
X205607Y398072D01*
X205650Y397959D01*
X205698Y397847D01*
X205749Y397738D01*
X205804Y397630D01*
X205862Y397523D01*
X205923Y397419D01*
X205988Y397317D01*
X206056Y397217D01*
X206127Y397119D01*
X206201Y397023D01*
X206278Y396930D01*
X206359Y396840D01*
X206442Y396752D01*
X206528Y396667D01*
X206617Y396584D01*
X206708Y396505D01*
X206802Y396428D01*
X206898Y396355D01*
X206996Y396285D01*
X207097Y396218D01*
X207200Y396154D01*
X207305Y396093D01*
X207412Y396036D01*
X207520Y395983D01*
X207630Y395933D01*
X207742Y395886D01*
X207855Y395844D01*
X207970Y395805D01*
X210566Y401322D02*
X210489Y401401D01*
X210408Y401477D01*
X210326Y401550D01*
X210240Y401620D01*
X210152Y401687D01*
X210062Y401751D01*
X209970Y401811D01*
X209875Y401868D01*
X209779Y401922D01*
X209681Y401973D01*
X209581Y402020D01*
X209479Y402064D01*
X209376Y402104D01*
X209272Y402140D01*
X209166Y402172D01*
X209060Y402201D01*
X208952Y402226D01*
X208844Y402248D01*
X208734Y402265D01*
X208625Y402279D01*
X208515Y402288D01*
X208404Y402294D01*
X208294Y402296D01*
X210566Y401323D02*
X217058Y395804D01*
X217058Y402296D01*
D17*
X292100Y405400D03*
D10*
X305308Y412251D02*
X316992Y412251D01*
X316992Y417443D01*
X316992Y422157D02*
X316992Y427349D01*
X316992Y422157D02*
X305308Y422157D01*
X305308Y427349D01*
X310501Y426051D02*
X310501Y422157D01*
X305308Y432040D02*
X316992Y432040D01*
X305308Y432040D02*
X305308Y435285D01*
X305310Y435398D01*
X305316Y435511D01*
X305326Y435624D01*
X305340Y435737D01*
X305357Y435849D01*
X305379Y435960D01*
X305404Y436070D01*
X305434Y436180D01*
X305467Y436288D01*
X305504Y436395D01*
X305544Y436501D01*
X305589Y436605D01*
X305637Y436708D01*
X305688Y436809D01*
X305743Y436908D01*
X305801Y437005D01*
X305863Y437100D01*
X305928Y437193D01*
X305996Y437283D01*
X306067Y437371D01*
X306142Y437457D01*
X306219Y437540D01*
X306299Y437620D01*
X306382Y437697D01*
X306468Y437772D01*
X306556Y437843D01*
X306646Y437911D01*
X306739Y437976D01*
X306834Y438038D01*
X306931Y438096D01*
X307030Y438151D01*
X307131Y438202D01*
X307234Y438250D01*
X307338Y438295D01*
X307444Y438335D01*
X307551Y438372D01*
X307659Y438405D01*
X307769Y438435D01*
X307879Y438460D01*
X307990Y438482D01*
X308102Y438499D01*
X308215Y438513D01*
X308328Y438523D01*
X308441Y438529D01*
X308554Y438531D01*
X313746Y438531D01*
X313746Y438532D02*
X313859Y438530D01*
X313972Y438524D01*
X314085Y438514D01*
X314198Y438500D01*
X314310Y438483D01*
X314421Y438461D01*
X314531Y438436D01*
X314641Y438406D01*
X314749Y438373D01*
X314856Y438336D01*
X314962Y438296D01*
X315066Y438251D01*
X315169Y438203D01*
X315270Y438152D01*
X315369Y438097D01*
X315466Y438039D01*
X315561Y437977D01*
X315654Y437912D01*
X315744Y437844D01*
X315832Y437773D01*
X315918Y437698D01*
X316001Y437621D01*
X316081Y437541D01*
X316158Y437458D01*
X316233Y437372D01*
X316304Y437284D01*
X316372Y437194D01*
X316437Y437101D01*
X316499Y437006D01*
X316557Y436909D01*
X316612Y436810D01*
X316663Y436709D01*
X316711Y436606D01*
X316756Y436502D01*
X316796Y436396D01*
X316833Y436289D01*
X316866Y436181D01*
X316896Y436071D01*
X316921Y435961D01*
X316943Y435850D01*
X316960Y435738D01*
X316974Y435625D01*
X316984Y435512D01*
X316990Y435399D01*
X316992Y435286D01*
X316992Y435285D02*
X316992Y432040D01*
X307904Y443851D02*
X305308Y447096D01*
X316992Y447096D01*
X316992Y443851D02*
X316992Y450342D01*
X324358Y334828D02*
X336042Y334828D01*
X324358Y331583D02*
X324358Y338074D01*
X326954Y342251D02*
X324358Y345496D01*
X336042Y345496D01*
X336042Y342251D02*
X336042Y348742D01*
X101092Y432495D02*
X89408Y432495D01*
X89408Y435740D01*
X89410Y435853D01*
X89416Y435966D01*
X89426Y436079D01*
X89440Y436192D01*
X89457Y436304D01*
X89479Y436415D01*
X89504Y436525D01*
X89534Y436635D01*
X89567Y436743D01*
X89604Y436850D01*
X89644Y436956D01*
X89689Y437060D01*
X89737Y437163D01*
X89788Y437264D01*
X89843Y437363D01*
X89901Y437460D01*
X89963Y437555D01*
X90028Y437648D01*
X90096Y437738D01*
X90167Y437826D01*
X90242Y437912D01*
X90319Y437995D01*
X90399Y438075D01*
X90482Y438152D01*
X90568Y438227D01*
X90656Y438298D01*
X90746Y438366D01*
X90839Y438431D01*
X90934Y438493D01*
X91031Y438551D01*
X91130Y438606D01*
X91231Y438657D01*
X91334Y438705D01*
X91438Y438750D01*
X91544Y438790D01*
X91651Y438827D01*
X91759Y438860D01*
X91869Y438890D01*
X91979Y438915D01*
X92090Y438937D01*
X92202Y438954D01*
X92315Y438968D01*
X92428Y438978D01*
X92541Y438984D01*
X92654Y438986D01*
X92767Y438984D01*
X92880Y438978D01*
X92993Y438968D01*
X93106Y438954D01*
X93218Y438937D01*
X93329Y438915D01*
X93439Y438890D01*
X93549Y438860D01*
X93657Y438827D01*
X93764Y438790D01*
X93870Y438750D01*
X93974Y438705D01*
X94077Y438657D01*
X94178Y438606D01*
X94277Y438551D01*
X94374Y438493D01*
X94469Y438431D01*
X94562Y438366D01*
X94652Y438298D01*
X94740Y438227D01*
X94826Y438152D01*
X94909Y438075D01*
X94989Y437995D01*
X95066Y437912D01*
X95141Y437826D01*
X95212Y437738D01*
X95280Y437648D01*
X95345Y437555D01*
X95407Y437460D01*
X95465Y437363D01*
X95520Y437264D01*
X95571Y437163D01*
X95619Y437060D01*
X95664Y436956D01*
X95704Y436850D01*
X95741Y436743D01*
X95774Y436635D01*
X95804Y436525D01*
X95829Y436415D01*
X95851Y436304D01*
X95868Y436192D01*
X95882Y436079D01*
X95892Y435966D01*
X95898Y435853D01*
X95900Y435740D01*
X95899Y435740D02*
X95899Y432495D01*
X95899Y436389D02*
X101092Y438986D01*
X101092Y443851D02*
X101092Y447096D01*
X101090Y447209D01*
X101084Y447322D01*
X101074Y447435D01*
X101060Y447548D01*
X101043Y447660D01*
X101021Y447771D01*
X100996Y447881D01*
X100966Y447991D01*
X100933Y448099D01*
X100896Y448206D01*
X100856Y448312D01*
X100811Y448416D01*
X100763Y448519D01*
X100712Y448620D01*
X100657Y448719D01*
X100599Y448816D01*
X100537Y448911D01*
X100472Y449004D01*
X100404Y449094D01*
X100333Y449182D01*
X100258Y449268D01*
X100181Y449351D01*
X100101Y449431D01*
X100018Y449508D01*
X99932Y449583D01*
X99844Y449654D01*
X99754Y449722D01*
X99661Y449787D01*
X99566Y449849D01*
X99469Y449907D01*
X99370Y449962D01*
X99269Y450013D01*
X99166Y450061D01*
X99062Y450106D01*
X98956Y450146D01*
X98849Y450183D01*
X98741Y450216D01*
X98631Y450246D01*
X98521Y450271D01*
X98410Y450293D01*
X98298Y450310D01*
X98185Y450324D01*
X98072Y450334D01*
X97959Y450340D01*
X97846Y450342D01*
X97733Y450340D01*
X97620Y450334D01*
X97507Y450324D01*
X97394Y450310D01*
X97282Y450293D01*
X97171Y450271D01*
X97061Y450246D01*
X96951Y450216D01*
X96843Y450183D01*
X96736Y450146D01*
X96630Y450106D01*
X96526Y450061D01*
X96423Y450013D01*
X96322Y449962D01*
X96223Y449907D01*
X96126Y449849D01*
X96031Y449787D01*
X95938Y449722D01*
X95848Y449654D01*
X95760Y449583D01*
X95674Y449508D01*
X95591Y449431D01*
X95511Y449351D01*
X95434Y449268D01*
X95359Y449182D01*
X95288Y449094D01*
X95220Y449004D01*
X95155Y448911D01*
X95093Y448816D01*
X95035Y448719D01*
X94980Y448620D01*
X94929Y448519D01*
X94881Y448416D01*
X94836Y448312D01*
X94796Y448206D01*
X94759Y448099D01*
X94726Y447991D01*
X94696Y447881D01*
X94671Y447771D01*
X94649Y447660D01*
X94632Y447548D01*
X94618Y447435D01*
X94608Y447322D01*
X94602Y447209D01*
X94600Y447096D01*
X89408Y447746D02*
X89408Y443851D01*
X89408Y447746D02*
X89410Y447847D01*
X89416Y447947D01*
X89426Y448047D01*
X89439Y448147D01*
X89457Y448246D01*
X89478Y448345D01*
X89503Y448442D01*
X89532Y448539D01*
X89565Y448634D01*
X89601Y448728D01*
X89641Y448820D01*
X89684Y448911D01*
X89731Y449000D01*
X89781Y449087D01*
X89835Y449173D01*
X89892Y449256D01*
X89952Y449336D01*
X90015Y449415D01*
X90082Y449491D01*
X90151Y449564D01*
X90223Y449634D01*
X90297Y449702D01*
X90374Y449767D01*
X90454Y449828D01*
X90536Y449887D01*
X90620Y449942D01*
X90706Y449994D01*
X90794Y450043D01*
X90884Y450088D01*
X90976Y450130D01*
X91069Y450168D01*
X91164Y450202D01*
X91259Y450233D01*
X91356Y450260D01*
X91454Y450283D01*
X91553Y450303D01*
X91653Y450318D01*
X91753Y450330D01*
X91853Y450338D01*
X91954Y450342D01*
X92054Y450342D01*
X92155Y450338D01*
X92255Y450330D01*
X92355Y450318D01*
X92455Y450303D01*
X92554Y450283D01*
X92652Y450260D01*
X92749Y450233D01*
X92844Y450202D01*
X92939Y450168D01*
X93032Y450130D01*
X93124Y450088D01*
X93214Y450043D01*
X93302Y449994D01*
X93388Y449942D01*
X93472Y449887D01*
X93554Y449828D01*
X93634Y449767D01*
X93711Y449702D01*
X93785Y449634D01*
X93857Y449564D01*
X93926Y449491D01*
X93993Y449415D01*
X94056Y449336D01*
X94116Y449256D01*
X94173Y449173D01*
X94227Y449087D01*
X94277Y449000D01*
X94324Y448911D01*
X94367Y448820D01*
X94407Y448728D01*
X94443Y448634D01*
X94476Y448539D01*
X94505Y448442D01*
X94530Y448345D01*
X94551Y448246D01*
X94569Y448147D01*
X94582Y448047D01*
X94592Y447947D01*
X94598Y447847D01*
X94600Y447746D01*
X94601Y447746D02*
X94601Y445149D01*
D15*
X6350Y294500D02*
X4550Y294500D01*
X4550Y213500D01*
X6350Y213500D01*
X31750Y294500D02*
X47550Y294500D01*
X47550Y272200D01*
X47550Y235800D02*
X47550Y213500D01*
X31750Y213500D01*
D14*
X51050Y275000D02*
X51052Y275063D01*
X51058Y275125D01*
X51068Y275187D01*
X51081Y275249D01*
X51099Y275309D01*
X51120Y275368D01*
X51145Y275426D01*
X51174Y275482D01*
X51206Y275536D01*
X51241Y275588D01*
X51279Y275637D01*
X51321Y275685D01*
X51365Y275729D01*
X51413Y275771D01*
X51462Y275809D01*
X51514Y275844D01*
X51568Y275876D01*
X51624Y275905D01*
X51682Y275930D01*
X51741Y275951D01*
X51801Y275969D01*
X51863Y275982D01*
X51925Y275992D01*
X51987Y275998D01*
X52050Y276000D01*
X52113Y275998D01*
X52175Y275992D01*
X52237Y275982D01*
X52299Y275969D01*
X52359Y275951D01*
X52418Y275930D01*
X52476Y275905D01*
X52532Y275876D01*
X52586Y275844D01*
X52638Y275809D01*
X52687Y275771D01*
X52735Y275729D01*
X52779Y275685D01*
X52821Y275637D01*
X52859Y275588D01*
X52894Y275536D01*
X52926Y275482D01*
X52955Y275426D01*
X52980Y275368D01*
X53001Y275309D01*
X53019Y275249D01*
X53032Y275187D01*
X53042Y275125D01*
X53048Y275063D01*
X53050Y275000D01*
X53048Y274937D01*
X53042Y274875D01*
X53032Y274813D01*
X53019Y274751D01*
X53001Y274691D01*
X52980Y274632D01*
X52955Y274574D01*
X52926Y274518D01*
X52894Y274464D01*
X52859Y274412D01*
X52821Y274363D01*
X52779Y274315D01*
X52735Y274271D01*
X52687Y274229D01*
X52638Y274191D01*
X52586Y274156D01*
X52532Y274124D01*
X52476Y274095D01*
X52418Y274070D01*
X52359Y274049D01*
X52299Y274031D01*
X52237Y274018D01*
X52175Y274008D01*
X52113Y274002D01*
X52050Y274000D01*
X51987Y274002D01*
X51925Y274008D01*
X51863Y274018D01*
X51801Y274031D01*
X51741Y274049D01*
X51682Y274070D01*
X51624Y274095D01*
X51568Y274124D01*
X51514Y274156D01*
X51462Y274191D01*
X51413Y274229D01*
X51365Y274271D01*
X51321Y274315D01*
X51279Y274363D01*
X51241Y274412D01*
X51206Y274464D01*
X51174Y274518D01*
X51145Y274574D01*
X51120Y274632D01*
X51099Y274691D01*
X51081Y274751D01*
X51068Y274813D01*
X51058Y274875D01*
X51052Y274937D01*
X51050Y275000D01*
D10*
X47896Y307128D02*
X38808Y307128D01*
X47896Y307127D02*
X47995Y307125D01*
X48095Y307119D01*
X48194Y307110D01*
X48292Y307097D01*
X48390Y307080D01*
X48488Y307059D01*
X48584Y307034D01*
X48679Y307006D01*
X48773Y306974D01*
X48866Y306939D01*
X48958Y306900D01*
X49048Y306857D01*
X49136Y306812D01*
X49223Y306762D01*
X49307Y306710D01*
X49390Y306654D01*
X49470Y306596D01*
X49548Y306534D01*
X49623Y306469D01*
X49696Y306401D01*
X49766Y306331D01*
X49834Y306258D01*
X49899Y306183D01*
X49961Y306105D01*
X50019Y306025D01*
X50075Y305942D01*
X50127Y305858D01*
X50177Y305771D01*
X50222Y305683D01*
X50265Y305593D01*
X50304Y305501D01*
X50339Y305408D01*
X50371Y305314D01*
X50399Y305219D01*
X50424Y305123D01*
X50445Y305025D01*
X50462Y304927D01*
X50475Y304829D01*
X50484Y304730D01*
X50490Y304630D01*
X50492Y304531D01*
X50492Y303233D01*
X41404Y312401D02*
X38808Y315646D01*
X50492Y315646D01*
X50492Y312401D02*
X50492Y318892D01*
X139249Y343408D02*
X139249Y355092D01*
X142494Y355092D02*
X136003Y355092D01*
X147221Y355092D02*
X147221Y343408D01*
X147221Y355092D02*
X150467Y355092D01*
X150580Y355090D01*
X150693Y355084D01*
X150806Y355074D01*
X150919Y355060D01*
X151031Y355043D01*
X151142Y355021D01*
X151252Y354996D01*
X151362Y354966D01*
X151470Y354933D01*
X151577Y354896D01*
X151683Y354856D01*
X151787Y354811D01*
X151890Y354763D01*
X151991Y354712D01*
X152090Y354657D01*
X152187Y354599D01*
X152282Y354537D01*
X152375Y354472D01*
X152465Y354404D01*
X152553Y354333D01*
X152639Y354258D01*
X152722Y354181D01*
X152802Y354101D01*
X152879Y354018D01*
X152954Y353932D01*
X153025Y353844D01*
X153093Y353754D01*
X153158Y353661D01*
X153220Y353566D01*
X153278Y353469D01*
X153333Y353370D01*
X153384Y353269D01*
X153432Y353166D01*
X153477Y353062D01*
X153517Y352956D01*
X153554Y352849D01*
X153587Y352741D01*
X153617Y352631D01*
X153642Y352521D01*
X153664Y352410D01*
X153681Y352298D01*
X153695Y352185D01*
X153705Y352072D01*
X153711Y351959D01*
X153713Y351846D01*
X153711Y351733D01*
X153705Y351620D01*
X153695Y351507D01*
X153681Y351394D01*
X153664Y351282D01*
X153642Y351171D01*
X153617Y351061D01*
X153587Y350951D01*
X153554Y350843D01*
X153517Y350736D01*
X153477Y350630D01*
X153432Y350526D01*
X153384Y350423D01*
X153333Y350322D01*
X153278Y350223D01*
X153220Y350126D01*
X153158Y350031D01*
X153093Y349938D01*
X153025Y349848D01*
X152954Y349760D01*
X152879Y349674D01*
X152802Y349591D01*
X152722Y349511D01*
X152639Y349434D01*
X152553Y349359D01*
X152465Y349288D01*
X152375Y349220D01*
X152282Y349155D01*
X152187Y349093D01*
X152090Y349035D01*
X151991Y348980D01*
X151890Y348929D01*
X151787Y348881D01*
X151683Y348836D01*
X151577Y348796D01*
X151470Y348759D01*
X151362Y348726D01*
X151252Y348696D01*
X151142Y348671D01*
X151031Y348649D01*
X150919Y348632D01*
X150806Y348618D01*
X150693Y348608D01*
X150580Y348602D01*
X150467Y348600D01*
X150467Y348601D02*
X147221Y348601D01*
X158101Y352496D02*
X161346Y355092D01*
X161346Y343408D01*
X158101Y343408D02*
X164592Y343408D01*
X137104Y381508D02*
X137104Y393192D01*
X140349Y393192D02*
X133858Y393192D01*
X145076Y393192D02*
X145076Y381508D01*
X145076Y393192D02*
X148322Y393192D01*
X148435Y393190D01*
X148548Y393184D01*
X148661Y393174D01*
X148774Y393160D01*
X148886Y393143D01*
X148997Y393121D01*
X149107Y393096D01*
X149217Y393066D01*
X149325Y393033D01*
X149432Y392996D01*
X149538Y392956D01*
X149642Y392911D01*
X149745Y392863D01*
X149846Y392812D01*
X149945Y392757D01*
X150042Y392699D01*
X150137Y392637D01*
X150230Y392572D01*
X150320Y392504D01*
X150408Y392433D01*
X150494Y392358D01*
X150577Y392281D01*
X150657Y392201D01*
X150734Y392118D01*
X150809Y392032D01*
X150880Y391944D01*
X150948Y391854D01*
X151013Y391761D01*
X151075Y391666D01*
X151133Y391569D01*
X151188Y391470D01*
X151239Y391369D01*
X151287Y391266D01*
X151332Y391162D01*
X151372Y391056D01*
X151409Y390949D01*
X151442Y390841D01*
X151472Y390731D01*
X151497Y390621D01*
X151519Y390510D01*
X151536Y390398D01*
X151550Y390285D01*
X151560Y390172D01*
X151566Y390059D01*
X151568Y389946D01*
X151566Y389833D01*
X151560Y389720D01*
X151550Y389607D01*
X151536Y389494D01*
X151519Y389382D01*
X151497Y389271D01*
X151472Y389161D01*
X151442Y389051D01*
X151409Y388943D01*
X151372Y388836D01*
X151332Y388730D01*
X151287Y388626D01*
X151239Y388523D01*
X151188Y388422D01*
X151133Y388323D01*
X151075Y388226D01*
X151013Y388131D01*
X150948Y388038D01*
X150880Y387948D01*
X150809Y387860D01*
X150734Y387774D01*
X150657Y387691D01*
X150577Y387611D01*
X150494Y387534D01*
X150408Y387459D01*
X150320Y387388D01*
X150230Y387320D01*
X150137Y387255D01*
X150042Y387193D01*
X149945Y387135D01*
X149846Y387080D01*
X149745Y387029D01*
X149642Y386981D01*
X149538Y386936D01*
X149432Y386896D01*
X149325Y386859D01*
X149217Y386826D01*
X149107Y386796D01*
X148997Y386771D01*
X148886Y386749D01*
X148774Y386732D01*
X148661Y386718D01*
X148548Y386708D01*
X148435Y386702D01*
X148322Y386700D01*
X148322Y386701D02*
X145076Y386701D01*
X159526Y393192D02*
X159633Y393190D01*
X159739Y393184D01*
X159845Y393174D01*
X159951Y393161D01*
X160057Y393143D01*
X160161Y393122D01*
X160265Y393097D01*
X160368Y393068D01*
X160469Y393036D01*
X160569Y392999D01*
X160668Y392959D01*
X160766Y392916D01*
X160862Y392869D01*
X160956Y392818D01*
X161048Y392764D01*
X161138Y392707D01*
X161226Y392647D01*
X161311Y392583D01*
X161394Y392516D01*
X161475Y392446D01*
X161553Y392374D01*
X161629Y392298D01*
X161701Y392220D01*
X161771Y392139D01*
X161838Y392056D01*
X161902Y391971D01*
X161962Y391883D01*
X162019Y391793D01*
X162073Y391701D01*
X162124Y391607D01*
X162171Y391511D01*
X162214Y391413D01*
X162254Y391314D01*
X162291Y391214D01*
X162323Y391113D01*
X162352Y391010D01*
X162377Y390906D01*
X162398Y390802D01*
X162416Y390696D01*
X162429Y390590D01*
X162439Y390484D01*
X162445Y390378D01*
X162447Y390271D01*
X159526Y393192D02*
X159405Y393190D01*
X159284Y393184D01*
X159164Y393174D01*
X159043Y393161D01*
X158924Y393143D01*
X158804Y393122D01*
X158686Y393097D01*
X158569Y393068D01*
X158452Y393035D01*
X158337Y392999D01*
X158223Y392958D01*
X158110Y392915D01*
X157998Y392867D01*
X157889Y392816D01*
X157781Y392761D01*
X157674Y392703D01*
X157570Y392642D01*
X157468Y392577D01*
X157368Y392509D01*
X157270Y392438D01*
X157174Y392364D01*
X157081Y392287D01*
X156991Y392206D01*
X156903Y392123D01*
X156818Y392037D01*
X156735Y391948D01*
X156656Y391857D01*
X156579Y391763D01*
X156506Y391667D01*
X156436Y391569D01*
X156369Y391468D01*
X156305Y391365D01*
X156245Y391260D01*
X156188Y391153D01*
X156134Y391045D01*
X156084Y390935D01*
X156038Y390823D01*
X155995Y390710D01*
X155956Y390595D01*
X161474Y387999D02*
X161553Y388076D01*
X161629Y388157D01*
X161702Y388240D01*
X161772Y388325D01*
X161839Y388413D01*
X161903Y388503D01*
X161963Y388595D01*
X162020Y388690D01*
X162074Y388786D01*
X162125Y388884D01*
X162172Y388984D01*
X162216Y389086D01*
X162256Y389189D01*
X162292Y389293D01*
X162324Y389399D01*
X162353Y389505D01*
X162378Y389613D01*
X162400Y389721D01*
X162417Y389831D01*
X162431Y389940D01*
X162440Y390050D01*
X162446Y390161D01*
X162448Y390271D01*
X161473Y387999D02*
X155956Y381508D01*
X162447Y381508D01*
X56642Y386899D02*
X44958Y386899D01*
X44958Y390144D02*
X44958Y383653D01*
X44958Y394871D02*
X56642Y394871D01*
X44958Y394871D02*
X44958Y398117D01*
X44960Y398230D01*
X44966Y398343D01*
X44976Y398456D01*
X44990Y398569D01*
X45007Y398681D01*
X45029Y398792D01*
X45054Y398902D01*
X45084Y399012D01*
X45117Y399120D01*
X45154Y399227D01*
X45194Y399333D01*
X45239Y399437D01*
X45287Y399540D01*
X45338Y399641D01*
X45393Y399740D01*
X45451Y399837D01*
X45513Y399932D01*
X45578Y400025D01*
X45646Y400115D01*
X45717Y400203D01*
X45792Y400289D01*
X45869Y400372D01*
X45949Y400452D01*
X46032Y400529D01*
X46118Y400604D01*
X46206Y400675D01*
X46296Y400743D01*
X46389Y400808D01*
X46484Y400870D01*
X46581Y400928D01*
X46680Y400983D01*
X46781Y401034D01*
X46884Y401082D01*
X46988Y401127D01*
X47094Y401167D01*
X47201Y401204D01*
X47309Y401237D01*
X47419Y401267D01*
X47529Y401292D01*
X47640Y401314D01*
X47752Y401331D01*
X47865Y401345D01*
X47978Y401355D01*
X48091Y401361D01*
X48204Y401363D01*
X48317Y401361D01*
X48430Y401355D01*
X48543Y401345D01*
X48656Y401331D01*
X48768Y401314D01*
X48879Y401292D01*
X48989Y401267D01*
X49099Y401237D01*
X49207Y401204D01*
X49314Y401167D01*
X49420Y401127D01*
X49524Y401082D01*
X49627Y401034D01*
X49728Y400983D01*
X49827Y400928D01*
X49924Y400870D01*
X50019Y400808D01*
X50112Y400743D01*
X50202Y400675D01*
X50290Y400604D01*
X50376Y400529D01*
X50459Y400452D01*
X50539Y400372D01*
X50616Y400289D01*
X50691Y400203D01*
X50762Y400115D01*
X50830Y400025D01*
X50895Y399932D01*
X50957Y399837D01*
X51015Y399740D01*
X51070Y399641D01*
X51121Y399540D01*
X51169Y399437D01*
X51214Y399333D01*
X51254Y399227D01*
X51291Y399120D01*
X51324Y399012D01*
X51354Y398902D01*
X51379Y398792D01*
X51401Y398681D01*
X51418Y398569D01*
X51432Y398456D01*
X51442Y398343D01*
X51448Y398230D01*
X51450Y398117D01*
X51449Y398117D02*
X51449Y394871D01*
X56642Y405751D02*
X56642Y408996D01*
X56640Y409109D01*
X56634Y409222D01*
X56624Y409335D01*
X56610Y409448D01*
X56593Y409560D01*
X56571Y409671D01*
X56546Y409781D01*
X56516Y409891D01*
X56483Y409999D01*
X56446Y410106D01*
X56406Y410212D01*
X56361Y410316D01*
X56313Y410419D01*
X56262Y410520D01*
X56207Y410619D01*
X56149Y410716D01*
X56087Y410811D01*
X56022Y410904D01*
X55954Y410994D01*
X55883Y411082D01*
X55808Y411168D01*
X55731Y411251D01*
X55651Y411331D01*
X55568Y411408D01*
X55482Y411483D01*
X55394Y411554D01*
X55304Y411622D01*
X55211Y411687D01*
X55116Y411749D01*
X55019Y411807D01*
X54920Y411862D01*
X54819Y411913D01*
X54716Y411961D01*
X54612Y412006D01*
X54506Y412046D01*
X54399Y412083D01*
X54291Y412116D01*
X54181Y412146D01*
X54071Y412171D01*
X53960Y412193D01*
X53848Y412210D01*
X53735Y412224D01*
X53622Y412234D01*
X53509Y412240D01*
X53396Y412242D01*
X53283Y412240D01*
X53170Y412234D01*
X53057Y412224D01*
X52944Y412210D01*
X52832Y412193D01*
X52721Y412171D01*
X52611Y412146D01*
X52501Y412116D01*
X52393Y412083D01*
X52286Y412046D01*
X52180Y412006D01*
X52076Y411961D01*
X51973Y411913D01*
X51872Y411862D01*
X51773Y411807D01*
X51676Y411749D01*
X51581Y411687D01*
X51488Y411622D01*
X51398Y411554D01*
X51310Y411483D01*
X51224Y411408D01*
X51141Y411331D01*
X51061Y411251D01*
X50984Y411168D01*
X50909Y411082D01*
X50838Y410994D01*
X50770Y410904D01*
X50705Y410811D01*
X50643Y410716D01*
X50585Y410619D01*
X50530Y410520D01*
X50479Y410419D01*
X50431Y410316D01*
X50386Y410212D01*
X50346Y410106D01*
X50309Y409999D01*
X50276Y409891D01*
X50246Y409781D01*
X50221Y409671D01*
X50199Y409560D01*
X50182Y409448D01*
X50168Y409335D01*
X50158Y409222D01*
X50152Y409109D01*
X50150Y408996D01*
X44958Y409646D02*
X44958Y405751D01*
X44958Y409646D02*
X44960Y409747D01*
X44966Y409847D01*
X44976Y409947D01*
X44989Y410047D01*
X45007Y410146D01*
X45028Y410245D01*
X45053Y410342D01*
X45082Y410439D01*
X45115Y410534D01*
X45151Y410628D01*
X45191Y410720D01*
X45234Y410811D01*
X45281Y410900D01*
X45331Y410987D01*
X45385Y411073D01*
X45442Y411156D01*
X45502Y411236D01*
X45565Y411315D01*
X45632Y411391D01*
X45701Y411464D01*
X45773Y411534D01*
X45847Y411602D01*
X45924Y411667D01*
X46004Y411728D01*
X46086Y411787D01*
X46170Y411842D01*
X46256Y411894D01*
X46344Y411943D01*
X46434Y411988D01*
X46526Y412030D01*
X46619Y412068D01*
X46714Y412102D01*
X46809Y412133D01*
X46906Y412160D01*
X47004Y412183D01*
X47103Y412203D01*
X47203Y412218D01*
X47303Y412230D01*
X47403Y412238D01*
X47504Y412242D01*
X47604Y412242D01*
X47705Y412238D01*
X47805Y412230D01*
X47905Y412218D01*
X48005Y412203D01*
X48104Y412183D01*
X48202Y412160D01*
X48299Y412133D01*
X48394Y412102D01*
X48489Y412068D01*
X48582Y412030D01*
X48674Y411988D01*
X48764Y411943D01*
X48852Y411894D01*
X48938Y411842D01*
X49022Y411787D01*
X49104Y411728D01*
X49184Y411667D01*
X49261Y411602D01*
X49335Y411534D01*
X49407Y411464D01*
X49476Y411391D01*
X49543Y411315D01*
X49606Y411236D01*
X49666Y411156D01*
X49723Y411073D01*
X49777Y410987D01*
X49827Y410900D01*
X49874Y410811D01*
X49917Y410720D01*
X49957Y410628D01*
X49993Y410534D01*
X50026Y410439D01*
X50055Y410342D01*
X50080Y410245D01*
X50101Y410146D01*
X50119Y410047D01*
X50132Y409947D01*
X50142Y409847D01*
X50148Y409747D01*
X50150Y409646D01*
X50151Y409646D02*
X50151Y407049D01*
X82099Y247142D02*
X82099Y235458D01*
X78853Y247142D02*
X85344Y247142D01*
X90071Y247142D02*
X90071Y235458D01*
X90071Y247142D02*
X93317Y247142D01*
X93430Y247140D01*
X93543Y247134D01*
X93656Y247124D01*
X93769Y247110D01*
X93881Y247093D01*
X93992Y247071D01*
X94102Y247046D01*
X94212Y247016D01*
X94320Y246983D01*
X94427Y246946D01*
X94533Y246906D01*
X94637Y246861D01*
X94740Y246813D01*
X94841Y246762D01*
X94940Y246707D01*
X95037Y246649D01*
X95132Y246587D01*
X95225Y246522D01*
X95315Y246454D01*
X95403Y246383D01*
X95489Y246308D01*
X95572Y246231D01*
X95652Y246151D01*
X95729Y246068D01*
X95804Y245982D01*
X95875Y245894D01*
X95943Y245804D01*
X96008Y245711D01*
X96070Y245616D01*
X96128Y245519D01*
X96183Y245420D01*
X96234Y245319D01*
X96282Y245216D01*
X96327Y245112D01*
X96367Y245006D01*
X96404Y244899D01*
X96437Y244791D01*
X96467Y244681D01*
X96492Y244571D01*
X96514Y244460D01*
X96531Y244348D01*
X96545Y244235D01*
X96555Y244122D01*
X96561Y244009D01*
X96563Y243896D01*
X96561Y243783D01*
X96555Y243670D01*
X96545Y243557D01*
X96531Y243444D01*
X96514Y243332D01*
X96492Y243221D01*
X96467Y243111D01*
X96437Y243001D01*
X96404Y242893D01*
X96367Y242786D01*
X96327Y242680D01*
X96282Y242576D01*
X96234Y242473D01*
X96183Y242372D01*
X96128Y242273D01*
X96070Y242176D01*
X96008Y242081D01*
X95943Y241988D01*
X95875Y241898D01*
X95804Y241810D01*
X95729Y241724D01*
X95652Y241641D01*
X95572Y241561D01*
X95489Y241484D01*
X95403Y241409D01*
X95315Y241338D01*
X95225Y241270D01*
X95132Y241205D01*
X95037Y241143D01*
X94940Y241085D01*
X94841Y241030D01*
X94740Y240979D01*
X94637Y240931D01*
X94533Y240886D01*
X94427Y240846D01*
X94320Y240809D01*
X94212Y240776D01*
X94102Y240746D01*
X93992Y240721D01*
X93881Y240699D01*
X93769Y240682D01*
X93656Y240668D01*
X93543Y240658D01*
X93430Y240652D01*
X93317Y240650D01*
X93317Y240651D02*
X90071Y240651D01*
X100951Y238054D02*
X103547Y247142D01*
X100951Y238054D02*
X107442Y238054D01*
X105495Y240651D02*
X105495Y235458D01*
M02*
